<?xml version="1.0" encoding="utf-8"?>
<!-- Generator: Adobe Illustrator 25.1.0, SVG Export Plug-In . SVG Version: 6.00 Build 0)  -->
<svg version="1.1" xmlns="http://www.w3.org/2000/svg" xmlns:xlink="http://www.w3.org/1999/xlink" x="0px" y="0px"
	 viewBox="0 0 269.57 141.1" style="enable-background:new 0 0 269.57 141.1;" xml:space="preserve">
<style type="text/css">
	.st0{opacity:0.5;}
	.st1{fill:#C9B19C;}
	.st2{fill:#B04B12;}
	.st3{fill:#731F07;}
	.st4{fill:#A05544;}
	.st5{fill:#FFFFFF;}
	.st6{fill:#CFCBB3;}
	.st7{fill:#742823;}
	.st8{fill:#1A1A68;}
	.st9{fill:#322A23;}
	.st10{fill:#272327;}
	.st11{fill:#E89F27;}
	.st12{fill:#3C44A3;}
	.st13{fill:#E38565;}
	.st14{fill:#B05935;}
	.st15{fill:#646C3E;}
	.st16{fill:#7E7768;}
</style>
<g id="BACKGROUND">
</g>
<g id="OBJECTS">
	<g>
		<g class="st0">
			<path class="st1" d="M170.62,19.74c12.22-7.54,28.22-1.24,32.01,12.61c0.08,0.29,0.16,0.59,0.24,0.89
				c7.83,29.92-35.4,22.81-48.95,48.61c-15.17,28.87-46.06,37.86-71.13,5.19c-19.95-25.99-13.14-68.34,19.4-61.38
				C128.25,31.23,155.68,28.96,170.62,19.74z"/>
		</g>
		<g>
			<g>
				<g>
					<g>
						<g>
							<g>
								<path class="st2" d="M0,122.25c0,8.97,60.34,16.25,134.78,16.25c74.44,0,134.78-7.28,134.78-16.25
									c0-8.97-60.34-16.25-134.78-16.25C60.34,106,0,113.27,0,122.25z"/>
							</g>
						</g>
					</g>
				</g>
			</g>
			<g>
				<g>
					<g>
						<g>
							<g>
								<ellipse class="st3" cx="131.21" cy="121.11" rx="107.28" ry="8.69"/>
							</g>
						</g>
					</g>
				</g>
			</g>
		</g>
		<g>
			<g>
				<g>
					<path class="st4" d="M90.44,61.26c0,0,12.38,18.74,17.91,18.77c5.53,0.04,24.1-28.05,24.1-28.05l-3.24-2.92
						c-7.26,6.4-16.23,14.31-19.58,18.16c-4.71-5.7-8.63-10.5-11.63-14.42L90.44,61.26z"/>
				</g>
				<g>
					<g>
						<g>
							<g>
								<polygon class="st2" points="131.8,43.81 133.08,37.75 129.59,35.21 129.03,35.97 132.03,38.15 130.88,43.62 								"/>
							</g>
						</g>
					</g>
					<g>
						<g>
							<g>
								<polygon class="st5" points="121.56,42.74 122.89,47.83 123.3,49.4 123.67,50.85 124.08,52.42 125.41,57.51 133.73,56.55 
									133.87,51.3 133.91,49.68 133.95,48.18 133.99,46.56 134.13,41.3 								"/>
							</g>
						</g>
					</g>
					<g>
						<g>
							<g>
								<polygon class="st6" points="123.67,50.85 124.08,52.42 133.87,51.3 133.91,49.68 								"/>
							</g>
						</g>
					</g>
					<g>
						<g>
							<g>
								<polygon class="st6" points="122.89,47.83 123.3,49.4 133.95,48.18 133.99,46.56 								"/>
							</g>
						</g>
					</g>
					<g>
						<g>
							<g>
								<g>
									<g>
										<g>
											<g>
												<g>
													<g>
														<path class="st4" d="M134.17,42.78c0,0,2.27,0.52,2.13,2.11c-0.15,1.58-3.33,3.57-4.5,4.19
															c-1.17,0.62,0-2.26,1.08-3.12c1.08-0.86,1.06-1.6,1.06-1.6L134.17,42.78z"/>
													</g>
												</g>
											</g>
										</g>
									</g>
								</g>
							</g>
						</g>
						<g>
							<g>
								<g>
									<g>
										<g>
											<g>
												<g>
													<g>
														<path class="st4" d="M134.09,48.02c0,0,2.27,0.52,2.13,2.11c-0.15,1.58-3.33,3.57-4.5,4.19
															c-1.17,0.62,0-2.26,1.08-3.12c1.08-0.86,1.06-1.6,1.06-1.6L134.09,48.02z"/>
													</g>
												</g>
											</g>
										</g>
									</g>
								</g>
							</g>
						</g>
						<g>
							<g>
								<g>
									<g>
										<g>
											<g>
												<g>
													<g>
														<path class="st4" d="M134.45,50.57c0,0,2.01,0.46,1.88,1.86c-0.13,1.4-2.95,3.15-3.98,3.7c-1.03,0.55,0-2,0.96-2.76
															c0.96-0.76,0.93-1.41,0.93-1.41L134.45,50.57z"/>
													</g>
												</g>
											</g>
										</g>
									</g>
								</g>
							</g>
						</g>
						<g>
							<g>
								<g>
									<g>
										<g>
											<g>
												<g>
													<g>
														<path class="st4" d="M133.93,45.37c0,0,2.27,0.52,2.13,2.11c-0.15,1.58-3.33,3.57-4.5,4.19
															c-1.17,0.62,0-2.26,1.08-3.12c1.08-0.86,1.06-1.6,1.06-1.6L133.93,45.37z"/>
													</g>
												</g>
											</g>
										</g>
									</g>
								</g>
							</g>
						</g>
					</g>
				</g>
				<g>
					<g>
						<path class="st7" d="M109.33,67.28c-1.13,1.17-1.9,2.57-2.29,4.14c-0.06,0.24,0.31,0.34,0.37,0.1
							c0.37-1.52,1.11-2.85,2.19-3.97C109.77,67.37,109.5,67.1,109.33,67.28L109.33,67.28z"/>
					</g>
				</g>
			</g>
			<g>
				<path class="st5" d="M88.24,41.15l12.73,14.31c-1.04,3.4-9.46,10.25-9.6,12.81l-8.94-9.94C82.43,58.33,77.57,39.81,88.24,41.15z
					"/>
			</g>
			<g>
				<path class="st8" d="M64.24,84.16c0,0-2.48,8.88,2.56,13.77c5.04,4.89,19.91,2.21,27.02-1.68c7.12-3.89,6.06-9.6,6.06-9.6
					l-4.43-6.66L64.24,84.16z"/>
			</g>
			<g>
				<g>
					<g>
						<path class="st5" d="M60.96,89.79c25.09,5.68,37.84-8.04,37.84-8.04c-5.84-4.25-9.7-21.15-9.38-28.48
							c0.32-7.32-1.18-12.12-1.18-12.12c-1.71-0.58-3.71-1.3-5.58-1.99c-3.37-1.23-6.29-2.35-6.29-2.35l-8.35-0.12
							c0,0-1.95,0.83-4.47,2.08c-4.43,2.2-10.61,5.69-11.09,8.27c-0.59,3.2,6.32,13.96,9.28,24.38
							C64.69,81.84,60.96,89.79,60.96,89.79z"/>
					</g>
				</g>
				<g>
					<g>
						<path class="st6" d="M88.67,42.92c-4.79,3.32-10.52,5.75-16.44,4.57c-4.39-0.88-8.29-4.08-9.37-8.37
							c0.18-0.09,0.36-0.18,0.53-0.27c1.03,4.38,5.14,7.5,9.62,8.19c5.63,0.87,11.01-1.57,15.53-4.73
							C88.58,42.49,88.62,42.69,88.67,42.92z"/>
					</g>
				</g>
				<g>
					<g>
						<path class="st6" d="M91.96,69.19c-4.55-0.28-8.82-3.42-10.19-7.83c-1.47-4.74,0.65-10.17,4.81-12.81
							c0.31-0.2,0.6,0.3,0.29,0.5c-3.94,2.51-5.93,7.67-4.54,12.16c1.28,4.12,5.23,7.04,9.46,7.39
							C91.84,68.79,91.9,68.99,91.96,69.19z"/>
					</g>
				</g>
				<g>
					<g>
						<path class="st6" d="M59.11,56.19c0.52-3.74,4.95-5.02,8.07-3.78c3.65,1.45,5.95,5.16,7.62,8.52
							c3.22,6.51,4.98,14.67,11.35,19.01c3.08,2.1,7.1,3.02,10.64,1.58c0.34-0.14,0.19-0.7-0.15-0.56
							c-3.76,1.53-8.03,0.31-11.09-2.18c-3.1-2.52-5.04-6.15-6.63-9.74c-1.71-3.87-3.07-7.93-5.37-11.51
							c-1.81-2.81-4.42-5.59-7.88-6.13c-3.06-0.48-6.66,1.38-7.11,4.64C58.5,56.4,59.06,56.56,59.11,56.19L59.11,56.19z"/>
					</g>
				</g>
				<g>
					<g>
						<path class="st6" d="M79.87,81.68c-0.42,4.2-3.27,7.84-7.08,9.49c-0.54,0-1.08-0.01-1.63-0.03c5.8-1.63,9.37-7.67,7.8-13.52
							c-1.63-6.09-8.12-9.54-14.12-7.66c-0.36,0.11-0.51-0.45-0.15-0.56c2.66-0.83,5.54-0.7,8.12,0.36
							C77.49,71.7,80.38,76.65,79.87,81.68z"/>
					</g>
				</g>
				<g>
					<g>
						<path class="st9" d="M61.8,62.43c3.54,8.58,4.77,17.81,3.84,27.03c-0.02,0.24,0.36,0.24,0.38,0
							c0.94-9.26-0.29-18.52-3.85-27.13C62.08,62.11,61.71,62.2,61.8,62.43L61.8,62.43z"/>
					</g>
				</g>
				<g>
					<g>
						<path class="st6" d="M92.63,85.65c-2.61-3.5-7.46-1.99-10.27,0.36c-1.33,1.11-2.44,2.48-3.27,4
							c-0.12,0.23-0.26,0.49-0.41,0.78c-0.22,0.03-0.43,0.06-0.65,0.08c0.03-0.07,0.06-0.14,0.09-0.2c0.92-2.04,2.33-3.86,4.07-5.26
							c3.12-2.51,8.17-3.76,10.94-0.05C93.35,85.65,92.85,85.94,92.63,85.65z"/>
					</g>
				</g>
				<g>
					<g>
						<path class="st5" d="M89.41,48.38c0,0-0.31,3,3.34,6.9c4.41,4.7-1.65,10.27-2.95,11.86C88.5,68.73,89.41,48.38,89.41,48.38z"
							/>
					</g>
				</g>
				<g>
					<g>
						<path class="st9" d="M89.3,47.16c-0.45,3.27,2.08,5.52,3.7,8.04c2.59,4.03,0.34,7.88-2.15,11.28
							c-0.14,0.2,0.19,0.39,0.33,0.19c1.95-2.67,4.17-5.89,3.22-9.38c-0.99-3.61-5.29-5.95-4.73-10.03
							C89.7,47.02,89.33,46.92,89.3,47.16L89.3,47.16z"/>
					</g>
				</g>
			</g>
			<g>
				<g>
					<path class="st10" d="M57.71,20.16c0.54,2.7,1.04,3.48,2.58,7.52c0.99,2.58,1.12,5.26-0.17,7.5
						c3.24,1.09,15.94,0.87,23.56-1.39c-3.05-1.42-2.51-9.87-1.82-13.64c1.37-4.33,3.13-11.33-4.79-14.35
						c-7.95-3.03-12.75,1.27-12.75,1.27C55.74,9.08,57.62,19.69,57.71,20.16C57.71,20.16,57.71,20.16,57.71,20.16z"/>
				</g>
				<g>
					<path class="st10" d="M66.64,6.94c0,0,0.72-4.48-1.37-5.49c-2.09-1.02-3.42,0.9-3.42,0.9s-4.4-0.36-5.6,2.81
						s3.88,5.38,3.88,5.38S65.32,11.3,66.64,6.94z"/>
				</g>
				<g>
					<path class="st11" d="M59.69,10.24c1.53-2.22,4.11-3.87,6.7-4.58c0.47-0.13,0.22-0.84-0.24-0.71c-2.7,0.74-5.41,2.47-7.02,4.79
						C58.86,10.14,59.42,10.64,59.69,10.24L59.69,10.24z"/>
				</g>
				<g>
					<g>
						<g>
							<g>
								<g>
									<path class="st4" d="M66.05,39.3c1.91,1.46,11.41,8.08,12.06-0.76l-0.92-3.5l-1.01-3.82l-0.7-2.67l-8.63-4.07L66.05,39.3z"
										/>
								</g>
							</g>
							<g>
								<g>
									<path class="st10" d="M69.02,28.79c4.04,6.41,7.61,8.51,8.71,8.27l-1.54-5.83L69.02,28.79z"/>
								</g>
							</g>
						</g>
						<g>
							<g>
								<path class="st4" d="M64.1,22.82c0.99,2.64,1.83,3.47,4.03,5.95c1.96,2.21,5.11,3.16,6.68,3.16
									c5.71,0.01,8.17-2.49,6.88-10.13c-0.8-4.75,0.31-7.51-1.05-9.27l0,0c-0.09-0.08-0.18-0.16-0.27-0.23
									c-2.13-1.79-4.9-2.64-7.68-2.45C58.89,10.79,62.67,19.03,64.1,22.82z"/>
							</g>
						</g>
						<g>
							<g>
								<g>
									<g>
										<path class="st10" d="M77.74,23.22C77.74,23.22,77.74,23.22,77.74,23.22c0.34-0.06,0.96-0.35,0.91-1.01
											c-0.04-0.62-0.6-0.85-0.98-0.89l-0.36-0.79c-0.04-0.1-0.16-0.14-0.25-0.09c-0.1,0.04-0.14,0.16-0.09,0.25l0.41,0.89
											c0.03,0.07,0.1,0.11,0.17,0.11c0.03,0,0.69,0.03,0.73,0.55c0.03,0.48-0.57,0.6-0.59,0.61c-0.1,0.02-0.17,0.12-0.15,0.22
											C77.54,23.17,77.64,23.24,77.74,23.22z"/>
									</g>
								</g>
							</g>
						</g>
						<g>
							<path class="st7" d="M64.7,14.02c0.82,0.06,2.38,0.49,3.08,1.08c0.25,2.07,2.05,7.46-0.24,8.13
								c-3.41,0.99-3.24,3.44-5.26-2.32c-0.77-2.18-0.48-4.95,0.48-6.72C63.5,14.19,63.95,13.97,64.7,14.02z"/>
						</g>
						<g>
							<path class="st10" d="M81.41,15.48c0,0-1.21,0.18-2.99,0.36l-1.36-3.16l0.47,3.24c-0.89,0.08-1.88,0.15-2.9,0.19l-0.55-2.3
								v2.32c-1.86,0.06-3.8,0.04-5.48-0.17l-5.83-1.77c0,0-0.26-4.74,6.92-5.7c2.36-0.31,4.47-0.22,6.25,0.04
								C79.31,9.02,81.69,12.09,81.41,15.48z"/>
						</g>
						<g>
							<g>
								<g>
									<path class="st10" d="M73.89,20.39c0.48-0.12,0.98,0.09,1.24,0.51c0.2,0.31,0.68-0.01,0.48-0.32
										c-0.4-0.64-1.17-0.92-1.9-0.74C73.35,19.94,73.53,20.48,73.89,20.39L73.89,20.39z"/>
								</g>
							</g>
						</g>
						<g>
							<g>
								<g>
									<path class="st10" d="M78.69,20.75c0.28-0.45,0.72-0.65,1.24-0.59c0.37,0.05,0.48-0.52,0.11-0.56
										c-0.8-0.1-1.45,0.21-1.87,0.9C77.98,20.82,78.5,21.07,78.69,20.75L78.69,20.75z"/>
								</g>
							</g>
						</g>
						<g>
							<g>
								<g>
									<path class="st7" d="M78.18,28.18c-0.54,0.25-1.14,0.31-1.64-0.07c-0.25-0.19,0.06-0.57,0.31-0.38
										C77.2,28,77.62,27.89,78,27.72C78.29,27.59,78.47,28.05,78.18,28.18L78.18,28.18z"/>
								</g>
							</g>
						</g>
						<g>
							<g>
								<path class="st7" d="M71.22,23.01c0.04,0.41,0.71,0.67,1.5,0.59s1.39-0.48,1.34-0.89c-0.04-0.41-0.71-0.67-1.5-0.59
									C71.78,22.2,71.18,22.6,71.22,23.01z"/>
							</g>
						</g>
						<g>
							<g>
								<path class="st7" d="M79.41,22.57c0.04,0.41,0.72,0.67,1.5,0.59c0.37-0.04,0.7-0.15,0.94-0.29c-0.05-0.35-0.1-0.7-0.16-1.07
									c0-0.02-0.01-0.03-0.01-0.04c-0.26-0.08-0.58-0.11-0.93-0.07C79.97,21.77,79.36,22.16,79.41,22.57z"/>
							</g>
						</g>
						<g>
							<g>
								<g>
									<path class="st10" d="M74.31,18.17c-0.58-0.15-1.31,0.02-1.48,0.67c-0.16,0.6-1.14,0.45-0.97-0.16
										c0.31-1.14,1.47-1.78,2.62-1.48C75.08,17.36,74.93,18.33,74.31,18.17L74.31,18.17z"/>
								</g>
							</g>
						</g>
						<g>
							<g>
								<g>
									<path class="st10" d="M80.13,18.89c-0.43-0.43-0.97-1.05-1.63-0.81c-0.6,0.21-0.96-0.7-0.36-0.92
										c1.06-0.38,1.89,0.24,2.61,0.96C81.19,18.57,80.58,19.34,80.13,18.89L80.13,18.89z"/>
								</g>
							</g>
						</g>
						<g>
							<g>
								<path class="st5" d="M79.68,24.36c0,0-1.83,0.52-5.24,0c0,0,0.59,3.05,3.1,2.78C79.66,26.91,79.68,24.36,79.68,24.36z"/>
							</g>
						</g>
					</g>
					<g>
						<g>
							<g>
								<path class="st4" d="M69.71,24.43c0.23-1.03-0.07-2.1-0.73-2.92c-0.86-1.06-2.42-2.66-3.71-2.34
									c-1.91,0.47-1.96,2.21-1.59,3.95c0.37,1.73,1.76,3.91,4.14,3.29C69,26.1,69.52,25.27,69.71,24.43z"/>
							</g>
						</g>
						<g>
							<g>
								<g>
									<g>
										<path class="st10" d="M67.12,24.36c0.04-0.73,0.02-1.48-0.3-2.15c-0.29-0.6-1.05-1.44-1.82-1.11
											c-0.26,0.11-0.47-0.28-0.21-0.38c0.74-0.31,1.5,0.08,2,0.66c0.72,0.83,0.82,1.95,0.76,3.01
											C67.54,24.66,67.1,24.64,67.12,24.36L67.12,24.36z"/>
									</g>
								</g>
							</g>
						</g>
					</g>
				</g>
			</g>
			<g>
				<g>
					<g>
						<g>
							<g>
								<g>
									<g>
										<g>
											<g>
												<g>
													<g>
														<path class="st4" d="M103.91,109.85c-0.17,0.07-0.33,0.13-0.48,0.2c-0.41,0.17-0.78,0.34-1.1,0.5
															c-0.77,0.37-4.06-0.28-4.06-0.28l-2.08,5.54c0,0,3.69,1.07,4.95,1.37c0.36,0.09,0.75,0.18,1.18,0.29
															c0.49,0.12,1.03,0.26,1.59,0.4C110.33,114.9,110.33,112.23,103.91,109.85z"/>
													</g>
												</g>
											</g>
										</g>
									</g>
								</g>
							</g>
						</g>
					</g>
					<g>
						<path class="st5" d="M123.65,129.5c-0.47,0.11-1.03-0.13-1.64-0.59c-1.89-1.4-4.24-4.78-5.64-5.87
							c-1.86-1.45-11.8-4.39-11.8-4.39s-2.2-0.71-0.87-1.85c1.32-1.13,3.06-1.67,3.06-1.67s-0.56-2.89-1.45-4.19
							c-0.89-1.3-1.89-0.9-1.89-0.9l-1.1,0.5c0,0-1-0.83,0-1.45c1.01-0.62,2.08,0.17,3.16-0.41c0.78-0.42,2.03-1.18,3.64-1.5
							c0.6-0.12,1.25-0.19,1.95-0.15c2.57,0.12,6.79,7.7,9.19,10.55c2.4,2.85,4.6,4.34,5.43,7.28
							C126.51,127.8,125.56,129.04,123.65,129.5z"/>
					</g>
					<g>
						<g>
							<path class="st10" d="M111.57,110.84c-0.91,2.83,2.79,5.51,5.35,5.07c0.24-0.04,0.14-0.41-0.1-0.37
								c-2.28,0.39-5.69-2.09-4.88-4.6C112.01,110.71,111.64,110.61,111.57,110.84L111.57,110.84z"/>
						</g>
					</g>
					<g>
						<g>
							<path class="st10" d="M112.2,121.58c0.15,0.06,0.32-0.02,0.36-0.18c0.16-0.56,0.44-1.1,1-1.3c0.34-0.12,0.19-0.66-0.15-0.54
								c-0.76,0.28-1.15,0.95-1.37,1.68C112,121.38,112.07,121.53,112.2,121.58C112.2,121.58,112.2,121.58,112.2,121.58z"/>
						</g>
					</g>
					<g>
						<g>
							<path class="st10" d="M110.9,120.98c0.15,0.06,0.32-0.02,0.36-0.18c0.16-0.56,0.44-1.1,1-1.3c0.34-0.12,0.19-0.66-0.15-0.54
								c-0.76,0.28-1.15,0.95-1.37,1.68C110.7,120.78,110.77,120.93,110.9,120.98C110.9,120.98,110.9,120.98,110.9,120.98z"/>
						</g>
					</g>
					<g>
						<g>
							<path class="st10" d="M113.61,122.09c0.14,0.04,0.29-0.04,0.33-0.17c0.17-0.49,0.44-0.94,0.94-1.12
								c0.34-0.12,0.19-0.66-0.15-0.54c-0.69,0.25-1.08,0.83-1.31,1.48C113.38,121.88,113.46,122.04,113.61,122.09
								C113.61,122.09,113.61,122.09,113.61,122.09z"/>
						</g>
					</g>
					<g>
						<path class="st10" d="M123.65,129.5c-0.47,0.11-1.03-0.13-1.64-0.59c0.17,0.03,0.39,0.06,0.63,0.05
							c-0.01-0.05,0-0.11,0.04-0.18c0.24-0.47,0.75-0.46,0.89-0.53c0.5-0.25,0.72-0.77,0.72-0.77c0.14-1.02-0.08-2.69-1.13-4.25
							c-1.28-1.9-4.06-3.79-5.51-4.57c-1.45-0.78-1.94-3.27-2.86-5.22c-0.91-1.94-4.92-2.11-5.84-3.59
							c-0.64-1.05-0.17-2.13,0.16-2.67c0.28-0.51,1.26-0.61,1.96-0.57c2.57,0.12,6.78,8.12,9.18,10.97c2.4,2.85,4.6,4.34,5.43,7.28
							C126.51,127.8,125.56,129.04,123.65,129.5z"/>
					</g>
				</g>
				<g>
					<g>
						<g>
							<g>
								<g>
									<g>
										<g>
											<g>
												<g>
													<g>
														<path class="st4" d="M54.95,109.85c0.17,0.07,0.33,0.13,0.48,0.2c0.41,0.17,0.78,0.34,1.1,0.5
															c0.77,0.37,4.06-0.28,4.06-0.28l2.08,5.54c0,0-3.69,1.07-4.95,1.37c-0.36,0.09-0.75,0.18-1.18,0.29
															c-0.49,0.12-1.03,0.26-1.59,0.4C48.53,114.9,48.53,112.23,54.95,109.85z"/>
													</g>
												</g>
											</g>
										</g>
									</g>
								</g>
							</g>
						</g>
					</g>
					<g>
						<path class="st5" d="M35.2,129.5c0.47,0.11,1.03-0.13,1.64-0.59c1.89-1.4,4.24-4.78,5.64-5.87c1.86-1.45,11.8-4.39,11.8-4.39
							s2.2-0.71,0.87-1.85c-1.32-1.13-3.06-1.67-3.06-1.67s0.56-2.89,1.45-4.19c0.89-1.3,1.89-0.9,1.89-0.9l1.1,0.5
							c0,0,1-0.83,0-1.45c-1.01-0.62-2.08,0.17-3.16-0.41c-0.78-0.42-2.03-1.18-3.64-1.5c-0.6-0.12-1.25-0.19-1.95-0.15
							c-2.57,0.12-6.79,7.7-9.19,10.55c-2.4,2.85-4.6,4.34-5.43,7.28C32.35,127.8,33.3,129.04,35.2,129.5z"/>
					</g>
					<g>
						<g>
							<path class="st10" d="M46.92,110.94c0.81,2.51-2.6,4.99-4.88,4.6c-0.24-0.04-0.34,0.33-0.1,0.37
								c2.56,0.44,6.26-2.24,5.35-5.07C47.21,110.61,46.84,110.71,46.92,110.94L46.92,110.94z"/>
						</g>
					</g>
					<g>
						<g>
							<path class="st10" d="M46.65,121.58c-0.15,0.06-0.32-0.02-0.36-0.18c-0.16-0.56-0.44-1.1-1-1.3
								c-0.34-0.12-0.19-0.66,0.15-0.54c0.76,0.28,1.15,0.95,1.37,1.68C46.86,121.38,46.79,121.53,46.65,121.58
								C46.66,121.58,46.65,121.58,46.65,121.58z"/>
						</g>
					</g>
					<g>
						<g>
							<path class="st10" d="M47.95,120.98c-0.15,0.06-0.32-0.02-0.36-0.18c-0.16-0.56-0.44-1.1-1-1.3
								c-0.34-0.12-0.19-0.66,0.15-0.54c0.76,0.28,1.15,0.95,1.37,1.68C48.15,120.78,48.09,120.93,47.95,120.98
								C47.96,120.98,47.95,120.98,47.95,120.98z"/>
						</g>
					</g>
					<g>
						<g>
							<path class="st10" d="M45.24,122.09c-0.14,0.04-0.29-0.04-0.33-0.17c-0.17-0.49-0.44-0.94-0.94-1.12
								c-0.34-0.12-0.19-0.66,0.15-0.54c0.69,0.25,1.08,0.83,1.31,1.48C45.48,121.88,45.4,122.04,45.24,122.09
								C45.25,122.09,45.24,122.09,45.24,122.09z"/>
						</g>
					</g>
					<g>
						<path class="st10" d="M35.2,129.5c0.47,0.11,1.03-0.13,1.64-0.59c-0.17,0.03-0.39,0.06-0.63,0.05c0.01-0.05,0-0.11-0.04-0.18
							c-0.24-0.47-0.75-0.46-0.89-0.53c-0.5-0.25-0.72-0.77-0.72-0.77c-0.14-1.02,0.08-2.69,1.13-4.25c1.28-1.9,4.06-3.79,5.51-4.57
							c1.45-0.78,1.94-3.27,2.86-5.22c0.91-1.94,4.92-2.11,5.84-3.59c0.64-1.05,0.17-2.13-0.16-2.67c-0.28-0.51-1.26-0.61-1.96-0.57
							c-2.57,0.12-6.78,8.12-9.18,10.97c-2.4,2.85-4.6,4.34-5.43,7.28C32.35,127.8,33.3,129.04,35.2,129.5z"/>
					</g>
				</g>
				<g>
					<g>
						<g>
							<g>
								<g>
									<g>
										<g>
											<path class="st12" d="M127.82,90.38c-5.67,7.44-18.73,15.29-32.82,20.08c-4.89,1.66-9.1,2.93-12.69,3.89
												c-2.38,0.64-4.49,1.14-6.35,1.54c-0.35,0.08-0.7,0.15-1.04,0.22c-8.13,1.65-11.16,1.19-11.16,1.19s-5.1-1.45-3.22-9.72
												c0,0,9.49-2.53,16.78-6.45c1.26-0.68,2.46-1.4,3.53-2.16c0.19-0.13,0.38-0.27,0.56-0.41c0.28-0.21,0.56-0.43,0.84-0.65
												c6.72-5.28,12.37-12.34,27.68-19.08c0,0,7.95-5.21,14.56-3.23c0.99,0.3,1.92,0.74,2.78,1.37
												C132.11,80.53,131.65,85.36,127.82,90.38z"/>
										</g>
									</g>
								</g>
							</g>
						</g>
					</g>
					<g>
						<g>
							<g>
								<g>
									<g>
										<g>
											<path class="st8" d="M64.03,104.72c0.06-0.03,0.12-0.05,0.19-0.05c0.19,0.01,0.35,0.17,0.34,0.37
												c-0.2,5.09,3.51,11.56,3.54,11.62c0.1,0.17,0.04,0.38-0.13,0.48c0,0,0,0,0,0c-0.17,0.1-0.38,0.04-0.48-0.13
												c-0.16-0.27-3.85-6.71-3.64-12.01C63.86,104.89,63.93,104.78,64.03,104.72z"/>
										</g>
									</g>
								</g>
							</g>
						</g>
					</g>
					<g>
						<g>
							<g>
								<g>
									<g>
										<path class="st8" d="M99.39,108.09l-3.07,0.53l-19.01-7.5c1.26-0.68,2.46-1.4,3.53-2.16L99.39,108.09z"/>
									</g>
								</g>
							</g>
						</g>
					</g>
					<g>
						<g>
							<g>
								<g>
									<g>
										<path class="st8" d="M82.3,114.35c-2.38,0.64-4.49,1.14-6.35,1.54c-5.98-1.56-14.21-4.9-14.21-4.9L62,108.2L82.3,114.35z"
											/>
									</g>
								</g>
							</g>
						</g>
					</g>
					<g>
						<g>
							<g>
								<g>
									<g>
										<path class="st8" d="M127.82,90.38c-5.11-6.4-4.33-11.93-3.35-14.77c0.99,0.3,1.92,0.74,2.78,1.37
											C132.11,80.53,131.65,85.36,127.82,90.38z"/>
									</g>
								</g>
							</g>
						</g>
					</g>
					<g>
						<g>
							<g>
								<g>
									<g>
										<g>
											<g>
												<path class="st8" d="M61.43,109.99c4.95-1.15,15.04-5.68,27.01-12.13c8.95-4.82,19.28-10.99,20.8-13.15
													c0.82-1.17,1.04-2.12,0.63-2.84c-0.6-1.08-2.37-1.21-3.17-1.2c-0.21,0-0.37,0.17-0.36,0.38l0,0
													c0.01,0.19,0.17,0.33,0.36,0.33c0.79,0,2.17,0.15,2.55,0.84c0.32,0.57-0.15,1.45-0.59,2.08
													c-1.23,1.74-9.88,7.18-20.56,12.93c-9.2,4.96-21.08,10.73-26.83,12.06L61.43,109.99z"/>
											</g>
										</g>
									</g>
								</g>
							</g>
						</g>
					</g>
					<g>
						<g>
							<g>
								<g>
									<g>
										<g>
											<path class="st8" d="M62.39,106.49c0.52,4.36,1.62,8.33,4.06,11.39c0,0-2.12,1.5-4.04,0.4
												c-1.46-0.84-4.24-7.67-3.13-11.29C60.51,106.31,61.57,106.09,62.39,106.49z"/>
										</g>
									</g>
								</g>
							</g>
						</g>
					</g>
				</g>
				<g>
					<g>
						<g>
							<g>
								<g>
									<g>
										<g>
											<path class="st12" d="M98.37,108.26c1.91,8.27-3.19,9.73-3.19,9.73s-7.63,1.21-31.26-6.72
												c-13.63-4.57-26.3-12.02-32.29-19.2c-4.39-5.27-5.18-10.41-0.09-14.17c1.17-0.87,2.5-1.38,3.9-1.65
												c6.42-1.24,14.2,2.85,14.2,2.85c15.97,6.95,12.13,9.67,25.52,17.56C82.81,101.17,98.37,108.26,98.37,108.26z"/>
										</g>
									</g>
								</g>
							</g>
						</g>
					</g>
					<g>
						<g>
							<g>
								<g>
									<g>
										<g>
											<path class="st8" d="M94.22,105.78v0.02c-0.01,0.12-0.1,1.34-0.39,3.03c-0.04,0.23-0.08,0.47-0.13,0.71
												c-0.5,2.55-1.43,5.89-3.17,8.26c-0.07,0.1-0.19,0.15-0.31,0.15c-0.07-0.01-0.13-0.03-0.19-0.07
												c-0.16-0.12-0.19-0.34-0.08-0.49c1.67-2.28,2.58-5.59,3.06-8.09c0.04-0.25,0.09-0.49,0.13-0.72v0
												c0.28-1.64,0.36-2.79,0.36-2.82c0.01-0.2,0.18-0.34,0.38-0.33C94.08,105.44,94.22,105.6,94.22,105.78z"/>
										</g>
									</g>
								</g>
							</g>
						</g>
					</g>
					<g>
						<g>
							<g>
								<g>
									<g>
										<path class="st8" d="M35.44,76.25c0.35,2.81,1.1,12.2-3.81,15.82c-4.39-5.27-5.18-10.41-0.09-14.17
											C32.71,77.04,34.04,76.52,35.44,76.25z"/>
									</g>
								</g>
							</g>
						</g>
					</g>
					<g>
						<g>
							<g>
								<g>
									<g>
										<g>
											<g>
												<path class="st8" d="M93.83,108.83c-0.04,0.23-0.08,0.47-0.13,0.71c-0.22-0.08-0.45-0.16-0.68-0.25
													c-5.5-2.03-13.51-5.79-22.6-10.64c-8.97-4.79-19.31-10.92-20.85-13.07c-0.83-1.16-1.05-2.12-0.64-2.84
													c0.6-1.09,2.37-1.22,3.17-1.21c0.21,0,0.38,0.17,0.36,0.38c-0.01,0.18-0.17,0.34-0.35,0.34c-0.8,0-2.17,0.15-2.55,0.85
													c-0.32,0.58,0.15,1.45,0.6,2.08c1.24,1.74,9.9,7.14,20.6,12.86c7.23,3.86,16.12,8.22,22.39,10.55v0
													C93.38,108.66,93.61,108.74,93.83,108.83z"/>
											</g>
										</g>
									</g>
								</g>
							</g>
						</g>
					</g>
					<g>
						<g>
							<g>
								<g>
									<g>
										<g>
											<path class="st8" d="M96.51,107.18c-0.51,4.36-1.59,8.34-4.01,11.4c0,0,2.12,1.49,4.04,0.38
												c1.46-0.85,4.22-7.69,3.09-11.31C98.39,107,97.32,106.78,96.51,107.18z"/>
										</g>
									</g>
								</g>
							</g>
						</g>
					</g>
				</g>
			</g>
			<g>
				<g>
					<path class="st9" d="M47.01,57.15c0,0-5.48,0.95,1.38,7.21c6.87,6.25,8.52,5.45,8.52,5.45s0.88-2.46,0.56-7.76
						C57.03,54.84,47.01,57.15,47.01,57.15z"/>
				</g>
				<g>
					<path class="st4" d="M50.08,51.99c0,0-14.23,15.84-13.28,23.62c0.95,7.78,34.42,21.92,34.42,21.92l2.88-1.28
						c0,0-21.55-19.68-25.36-22.55l8.76-10.18L50.08,51.99z"/>
				</g>
				<g>
					<g>
						<path class="st7" d="M48.79,73.37c-1.15-0.22-2.3-0.11-3.41,0.28c-0.23,0.08-0.13,0.45,0.1,0.37c1.04-0.37,2.12-0.49,3.2-0.28
							C48.93,73.79,49.03,73.42,48.79,73.37L48.79,73.37z"/>
					</g>
				</g>
				<g>
					<g>
						<g>
							<path class="st4" d="M68.03,92.37c-1.42,1.24-1.46,3.41-0.27,4.87c0.63,0.77,1.25,1.67,1.53,2.5c0.66,2,0.9,4.54,1.52,5.45
								c0.92,1.35,1.31-0.37,1.33-0.58c0.12-1.4-0.04-3.37-0.04-3.37s1.16,3.38,1.05,4.78c-0.11,1.4,0.82,2.27,1.66,1.02
								c0.85-1.25,0.35-5.24-0.09-6.31c0,0,1.25,1.9,1.17,3.81c-0.08,1.91,0.15,2.6,0.5,3.28c0.36,0.69,1.65-0.16,1.7-2.83
								c0.04-2.66-0.61-3.7-1.19-4.85c0,0,0.79,0.69,1.82,2.09c1.02,1.39,0.75,3.59,1.67,4.07c0.94,0.49,1.14-2.05,0.62-3.5
								c-0.52-1.45-0.77-2.55-2.09-4.01c-1.32-1.46-2.63-2.82-3.62-3.51c-1-0.69-4.23-3.6-5.98-3.53
								C68.87,91.77,68.43,92.01,68.03,92.37z"/>
						</g>
					</g>
					<g>
						<g>
							<g>
								<g>
									<g>
										<g>
											<path class="st4" d="M72.57,93.31c0,0,3.58,0.94,4.47,1.83c0.89,0.88,2.69,1.74,2.15,2.38
												c-0.54,0.64-2.73-0.47-2.73-0.47L72.57,93.31z"/>
										</g>
									</g>
								</g>
							</g>
						</g>
					</g>
				</g>
			</g>
			<g>
				<path class="st5" d="M53.32,45.45l-8.89,12.33c0,0,11.87,1.5,12.49,12.02l6.18-10.2C63.1,59.61,63.63,42.42,53.32,45.45z"/>
			</g>
			<g>
				<g>
					<path class="st9" d="M65.08,56.23c-1.62,3.2-3.59,6.17-5.5,9.2c-0.13,0.21,0.2,0.4,0.33,0.19c1.91-3.03,3.87-6,5.5-9.2
						C65.52,56.21,65.2,56.01,65.08,56.23L65.08,56.23z"/>
				</g>
			</g>
		</g>
		<g>
			<g>
				<path class="st10" d="M209.1,20.83c-0.54,2.7-1.04,3.48-2.58,7.52c-0.99,2.58,2.06,19.91,3.35,22.14
					c-3.24,1.09-20.72-3.32-28.33-5.59c3.05-1.42,3.94-14.69,3.26-18.46c-1.37-4.33-2.97-16.96,4.96-19.98
					c7.95-3.03,12.75,1.27,12.75,1.27C211.07,9.76,209.19,20.36,209.1,20.83C209.1,20.83,209.1,20.83,209.1,20.83z"/>
			</g>
			<g>
				<g>
					<path class="st13" d="M180.96,55.3c0,0-21.61,13.27-26.75,11.23c-5.14-2.04-11.84-35.03-11.84-35.03l4.1-1.49
						c4.34,8.65,9.7,19.35,11.36,24.17c6.5-3.52,18.31-10.58,22.56-13.09L180.96,55.3z"/>
				</g>
				<g>
					<g>
						<g>
							<g>
								<polygon class="st2" points="142.07,23.23 141.3,17.09 144.99,14.84 145.48,15.64 142.31,17.57 143,23.11 								"/>
							</g>
						</g>
					</g>
					<g>
						<g>
							<g>
								<polygon class="st5" points="152.36,23.01 150.62,27.97 150.09,29.51 149.59,30.92 149.05,32.45 147.32,37.41 139.1,35.77 
									139.39,30.52 139.48,28.9 139.57,27.41 139.66,25.79 139.96,20.54 								"/>
							</g>
						</g>
					</g>
					<g>
						<g>
							<g>
								<polygon class="st6" points="149.59,30.92 149.05,32.45 139.39,30.52 139.48,28.9 								"/>
							</g>
						</g>
					</g>
					<g>
						<g>
							<g>
								<polygon class="st6" points="150.62,27.97 150.09,29.51 139.57,27.41 139.66,25.79 								"/>
							</g>
						</g>
					</g>
					<g>
						<g>
							<g>
								<g>
									<g>
										<g>
											<g>
												<g>
													<g>
														<path class="st13" d="M139.8,22.01c0,0-2.31,0.34-2.29,1.93c0.02,1.59,3.03,3.83,4.14,4.55
															c1.11,0.72,0.19-2.26-0.82-3.2c-1.01-0.94-0.92-1.68-0.92-1.68L139.8,22.01z"/>
													</g>
												</g>
											</g>
										</g>
									</g>
								</g>
							</g>
						</g>
						<g>
							<g>
								<g>
									<g>
										<g>
											<g>
												<g>
													<g>
														<path class="st13" d="M139.44,27.24c0,0-2.31,0.33-2.29,1.93c0.02,1.59,3.03,3.83,4.14,4.55
															c1.11,0.72,0.19-2.26-0.82-3.2c-1.01-0.94-0.92-1.68-0.92-1.68L139.44,27.24z"/>
													</g>
												</g>
											</g>
										</g>
									</g>
								</g>
							</g>
						</g>
						<g>
							<g>
								<g>
									<g>
										<g>
											<g>
												<g>
													<g>
														<path class="st13" d="M138.87,29.75c0,0-2.04,0.3-2.02,1.7c0.01,1.4,2.68,3.39,3.66,4.02
															c0.98,0.63,0.17-1.99-0.73-2.83c-0.89-0.83-0.81-1.49-0.81-1.49L138.87,29.75z"/>
													</g>
												</g>
											</g>
										</g>
									</g>
								</g>
							</g>
						</g>
						<g>
							<g>
								<g>
									<g>
										<g>
											<g>
												<g>
													<g>
														<path class="st13" d="M139.82,24.61c0,0-2.31,0.33-2.29,1.93c0.02,1.59,3.03,3.83,4.14,4.55
															c1.11,0.72,0.19-2.26-0.82-3.2c-1.01-0.94-0.92-1.68-0.92-1.68L139.82,24.61z"/>
													</g>
												</g>
											</g>
										</g>
									</g>
								</g>
							</g>
						</g>
					</g>
				</g>
				<g>
					<g>
						<path class="st14" d="M157.71,54.46c0.58,1.45,0.77,2.96,0.56,4.5c-0.03,0.24,0.33,0.34,0.37,0.1
							c0.23-1.62,0.05-3.19-0.56-4.7C157.99,54.13,157.62,54.23,157.71,54.46L157.71,54.46z"/>
					</g>
				</g>
			</g>
			<g>
				<path class="st10" d="M203.01,84.16c0,0,2.48,8.88-2.56,13.77c-5.04,4.89-19.91,2.21-27.02-1.68c-7.12-3.89-6.06-9.6-6.06-9.6
					l4.43-6.66L203.01,84.16z"/>
			</g>
			<g>
				<path class="st10" d="M166.28,88.44c0,0-4.79,16.34-1.36,18.54c3.43,2.21,31.29-4.15,31.29-4.15l11.29-5.31l-3.35-7.29
					L166.28,88.44z"/>
			</g>
			<g>
				<g>
					<g>
						<path class="st12" d="M206.29,89.79c-25.09,5.68-37.84-8.04-37.84-8.04c5.84-4.25,9.7-21.15,9.38-28.48
							c-0.15-3.41,0.1-6.27,0.4-8.35c0.33-2.25,1.86-4.13,4-4.9c0.79-0.28,1.58-0.57,2.36-0.86c3.37-1.23,6.3-2.35,6.3-2.35
							l8.35-0.12c0,0,1.95,0.83,4.47,2.08c4.43,2.2,10.61,5.69,11.09,8.27c0.59,3.2-6.32,13.96-9.28,24.38
							C202.56,81.84,206.29,89.79,206.29,89.79z"/>
					</g>
				</g>
				<g>
					<g>
						<path class="st8" d="M178.21,74.22c2.73,6.3,9.34,9.86,16.11,8.79c0.36-0.06,0.21-0.61-0.15-0.55
							c-6.54,1.03-12.84-2.47-15.46-8.52C178.56,73.59,178.07,73.88,178.21,74.22L178.21,74.22z"/>
					</g>
				</g>
				<g>
					<g>
						<path class="st5" d="M188.63,37.12c-1.32,3.12-2.92,6.6-2.62,10.08c0.23,2.68,2.25,4.57,5,4.16c3.05-0.46,5.36-3.42,7.17-5.67
							c1.9-2.38,3.33-5,4.36-7.86c0.17-0.46-0.57-0.66-0.73-0.2c-0.84,2.34-1.95,4.54-3.42,6.55c-1.48,2.03-3.33,4.38-5.51,5.69
							c-1.25,0.74-2.92,1.15-4.28,0.44c-1.45-0.76-1.88-2.43-1.85-3.95c0.06-3.08,1.36-6.05,2.54-8.84
							C189.47,37.06,188.82,36.67,188.63,37.12L188.63,37.12z"/>
					</g>
				</g>
				<g>
					<g>
						<path class="st8" d="M205.56,60.83c-4.54,8.48-6.02,18.33-4.19,27.77c0.07,0.36,0.62,0.21,0.55-0.15
							c-1.8-9.28-0.33-18.99,4.13-27.33C206.22,60.79,205.73,60.51,205.56,60.83L205.56,60.83z"/>
					</g>
				</g>
				<g>
					<g>
						<path class="st12" d="M177.84,48.38c0,0,0.31,3-3.34,6.9c-4.41,4.7,1.65,10.27,2.95,11.86
							C178.75,68.73,177.84,48.38,177.84,48.38z"/>
					</g>
				</g>
			</g>
			<g>
				<g>
					<g>
						<g>
							<g>
								<g>
									<path class="st13" d="M201.2,39.3c-2.58,2.57-13.01,10.68-12.06-0.76l0.92-3.5l1.01-3.82l0.7-2.67l8.63-4.07L201.2,39.3z"
										/>
								</g>
							</g>
							<g>
								<g>
									<path class="st10" d="M198.24,28.79c-4.04,6.41-7.61,8.51-8.71,8.27l1.54-5.83L198.24,28.79z"/>
								</g>
							</g>
						</g>
						<g>
							<g>
								<path class="st13" d="M203.15,22.82c-0.99,2.64-1.83,3.47-4.03,5.95c-1.96,2.21-5.11,3.16-6.68,3.16
									c-5.71,0.01-8.17-2.49-6.88-10.13c0.8-4.75-0.31-7.51,1.05-9.27l0,0c0.09-0.08,0.18-0.16,0.27-0.23
									c2.13-1.79,4.9-2.64,7.68-2.45C208.36,10.79,204.58,19.03,203.15,22.82z"/>
							</g>
						</g>
						<g>
							<g>
								<g>
									<path class="st9" d="M193.34,20.66c-0.03,0.41-0.3,0.72-0.6,0.69c-0.3-0.02-0.53-0.37-0.5-0.77
										c0.03-0.41,0.3-0.72,0.6-0.69C193.14,19.9,193.37,20.25,193.34,20.66z"/>
								</g>
							</g>
						</g>
						<g>
							<g>
								<g>
									<path class="st9" d="M188.38,20.52c-0.03,0.41-0.3,0.72-0.6,0.69c-0.3-0.02-0.53-0.37-0.5-0.77
										c0.03-0.41,0.3-0.72,0.6-0.69C188.19,19.77,188.41,20.12,188.38,20.52z"/>
								</g>
							</g>
						</g>
						<g>
							<path class="st10" d="M193.91,11.19c0,0-1.7,5.18-9.01,5.92c0,0-1.81-5.85,2.08-7.29C190.87,8.4,193.91,11.19,193.91,11.19z"
								/>
						</g>
						<g>
							<path class="st10" d="M190.81,9.41c0,0,2.29,10,10.32,8.62c8.03-1.38,4.96-4.87,1.45-7.92S190.81,9.41,190.81,9.41z"/>
						</g>
						<g>
							<g>
								<g>
									<g>
										<path class="st10" d="M189.51,23.22C189.51,23.22,189.51,23.22,189.51,23.22c-0.34-0.06-0.96-0.35-0.91-1.01
											c0.04-0.62,0.6-0.85,0.98-0.89l0.36-0.79c0.04-0.1,0.16-0.14,0.25-0.09c0.1,0.04,0.14,0.16,0.09,0.25l-0.41,0.89
											c-0.03,0.07-0.1,0.11-0.17,0.11c-0.03,0-0.69,0.03-0.73,0.55c-0.03,0.48,0.57,0.6,0.59,0.61c0.1,0.02,0.17,0.12,0.15,0.22
											C189.71,23.17,189.61,23.24,189.51,23.22z"/>
									</g>
								</g>
							</g>
						</g>
						<g>
							<path class="st10" d="M202.55,14.02c-0.82,0.06-2.38,0.49-3.08,1.08c-0.25,2.07-2.05,7.46,0.24,8.13
								c3.41,0.99,3.24,3.44,5.26-2.32c0.77-2.18,0.48-4.95-0.48-6.72C203.75,14.19,203.31,13.97,202.55,14.02z"/>
						</g>
						<g>
							<g>
								<g>
									<path class="st14" d="M189.08,28.18c0.54,0.25,1.14,0.31,1.64-0.07c0.25-0.19-0.06-0.57-0.31-0.38
										c-0.36,0.27-0.78,0.16-1.15-0.01C188.97,27.59,188.79,28.05,189.08,28.18L189.08,28.18z"/>
								</g>
							</g>
						</g>
						<g>
							<g>
								<path class="st14" d="M196.03,23.01c-0.04,0.41-0.71,0.67-1.5,0.59c-0.79-0.08-1.39-0.48-1.34-0.89
									c0.04-0.41,0.71-0.67,1.5-0.59C195.47,22.2,196.07,22.6,196.03,23.01z"/>
							</g>
						</g>
						<g>
							<g>
								<path class="st14" d="M187.85,22.57c-0.04,0.41-0.72,0.67-1.5,0.59c-0.37-0.04-0.7-0.15-0.94-0.29
									c0.05-0.35,0.1-0.7,0.16-1.07c0-0.02,0.01-0.03,0.01-0.04c0.26-0.08,0.58-0.11,0.93-0.07
									C187.29,21.77,187.89,22.16,187.85,22.57z"/>
							</g>
						</g>
						<g>
							<g>
								<g>
									<path class="st10" d="M192.94,18.17c0.58-0.15,1.31,0.02,1.48,0.67c0.16,0.6,1.14,0.45,0.97-0.16
										c-0.31-1.14-1.47-1.78-2.62-1.48C192.17,17.36,192.33,18.33,192.94,18.17L192.94,18.17z"/>
								</g>
							</g>
						</g>
						<g>
							<g>
								<g>
									<path class="st10" d="M187.13,18.89c0.43-0.43,0.97-1.05,1.63-0.81c0.6,0.21,0.96-0.7,0.36-0.92
										c-1.06-0.38-1.89,0.24-2.61,0.96C186.06,18.57,186.68,19.34,187.13,18.89L187.13,18.89z"/>
								</g>
							</g>
						</g>
						<g>
							<g>
								<path class="st5" d="M187.57,24.36c0,0,1.83,0.52,5.24,0c0,0-0.59,3.05-3.1,2.78C187.6,26.91,187.57,24.36,187.57,24.36z"/>
							</g>
						</g>
					</g>
					<g>
						<g>
							<g>
								<path class="st13" d="M197.55,24.43c-0.23-1.03,0.07-2.1,0.73-2.92c0.86-1.06,2.42-2.66,3.71-2.34
									c1.91,0.47,1.96,2.21,1.59,3.95c-0.37,1.73-1.76,3.91-4.14,3.29C198.26,26.1,197.74,25.27,197.55,24.43z"/>
							</g>
						</g>
						<g>
							<g>
								<g>
									<g>
										<path class="st10" d="M200.13,24.36c-0.04-0.73-0.02-1.48,0.3-2.15c0.29-0.6,1.05-1.44,1.82-1.11
											c0.26,0.11,0.47-0.28,0.21-0.38c-0.74-0.31-1.5,0.08-2,0.66c-0.72,0.83-0.82,1.95-0.76,3.01
											C199.71,24.66,200.15,24.64,200.13,24.36L200.13,24.36z"/>
									</g>
								</g>
							</g>
						</g>
					</g>
				</g>
			</g>
			<g>
				<g>
					<path class="st13" d="M214.8,47.04c0,0,5.68,25.9,8.98,32.95c3.3,7.05,13.09,33.26,13.09,33.26l-5.31,1.43
						c0,0-15.5-27.76-16.72-30.56c-1.22-2.8-9.42-24.52-9.42-24.52S206.79,49.59,214.8,47.04z"/>
				</g>
				<g>
					<g>
						<path class="st14" d="M222.31,77.53c-1.26,0.64-2.52,1.1-3.89,1.42c-0.36,0.09-0.21,0.64,0.15,0.55
							c1.42-0.34,2.73-0.82,4.03-1.48C222.92,77.86,222.63,77.37,222.31,77.53L222.31,77.53z"/>
					</g>
				</g>
				<g>
					<g>
						<g>
							<g>
								<path class="st14" d="M242.67,112.17c0,0,3.77,0.36,4.93,1.09c1.15,0.73,3.87,1.83,3.97,2.64c0.1,0.8-6.52-1.4-6.52-1.4
									L242.67,112.17z"/>
							</g>
						</g>
					</g>
					<g>
						<g>
							<path class="st13" d="M231.21,114.34c-0.25,1.5,0.56,2.97,1.89,3.69c0.94,0.51,2.16,1.06,3.31,1.26
								c2.31,0.4,5.92,2.41,7.74,1.47c1.82-0.95-0.98-1.56-1.96-1.98s-2.21-1.44-1.9-1.92c0.3-0.48,2.05-0.68,4.32-0.44
								c2.27,0.24,6.9,1.67,8.1,1.16c1.2-0.51-1.87-1.6-3.44-2.46c-1.57-0.86-2.7-1.28-5.58-2.76c-2.12-1.09-8.3-0.25-11.29,0.27
								C232.41,112.63,231.45,112.92,231.21,114.34z"/>
						</g>
					</g>
				</g>
			</g>
			<g>
				<g>
					<g>
						<g>
							<g>
								<g>
									<g>
										<g>
											<g>
												<g>
													<g>
														<path class="st13" d="M155.04,107.6c0.14,0.11,0.28,0.22,0.41,0.33c0.34,0.28,0.65,0.55,0.92,0.79
															c0.64,0.58,3.97,0.88,3.97,0.88l0.43,5.9c0,0-3.85-0.02-5.13-0.08c-0.37-0.02-0.77-0.04-1.21-0.06
															c-0.51-0.02-1.06-0.04-1.64-0.06C147.46,110.64,148.22,108.08,155.04,107.6z"/>
													</g>
												</g>
											</g>
										</g>
									</g>
								</g>
							</g>
						</g>
					</g>
					<g>
						<path class="st15" d="M130.55,120.88c0.42,0.24,1.03,0.16,1.74-0.1c2.2-0.81,5.41-3.39,7.07-4.04
							c2.2-0.86,12.55-0.88,12.55-0.88s2.31-0.06,1.36-1.53c-0.95-1.46-2.47-2.47-2.47-2.47s1.36-2.62,2.57-3.61
							c1.22-1,2.07-0.33,2.07-0.33l0.92,0.79c0,0,1.2-0.51,0.41-1.39c-0.79-0.88-2.04-0.42-2.91-1.28c-0.63-0.63-1.61-1.7-3.07-2.47
							c-0.54-0.29-1.15-0.53-1.83-0.7c-2.5-0.61-8.69,5.47-11.79,7.53c-3.11,2.06-5.64,2.86-7.26,5.46
							C128.29,118.45,128.86,119.91,130.55,120.88z"/>
					</g>
					<g>
						<path class="st5" d="M130.55,120.88c0.42,0.24,1.03,0.16,1.74-0.1c-0.17-0.01-0.39-0.06-0.62-0.13
							c0.02-0.05,0.03-0.11,0.01-0.18c-0.1-0.52-0.59-0.65-0.71-0.76c-0.41-0.38-0.47-0.95-0.47-0.95c0.15-1.02,0.83-2.56,2.28-3.76
							c1.77-1.46,4.96-2.49,6.57-2.83c1.61-0.34,2.79-2.59,4.21-4.2c1.42-1.61,5.32-0.64,6.61-1.8c0.91-0.82,0.76-1.99,0.6-2.61
							c-0.13-0.57-1.04-0.94-1.72-1.1c-2.5-0.61-8.79,5.87-11.9,7.94c-3.11,2.06-5.64,2.86-7.26,5.46
							C128.29,118.45,128.86,119.91,130.55,120.88z"/>
					</g>
				</g>
				<g>
					<g>
						<g>
							<g>
								<g>
									<g>
										<g>
											<path class="st10" d="M160.81,107.65c-4.17,7.39,0.31,10.24,0.31,10.24s6.98,3.31,31.89,2.37
												c14.36-0.54,28.62-4.1,36.39-9.3c5.7-3.82,7.91-8.52,4.09-13.56c-0.88-1.16-2.01-2.03-3.27-2.69
												c-5.81-3-14.42-1.28-14.42-1.28c-17.28,2.16-14.36,5.85-29.44,9.64C177.73,105.24,160.81,107.65,160.81,107.65z"/>
										</g>
									</g>
								</g>
							</g>
						</g>
					</g>
					<g>
						<g>
							<path class="st16" d="M202.91,96.1c-6.07,3-12.66,4.93-19.21,6.58c-6.23,1.57-12.54,2.83-18.85,4.03
								c-0.36,0.07-0.21,0.62,0.15,0.55c6.45-1.22,12.89-2.51,19.25-4.13c6.47-1.65,12.96-3.57,18.96-6.54
								C203.53,96.43,203.24,95.94,202.91,96.1L202.91,96.1z"/>
						</g>
					</g>
					<g>
						<g>
							<g>
								<g>
									<g>
										<path class="st16" d="M230.21,94.7c-1.13,2.59-4.5,11.39-0.81,16.25c5.7-3.82,7.91-8.52,4.09-13.56
											C232.6,96.23,231.47,95.36,230.21,94.7z"/>
									</g>
								</g>
							</g>
						</g>
					</g>
					<g>
						<g>
							<g>
								<g>
									<g>
										<g>
											<g>
												<path class="st16" d="M165,109.47c-0.03,0.23-0.05,0.47-0.08,0.72c0.23-0.01,0.48-0.03,0.72-0.04
													c5.85-0.4,14.59-1.74,24.68-3.83c9.95-2.06,21.61-5.03,23.69-6.66c1.12-0.88,1.6-1.74,1.42-2.54
													c-0.27-1.21-1.93-1.83-2.69-2.06c-0.2-0.06-0.41,0.06-0.45,0.26c-0.04,0.18,0.06,0.37,0.24,0.42
													c0.76,0.23,2.04,0.76,2.21,1.53c0.14,0.64-0.55,1.35-1.16,1.83c-1.67,1.32-11.51,4.06-23.39,6.52
													c-8.03,1.66-17.78,3.34-24.46,3.8l0,0C165.48,109.44,165.24,109.45,165,109.47z"/>
											</g>
										</g>
									</g>
								</g>
							</g>
						</g>
					</g>
				</g>
				<g>
					<g>
						<path class="st10" d="M154.59,55.3l16.59,30.09c0,0-1.51,22.31-5.61,22.68c-4.1,0.37-11.67-15.13-11.67-15.13L154.59,55.3z"/>
					</g>
					<g>
						<g>
							<path class="st16" d="M159.77,78.22c1.91,8.73,3.23,17.57,3.96,26.48c0.03,0.36,0.6,0.37,0.57,0
								c-0.73-8.96-2.06-17.85-3.98-26.63C160.24,77.71,159.69,77.86,159.77,78.22L159.77,78.22z"/>
						</g>
					</g>
					<g>
						<g>
							<path class="st16" d="M162.1,86.82c0.2-0.54,0.39-1.07,0.59-1.61c0.13-0.35-0.43-0.49-0.55-0.15
								c-0.2,0.54-0.39,1.07-0.59,1.61C161.42,87.02,161.97,87.17,162.1,86.82L162.1,86.82z"/>
						</g>
					</g>
					<g>
						<polygon class="st13" points="163.82,109.93 166.05,119.16 159.43,119.42 157.75,112.75 						"/>
					</g>
					<g>
						<g>
							<g>
								<g>
									<g>
										<g>
											<path class="st10" d="M165.57,111.04c-1.29,0.76-2.64,1.4-4.02,1.97c-1.81,0.75-3.65,1.47-5.62,1.62
												c-1.02-1.31-2.47-3.39-4.3-6.58c-0.16-0.28-0.32-0.56-0.49-0.86c-0.87-1.55-1.81-3.33-2.83-5.38
												c-1.53-3.1-3.24-6.82-5.08-11.25c-5.32-12.78-7.85-26.73-6.15-35.26c1.15-5.76,4.24-9.05,9.71-7.84
												c0.96,0.21,1.85,0.59,2.66,1.1c5.44,3.39,6.69,12.15,6.69,12.15c4.71,14.83,3.25,23.12,3.69,31.05
												c0.02,0.33,0.04,0.66,0.06,0.98c0.02,0.21,0.04,0.42,0.06,0.64c0.13,1.21,0.36,2.49,0.66,3.79
												c1.02,4.39,2.84,9.02,4.17,12.1c0.09,0.21,0.18,0.42,0.27,0.62C165.24,110.31,165.41,110.69,165.57,111.04z"/>
										</g>
									</g>
								</g>
							</g>
						</g>
					</g>
					<g>
						<g>
							<g>
								<g>
									<g>
										<g>
											<path class="st16" d="M165.05,109.89c-0.47,0.34-0.96,0.66-1.47,0.95c-0.19,0.11-0.39,0.22-0.59,0.33
												c-3.41,1.81-7.23,2.59-7.45,2.63c-0.02,0.01-0.04,0.01-0.06,0.01c-0.15,0-0.29-0.11-0.32-0.27
												c-0.04-0.18,0.08-0.35,0.26-0.39c0.05-0.01,3.95-0.81,7.33-2.6c0.2-0.11,0.4-0.22,0.59-0.33
												c0.51-0.29,0.99-0.61,1.45-0.95C164.88,109.48,164.97,109.69,165.05,109.89z"/>
										</g>
									</g>
								</g>
							</g>
						</g>
					</g>
					<g>
						<g>
							<g>
								<g>
									<g>
										<path class="st16" d="M137.09,55.3c7.61-0.36,11-4.31,12.37-6.74c-0.81-0.51-1.7-0.89-2.66-1.1
											C141.32,46.25,138.24,49.54,137.09,55.3z"/>
									</g>
								</g>
							</g>
						</g>
					</g>
					<g>
						<g>
							<g>
								<g>
									<g>
										<g>
											<g>
												<path class="st16" d="M163.59,110.84c-0.19,0.11-0.39,0.22-0.59,0.33c-0.08-0.2-0.17-0.4-0.25-0.61
													c-2.01-5.04-4.41-13.31-6.69-23.15c-2.13-9.21-4.17-20.22-3.6-22.61c0.31-1.29,0.84-2.03,1.6-2.19
													c1.13-0.24,2.3,0.91,2.79,1.48c0.13,0.15,0.11,0.37-0.05,0.49c-0.06,0.05-0.13,0.07-0.2,0.07
													c-0.09,0-0.18-0.04-0.25-0.11c-0.49-0.55-1.44-1.42-2.15-1.27c-0.6,0.13-0.92,0.99-1.09,1.69
													c-0.46,1.93,1.05,11.31,3.6,22.3c1.8,7.79,4.34,17.19,6.63,22.98C163.42,110.43,163.5,110.64,163.59,110.84z"/>
											</g>
										</g>
									</g>
								</g>
							</g>
						</g>
					</g>
					<g>
						<g>
							<g>
								<g>
									<g>
										<g>
											<path class="st15" d="M153.38,129.23h14.79c0,0,0.43-0.83-0.27-3.12c-0.14-0.47-0.31-1.05-0.48-1.67
												c-0.68-2.48-1.47-5.71-1.47-5.71s-1.36-2.66-4.44-3.37c-3.08-0.72-2.82,3.88-2.82,3.88s-0.25,1.94-2.16,3.65
												c-1.4,1.25-2.8,2.17-3.18,3.98C153.2,127.5,153.2,128.28,153.38,129.23z"/>
										</g>
									</g>
								</g>
							</g>
						</g>
						<g>
							<g>
								<g>
									<g>
										<g>
											<g>
												<path class="st5" d="M162.84,118.03c-0.92-0.31-1.81-0.28-2.58,0.13c-0.25,0.13-0.55-0.27-0.3-0.4
													c0.87-0.45,1.89-0.52,2.93-0.17C163.19,117.69,163.14,118.14,162.84,118.03L162.84,118.03z"/>
											</g>
										</g>
									</g>
								</g>
							</g>
						</g>
						<g>
							<g>
								<g>
									<g>
										<g>
											<path class="st5" d="M153.38,129.23h14.79c0,0,0.43-0.83-0.27-3.12c-0.14-0.47-0.31-1.05-0.48-1.67
												c-0.49-0.08-1.17,0-1.52,0.91c-0.59,1.53-1.8,1.73-2.84,1.68c-1.04-0.05-2.79-1.94-5.61-1.73
												c-2.42,0.18-2.4,2.01-4.11,1.56C153.2,127.5,153.2,128.28,153.38,129.23z"/>
										</g>
									</g>
								</g>
							</g>
						</g>
					</g>
				</g>
			</g>
		</g>
		<g>
			<g>
				<path class="st8" d="M188.8,46c0.42,1.86,2.13,3.19,4.03,3.15c0.36-0.01,0.36-0.57,0-0.56c-1.66,0.03-3.12-1.12-3.49-2.74
					C189.26,45.5,188.72,45.65,188.8,46L188.8,46z"/>
			</g>
		</g>
	</g>
</g>
</svg>
