<?xml version="1.0" encoding="utf-8"?>
<!-- Generator: Adobe Illustrator 25.1.0, SVG Export Plug-In . SVG Version: 6.00 Build 0)  -->
<svg version="1.1" xmlns="http://www.w3.org/2000/svg" xmlns:xlink="http://www.w3.org/1999/xlink" x="0px" y="0px"
	 viewBox="0 0 750 500" style="enable-background:new 0 0 750 500;" xml:space="preserve">
<style type="text/css">
	.st0{fill:#D4D6F9;}
	.st1{fill:#222221;}
	.st2{fill:#271E6D;}
	.st3{fill:#BC6F63;}
	.st4{fill:#E8AF8E;}
	.st5{fill:#CF866B;}
	.st6{fill:#A8624B;}
	.st7{fill:#D46A55;}
	.st8{fill:#69BA9F;}
	.st9{fill:#417164;}
	.st10{fill:#583C80;}
	.st11{fill:#7A5FA0;}
	.st12{fill:#863B39;}
	.st13{fill:#FFFFFF;}
	.st14{fill:#E79E9E;}
	.st15{fill:#274256;}
	.st16{fill:#DD4D61;}
	.st17{fill:#E9A585;}
	.st18{fill:#E3E3E3;}
	.st19{fill:none;stroke:#222221;stroke-width:1.3857;stroke-miterlimit:10;}
	.st20{fill:#487FD2;}
	.st21{fill:#3B699F;}
	.st22{fill:#BB334C;}
	.st23{fill:#211E1D;}
	.st24{fill:#1D3345;}
	.st25{fill:#15222C;}
	.st26{fill:#E1CEC1;}
	.st27{fill:#B5A2B8;}
	.st28{fill:#644B87;}
	.st29{fill:#508D7E;}
	.st30{fill:none;stroke:#FFFFFF;stroke-width:1.3519;stroke-miterlimit:10;}
	.st31{fill:#984B3C;}
	.st32{fill:#823026;}
	.st33{fill:#BC705C;}
	.st34{fill:#F2DBD1;}
</style>
<g id="BACKGROUND">
</g>
<g id="OBJECTS">
	<g>
		<rect x="31.61" y="90.89" class="st0" width="126.13" height="362.53"/>
		<rect x="403.48" y="42.69" class="st0" width="126.13" height="410.73"/>
		<rect x="227.66" y="139.14" class="st0" width="126.13" height="314.28"/>
		<rect x="592.26" y="196.84" class="st0" width="126.13" height="256.58"/>
	</g>
	<g>
		<path class="st1" d="M66.28,159.39c0,0,40.43-4.36,37.56,47.37c-2.87,51.74,2.6,57.36,2.6,57.36s-80.91,3.91-91.24-28.82
			C4.86,202.58,24.4,155.04,66.28,159.39z"/>
		<path class="st2" d="M197.64,157.14c0,0,41.35-4.7,49.39,34.14c8.04,38.84,35.47,58.86,7.79,83.75
			c-27.68,24.89-75.94,22.83-75.94,22.83l0,0c-20.82-15.39-30.03-42-23.17-66.96c2.13-7.74,3.99-15.82,5.09-23.43
			C162.42,196.34,147.99,160.03,197.64,157.14z"/>
		<path class="st3" d="M157.24,328.73l18.42-8.6l6.46,20.36c0,0-6.3,4.01-18.77,2.5L157.24,328.73z"/>
		<g>
			<path class="st4" d="M43.07,208.44c0,0-12.01-14.89-17.61-4.32c-5.6,10.57,5.76,24.82,20.65,17.61L43.07,208.44z"/>
			<path class="st5" d="M25.87,215.22c1.09,2.21,3.08,3.97,5.51,4.34c6.27,0.96,9.8-7.21,8.57-14.39c1.86,1.73,3.11,3.27,3.11,3.27
				l3.04,13.29c-12.69,6.14-22.82-3.31-22.06-12.77C24.45,211.18,24.94,213.32,25.87,215.22z"/>
			<g>
				<g>
					<g>
						<path class="st1" d="M34.7,215.39c-0.03-1.95-0.95-4.02-2.34-5.37c-0.73-0.71-1.6-1.22-2.54-1.59
							c-0.33-0.13-0.72,0.14-0.81,0.46c-0.1,0.37,0.13,0.68,0.46,0.81c1.32,0.52,2.35,1.45,3.02,2.63c0.07,0.12,0.13,0.24,0.19,0.37
							c0.03,0.06,0.06,0.13,0.09,0.2c0.02,0.04,0.1,0.23,0.05,0.12c0.1,0.24,0.19,0.49,0.26,0.74c0.12,0.4,0.19,0.81,0.27,1.22
							c0,0-0.02-0.16,0-0.02c0,0.04,0.01,0.07,0.01,0.11c0.01,0.06,0.01,0.12,0.02,0.18c0,0.05,0.01,0.1,0.01,0.16
							C33.4,216.24,34.71,216.24,34.7,215.39L34.7,215.39z"/>
					</g>
				</g>
				<g>
					<g>
						<path class="st1" d="M32.87,211.34c-0.38,0.09-0.76,0.27-1.09,0.48c-0.77,0.48-1.33,1.17-1.66,2.01
							c-0.24,0.61-0.32,1.29-0.3,1.95c0.01,0.34,0.29,0.67,0.65,0.65c0.34-0.02,0.67-0.29,0.65-0.65c-0.01-0.14-0.01-0.28,0-0.42
							c0-0.07,0.01-0.14,0.01-0.21c0-0.05,0.01-0.27,0.01-0.1c0-0.22,0.09-0.48,0.16-0.69c0.02-0.05,0.03-0.09,0.05-0.14
							c0.06-0.17-0.03,0.06,0.01-0.03c0.05-0.09,0.09-0.19,0.14-0.28c0.05-0.08,0.1-0.16,0.15-0.24c0.01-0.02,0.12-0.16,0.04-0.06
							c-0.07,0.09,0.04-0.05,0.06-0.07c0.11-0.13,0.23-0.25,0.36-0.36c0.03-0.02,0.06-0.05,0.08-0.07c0.06-0.06-0.14,0.1-0.01,0.01
							c0.06-0.04,0.12-0.09,0.19-0.13c0.11-0.07,0.23-0.14,0.35-0.2c0.05-0.02,0.09-0.04,0.14-0.07c0.1-0.05-0.01,0.01-0.06,0.03
							c0.03-0.01,0.05-0.02,0.08-0.03c0.1-0.04,0.21-0.08,0.32-0.1c0.33-0.08,0.56-0.48,0.46-0.81
							C33.56,211.45,33.23,211.26,32.87,211.34L32.87,211.34z"/>
					</g>
				</g>
			</g>
		</g>
		<path class="st4" d="M48.16,229.34l-0.81,17.94c-0.11,2.49-1.26,4.81-3.18,6.41l-8.01,6.69c0,0,15.27,21.18,30.1,21.32
			c7.27,0.07,14.9-12.26,19.5-20.5L78,254.02c-1.94-1.79-2.98-4.35-2.84-6.99l0.6-11.28L48.16,229.34z"/>
		<path class="st6" d="M47.86,236.13l0.31-6.79l27.59,6.41l-0.55,10.41C72.36,248.39,54.96,257.76,47.86,236.13z"/>
		<path class="st4" d="M73.33,165.24c0,0,28.81,7.98,19.16,41.73c-0.39,1.37-0.39,2.81-0.06,4.2c1.35,5.73,4.83,23.2-22.55,30.29
			c-1.05,0.27-2.14,0.31-3.21,0.14c-6.93-1.13-32.31-7.41-33.24-39.06C32.34,165.85,73.33,165.24,73.33,165.24z"/>
		<g>
			<g>
				<path class="st1" d="M73.17,216.83c0.98-0.46,1.96-1.16,2.59-2.04c0.87-1.23,0.53-2.46-0.27-3.6c-0.74-1.06-1.55-2.06-2.14-3.22
					c-0.89-1.75-1.16-3.69-1.09-5.64c0.03-1.04-1.58-1.04-1.61,0c-0.06,1.9,0.18,3.8,0.91,5.56c0.51,1.24,1.23,2.33,2.03,3.41
					c0.5,0.67,1.45,1.6,0.94,2.47c-0.45,0.77-1.37,1.32-2.16,1.69C71.42,215.88,72.24,217.27,73.17,216.83L73.17,216.83z"/>
			</g>
		</g>
		<path class="st7" d="M60.85,218.62c0,2.82-3.1,5.1-6.92,5.1c-3.82,0-6.92-2.28-6.92-5.1c0-2.82,3.1-5.1,6.92-5.1
			C57.75,213.52,60.85,215.8,60.85,218.62z"/>
		<path class="st7" d="M91.31,218.31c0,2.82-3.1,5.1-6.92,5.1c-3.82,0-6.92-2.28-6.92-5.1c0-2.82,3.1-5.1,6.92-5.1
			C88.21,213.21,91.31,215.5,91.31,218.31z"/>
		<g>
			<g>
				<path class="st1" d="M60.54,222.7c1.93,2.91,4.71,5,8.26,5.29c3.53,0.29,7.1-0.91,9.74-3.26c0.78-0.69-0.37-1.83-1.14-1.14
					c-2.28,2.03-5.36,3-8.4,2.8c-3.04-0.2-5.43-2.04-7.07-4.51C61.36,221.03,59.97,221.83,60.54,222.7L60.54,222.7z"/>
			</g>
		</g>
		<path class="st1" d="M65.39,195.52c0.19,1.62-1.87,0.95-4.91,1.32c-3.04,0.36-5.92,1.62-6.11,0s2.12-3.23,5.16-3.6
			C62.57,192.88,65.19,193.9,65.39,195.52z"/>
		<path class="st1" d="M77.98,195.87c-0.19,1.62,1.87,0.95,4.91,1.32c3.04,0.36,5.92,1.62,6.11,0c0.19-1.62-2.12-3.23-5.16-3.6
			C80.8,193.22,78.18,194.24,77.98,195.87z"/>
		<path class="st5" d="M71.43,233.66c0,0.73-1.15,1.32-2.58,1.32c-1.42,0-2.58-0.59-2.58-1.32c0-0.73,1.15-0.4,2.58-0.4
			C70.28,233.25,71.43,232.93,71.43,233.66z"/>
		<path class="st8" d="M36.17,260.39c0,0,22.04,11.5,32.68,11.23c10.64-0.28,16.92-10.41,16.92-10.41s21.93,20.26,23.13,38.56
			c1.19,18.3-6.27,50.47-6.27,50.47s13.59,73.87,10.94,105H12.32c0,0-17.9-60.6,17.35-101.64l-17.35-78.5L36.17,260.39z"/>
		<path class="st9" d="M27.49,396.7c-6.11-4.89-9.73-11.2-12.73-17.9c-14.12,36.85-2.44,76.43-2.44,76.43h101.25
			c1.09-12.75-0.56-32.68-2.87-51.77C83.93,414.89,52.89,415.94,27.49,396.7z"/>
		<path class="st10" d="M178.64,349.11v13.09c0,0,43.11,11.12,73.1-6.55l-3.22-10.77L178.64,349.11z"/>
		<path class="st11" d="M176.45,360.07c0,0-23.88,44.92-15.25,95.16h47.81l-6.41-61.52h5.57l3.96,61.52h47.64
			c0,0,12.71-60.06-9.53-98.46C250.25,356.77,214.11,365.69,176.45,360.07z"/>
		<path class="st4" d="M26.92,309.84l22.59,32.7l50.93-12.98l-5.17,12.98c0,0-36.39,28.05-51.82,25.75
			c-15.42-2.3-38.01-49.6-38.01-49.6S13.7,307.12,26.92,309.84z"/>
		<path class="st3" d="M221.68,222.36l0.85,18.81c0.12,2.61,1.33,5.05,3.33,6.72l8.39,7.01c0,0-12.87,33.61-28.42,33.76
			c-7.62,0.07-25.46,3.98-23.59-32.9l8.16-7.54c2.03-1.88,3.12-4.57,2.98-7.33l-0.63-11.82L221.68,222.36z"/>
		<path class="st12" d="M222,229.48l-0.32-7.12l-28.93,6.72l0.58,10.91C196.32,242.33,214.55,252.15,222,229.48z"/>
		<path class="st3" d="M196.79,162.37c0,0-27.48,7.61-18.28,39.81c0.37,1.31,0.37,2.68,0.06,4.01c-1.29,5.46-4.61,22.14,21.52,28.9
			c1,0.26,2.04,0.3,3.06,0.13c6.62-1.08,30.82-7.07,31.71-37.27C235.89,162.96,196.79,162.37,196.79,162.37z"/>
		<path class="st1" d="M208.86,200.12c0,1.79,1.1,3.25,2.46,3.25c1.36,0,2.46-1.45,2.46-3.25c0-1.79-1.1-3.25-2.46-3.25
			C209.97,196.87,208.86,198.33,208.86,200.12z"/>
		<path class="st1" d="M187.61,200.84c0,1.79,1.1,3.25,2.46,3.25c1.36,0,2.46-1.45,2.46-3.25c0-1.79-1.1-3.25-2.46-3.25
			C188.71,197.59,187.61,199.05,187.61,200.84z"/>
		<g>
			<g>
				<path class="st1" d="M199.14,210.29c-0.64-0.3-1.39-0.75-1.76-1.38c-0.42-0.71,0.36-1.47,0.77-2.02
					c0.65-0.88,1.24-1.77,1.66-2.78c0.6-1.44,0.79-2.99,0.74-4.54c-0.03-0.84-1.34-0.85-1.32,0c0.05,1.59-0.17,3.18-0.89,4.61
					c-0.48,0.95-1.14,1.76-1.75,2.63c-0.65,0.94-0.94,1.94-0.22,2.94c0.51,0.72,1.32,1.3,2.11,1.67
					C199.24,211.78,199.91,210.65,199.14,210.29L199.14,210.29z"/>
			</g>
		</g>
		<path class="st7" d="M209.27,213c0,2.69,2.96,4.87,6.6,4.87c3.65,0,6.6-2.18,6.6-4.87c0-2.69-2.96-4.87-6.6-4.87
			C212.22,208.14,209.27,210.32,209.27,213z"/>
		<path class="st7" d="M180.25,213.91c0,2.69,2.96,4.87,6.6,4.87s6.6-2.18,6.6-4.87c0-2.69-2.96-4.87-6.6-4.87
			S180.25,211.22,180.25,213.91z"/>
		<path class="st1" d="M207.39,189.45c-0.19,1.55,1.78,0.91,4.68,1.26c2.9,0.35,5.65,1.55,5.83,0c0.19-1.55-2.02-3.08-4.92-3.43
			C210.08,186.93,207.57,187.9,207.39,189.45z"/>
		<path class="st1" d="M192.26,190c0.56,1.46-1.51,1.32-4.24,2.36c-2.73,1.04-5.1,2.87-5.66,1.41c-0.56-1.46,1.21-3.48,3.94-4.52
			C189.04,188.21,191.7,188.54,192.26,190z"/>
		<path class="st12" d="M199.89,227.64c0,0.69,1.1,1.26,2.46,1.26c1.36,0,2.46-0.56,2.46-1.26c0-0.69-1.1-0.38-2.46-0.38
			C200.99,227.26,199.89,226.95,199.89,227.64z"/>
		<path class="st13" d="M199.45,216.33c0.87,0.79,2.24,0.67,2.98-0.23c1.22-1.49,3.08-3.04,4.83-1.64c2.79,2.23-1.02,7.86-6.32,8.19
			c-5.31,0.33-8.07-5.54-6.68-7.14C195.79,213.74,197.97,214.99,199.45,216.33z"/>
		<path class="st3" d="M243.03,255.59c0,0-10.97,29.67-7.22,45.35l19.46,108.91h13.17c0,0-8.37-89.11-8.95-119.61
			C258.91,259.74,243.03,255.59,243.03,255.59z"/>
		<path class="st14" d="M182.25,255.77c0,0-3.91-0.51-6.89,0.2c-1.5,0.36-5.82,1.9-5.82,1.9s-8.64,41.78-4.97,59.08
			c3.67,17.3,8.32,31.74,8.32,31.74s19.95,12.7,71.9,0l-9.75-56.03c0,0,4.58-29.79,9.75-36.33c0,0-4.52-4.06-13.89-4.22
			c0,0-12.73,24.25-31.77,23.67C180.08,275.19,182.25,255.77,182.25,255.77z"/>
		<g>
			<g>
				<path class="st4" d="M90.83,339.75c7.86-18.68,26.17-8.95,28.4-3.76c3.54,8.26,0.82,18.14-3.07,17.19
					c-3.89-0.95-0.91-7.25-2.38-9.67c0,0,1.39,3.2,0.11,8.09c-0.19,0.73-0.72,1.33-1.43,1.58c-1.06,0.37-2.63,0.72-3.48-0.09
					c-1.36-1.29,1.12-6.81-1.17-9.6c0,0,2.13,2.66,0.57,7.66c-0.49,1.56-2.1,2.54-3.69,2.16c-0.83-0.19-1.51-0.6-1.48-1.41
					c0.07-2.02-0.34-8.64-2.75-8.63c-2.41,0.02-9.57,2.71-9.63-3.36C90.83,339.87,90.8,339.81,90.83,339.75z"/>
				<g>
					<g>
						<path class="st1" d="M114.79,349.98c0.11-1.24,0.1-2.5,0.01-3.73c-0.12-1.77-0.37-4.03-1.74-5.32
							c-0.52-0.5-1.32,0.3-0.79,0.79c0.57,0.54,0.85,1.32,1.04,2.07c0.23,0.9,0.34,1.82,0.39,2.74c0.07,1.15,0.07,2.31-0.03,3.45
							C113.61,350.7,114.73,350.7,114.79,349.98L114.79,349.98z"/>
					</g>
				</g>
				<g>
					<g>
						<path class="st1" d="M109.1,350.61c0.5-2.06,0.65-4.55-0.17-6.54c-0.34-0.82-0.84-1.5-1.55-2.02
							c-0.59-0.42-1.15,0.55-0.57,0.97c1.33,0.96,1.55,2.86,1.54,4.36c-0.01,1.03-0.09,1.94-0.33,2.93
							C107.84,351.01,108.93,351.31,109.1,350.61L109.1,350.61z"/>
					</g>
				</g>
			</g>
			<path class="st15" d="M170.97,416.67c0,0,9.78,16.8,5.37,38.56H141.5l-1.1-10.05h-2.2v10.05H99.82c0,0-4.32-19.69,1.88-36.08
				L170.97,416.67z"/>
			<path class="st16" d="M156.39,343.47c0,0,16.42,13.98,16.05,35.19c-0.37,21.21,0.01,33.33,0.01,33.33s6.78,4.96,5.13,8.54
				c-1.65,3.58-46.2,16.8-82.32,0c0,0-0.77-6.06,4.55-6.47c0,0,0.6-26.58,0-38.7c-0.6-12.12,6.84-27.15,6.84-27.15L156.39,343.47z"
				/>
			<path class="st17" d="M145.16,319.72l1.11,13.63l10.12,10.12c0,0-17.66,13.84-41.26,2.69l5.25-9.31v-18.16L145.16,319.72z"/>
			<path class="st6" d="M146.08,330.98l-0.91-11.27l-24.79-1.03v11.33C128.68,338.5,138.97,337.68,146.08,330.98z"/>
			<path class="st5" d="M91.25,348.2c0,0-0.09,0.35-0.25,0.98c-1.42,5.82-8.05,35.89,4.12,42.3c13.49,7.11,66.26-4.16,66.26-4.16
				l-0.01-8.44l-53.66-5.3l-2.37-19.1"/>
			<path class="st18" d="M92.55,362.19c-4.29,0.89-7.61,4.36-8.57,8.64c-0.65,2.9-0.58,6.37,2,9.14c5.51,5.92,10.05-0.76,8.19-4.48
				c-1.86-3.72,6.61-9.68,6.61-9.68S98.69,360.92,92.55,362.19z"/>
			<g>
				<path class="st17" d="M154.32,292.81c0,0,12.01-14.89,17.61-4.32c5.6,10.57-5.76,24.82-20.65,17.61L154.32,292.81z"/>
				<path class="st5" d="M171.51,299.59c-1.09,2.21-3.08,3.97-5.51,4.34c-6.27,0.96-9.8-7.21-8.57-14.39
					c-1.86,1.73-3.11,3.27-3.11,3.27l-3.04,13.29c12.69,6.14,22.82-3.31,22.06-12.77C172.94,295.55,172.45,297.69,171.51,299.59z"/>
				<g>
					<g>
						<g>
							<path class="st1" d="M163.99,299.76c0-0.15,0.02-0.3,0.04-0.45c0.01-0.1,0.01-0.05-0.01,0.03c0.01-0.04,0.01-0.08,0.02-0.12
								c0.01-0.09,0.03-0.18,0.05-0.27c0.04-0.22,0.09-0.44,0.15-0.65c0.07-0.24,0.14-0.48,0.23-0.72c0.02-0.06,0.05-0.13,0.07-0.19
								c0.03-0.07,0,0.01-0.01,0.02c0.02-0.04,0.03-0.07,0.05-0.11c0.06-0.13,0.12-0.26,0.19-0.39c0.31-0.6,0.63-1.04,1.08-1.5
								c0.58-0.59,1.28-1.05,2.07-1.36c0.33-0.13,0.56-0.44,0.46-0.81c-0.09-0.31-0.47-0.59-0.81-0.46
								c-1.56,0.62-2.88,1.66-3.74,3.12c-0.55,0.93-0.91,1.99-1.07,3.06c-0.04,0.26-0.07,0.52-0.08,0.78
								C162.67,300.61,163.98,300.61,163.99,299.76L163.99,299.76z"/>
						</g>
					</g>
					<g>
						<g>
							<path class="st1" d="M164.17,296.98c0.09,0.02,0.17,0.05,0.25,0.08c0.04,0.01,0.08,0.03,0.12,0.05
								c0.08,0.03-0.18-0.08-0.07-0.03c0.03,0.01,0.05,0.02,0.08,0.04c0.12,0.06,0.23,0.12,0.34,0.18c0.05,0.03,0.11,0.07,0.16,0.1
								c0.03,0.02,0.06,0.04,0.09,0.07c0.02,0.01,0.03,0.02,0.05,0.04c0.08,0.06-0.11-0.09-0.05-0.04c0.13,0.11,0.25,0.22,0.36,0.34
								c0.06,0.06,0.11,0.13,0.17,0.2c0.05,0.06-0.08-0.12-0.04-0.05c0.01,0.02,0.03,0.04,0.04,0.06c0.03,0.05,0.06,0.09,0.09,0.14
								c0.05,0.08,0.09,0.15,0.13,0.23c0.02,0.05,0.05,0.09,0.07,0.14c0.01,0.01,0.02,0.07,0.03,0.07
								c-0.03-0.02-0.05-0.14-0.01-0.02c0.09,0.25,0.16,0.5,0.21,0.75c0.01,0.03,0.02,0.07,0.02,0.1c0-0.08-0.01-0.09,0,0
								c0.01,0.08,0.01,0.15,0.02,0.23c0.01,0.17,0.01,0.33,0,0.5c-0.01,0.34,0.31,0.67,0.65,0.65c0.37-0.02,0.64-0.29,0.65-0.65
								c0.04-1.13-0.26-2.23-0.98-3.12c-0.45-0.54-1.05-0.94-1.7-1.19c-0.12-0.05-0.24-0.09-0.36-0.12
								c-0.33-0.08-0.72,0.1-0.81,0.46C163.63,296.5,163.81,296.9,164.17,296.98L164.17,296.98z"/>
						</g>
					</g>
				</g>
			</g>
			<g>
				<path class="st17" d="M113.86,292.81c0,0-12.01-14.89-17.61-4.32c-5.6,10.57,5.76,24.82,20.65,17.61L113.86,292.81z"/>
				<path class="st5" d="M96.66,299.59c1.09,2.21,3.08,3.97,5.51,4.34c6.27,0.96,9.8-7.21,8.57-14.39c1.86,1.73,3.11,3.27,3.11,3.27
					l3.04,13.29c-12.69,6.14-22.82-3.31-22.06-12.77C95.24,295.55,95.73,297.69,96.66,299.59z"/>
				<g>
					<g>
						<g>
							<path class="st1" d="M105.49,299.76c-0.03-1.95-0.95-4.02-2.34-5.37c-0.73-0.71-1.6-1.22-2.54-1.59
								c-0.33-0.13-0.72,0.14-0.81,0.46c-0.1,0.37,0.13,0.68,0.46,0.81c1.32,0.52,2.35,1.45,3.02,2.63
								c0.07,0.12,0.13,0.24,0.19,0.37c0.03,0.06,0.06,0.13,0.09,0.2c0.02,0.04,0.1,0.23,0.05,0.12c0.1,0.24,0.19,0.49,0.26,0.74
								c0.12,0.4,0.19,0.81,0.27,1.22c0,0-0.02-0.16,0-0.02c0,0.04,0.01,0.07,0.01,0.11c0.01,0.06,0.01,0.12,0.02,0.18
								c0,0.05,0.01,0.1,0.01,0.16C104.2,300.61,105.51,300.61,105.49,299.76L105.49,299.76z"/>
						</g>
					</g>
					<g>
						<g>
							<path class="st1" d="M103.66,295.71c-0.38,0.09-0.76,0.27-1.09,0.48c-0.77,0.48-1.33,1.17-1.66,2.01
								c-0.24,0.61-0.32,1.29-0.3,1.95c0.01,0.34,0.29,0.67,0.65,0.65c0.34-0.02,0.67-0.29,0.65-0.65c-0.01-0.14-0.01-0.28,0-0.42
								c0-0.07,0.01-0.14,0.01-0.21c0-0.05,0.01-0.27,0.01-0.1c0-0.22,0.09-0.48,0.16-0.69c0.02-0.05,0.03-0.09,0.05-0.14
								c0.06-0.17-0.03,0.06,0.01-0.03c0.05-0.09,0.09-0.19,0.14-0.28c0.05-0.08,0.1-0.16,0.15-0.24c0.01-0.02,0.12-0.16,0.04-0.06
								c-0.07,0.09,0.04-0.05,0.06-0.07c0.11-0.13,0.23-0.25,0.36-0.36c0.03-0.02,0.06-0.05,0.08-0.07c0.06-0.06-0.14,0.1-0.01,0.01
								c0.06-0.04,0.12-0.09,0.19-0.13c0.11-0.07,0.23-0.14,0.35-0.2c0.05-0.02,0.09-0.04,0.14-0.07c0.1-0.05-0.01,0.01-0.06,0.03
								c0.03-0.01,0.05-0.02,0.08-0.03c0.1-0.04,0.21-0.08,0.32-0.1c0.33-0.08,0.56-0.48,0.46-0.81
								C104.35,295.82,104.02,295.63,103.66,295.71L103.66,295.71z"/>
						</g>
					</g>
				</g>
			</g>
			<path class="st17" d="M106.43,264.13c0,0-3.18,43.75,5.28,53.42c10.41,11.89,38.43,9.18,45.79,0c5.04-6.29,7.2-32.81,1.6-53.42
				C159.11,264.13,135.09,240.65,106.43,264.13z"/>
			<ellipse class="st1" cx="144.36" cy="291.88" rx="2.58" ry="3.4"/>
			<ellipse class="st1" cx="122.08" cy="291.88" rx="2.58" ry="3.4"/>
			<g>
				<g>
					<path class="st1" d="M132.02,299.28c-0.59-0.28-1.28-0.69-1.62-1.27c-0.39-0.65,0.33-1.35,0.71-1.85
						c0.6-0.8,1.14-1.63,1.52-2.56c0.55-1.32,0.73-2.75,0.68-4.17c-0.03-0.78-1.24-0.78-1.21,0c0.05,1.46-0.16,2.92-0.82,4.23
						c-0.44,0.87-1.05,1.62-1.6,2.42c-0.6,0.86-0.86,1.78-0.2,2.7c0.47,0.66,1.21,1.19,1.94,1.53
						C132.11,300.65,132.72,299.61,132.02,299.28L132.02,299.28z"/>
				</g>
			</g>
			<path class="st7" d="M143.4,302.95c0,2.82,3.1,5.1,6.92,5.1c3.82,0,6.92-2.28,6.92-5.1s-3.1-5.1-6.92-5.1
				C146.5,297.85,143.4,300.14,143.4,302.95z"/>
			<path class="st7" d="M110.14,302.95c0,2.82,3.1,5.1,6.92,5.1s6.92-2.28,6.92-5.1s-3.1-5.1-6.92-5.1S110.14,300.14,110.14,302.95z
				"/>
			<path class="st1" d="M138.85,281.33c-0.19,1.62,1.87,0.95,4.91,1.32c3.04,0.36,5.92,1.62,6.11,0c0.19-1.62-2.12-3.23-5.16-3.6
				C141.67,278.69,139.04,279.71,138.85,281.33z"/>
			<path class="st1" d="M126.08,280.51c0.19,1.62-1.87,0.95-4.91,1.32c-3.04,0.36-5.92,1.62-6.11,0c-0.19-1.62,2.12-3.23,5.16-3.6
				C123.26,277.86,125.88,278.88,126.08,280.51z"/>
			<g>
				<g>
					<path class="st1" d="M125.98,303.88c0.2,2.3,1.46,4.73,3.54,5.85c1.72,0.92,3.96,1.01,5.77,0.28c1.52-0.62,2.67-1.83,3.35-3.31
						c0.41-0.88,0.71-1.85,0.79-2.82c0.07-0.83-1.22-0.82-1.29,0c0,0.04-0.01,0.09-0.02,0.13c0.03-0.25-0.04,0.22-0.06,0.3
						c-0.09,0.44-0.21,0.87-0.36,1.29c-0.43,1.16-1.17,2.25-2.25,2.89c-1.43,0.86-3.42,0.94-4.95,0.29
						c-1.24-0.53-2.13-1.6-2.66-2.82c-0.21-0.49-0.37-1.01-0.48-1.53c-0.04-0.16-0.06-0.33-0.09-0.49c0,0.01,0.01,0.1-0.01-0.06
						C127.2,303.06,125.91,303.05,125.98,303.88L125.98,303.88z"/>
				</g>
			</g>
			<path class="st13" d="M114.58,358.14c0,0,5.58-21.59,31.3-16.11c25.72,5.47,28.92,30.57,12.19,34.5
				c-16.73,3.92-52.78-8.88-52.78-8.88L114.58,358.14z"/>
			<path class="st13" d="M87.25,348.39c0,0-8.37-6.31-4.83-15.57c0,0,10.49-2.07,14.92,6.29L87.25,348.39z"/>
			<path class="st13" d="M117.22,348.42c0,0,8.16-6.59,4.32-15.72c0,0-10.55-1.72-14.7,6.77L117.22,348.42z"/>
			<path class="st13" d="M103.09,335.83c0,0,15.02-0.24,17.17,15.07c2.58,18.31-11.93,17.77-18.99,17.19s-17.35-0.98-15.64-16.72
				C87.36,335.63,101.58,335.32,103.09,335.83z"/>
			<ellipse class="st1" cx="95.26" cy="353.24" rx="1.98" ry="2.11"/>
			<ellipse class="st1" cx="110.23" cy="353.24" rx="1.98" ry="2.11"/>
			<path class="st7" d="M100.9,354.64c0,0.35,0.83,1.38,1.84,1.38c1.02,0,1.84-1.03,1.84-1.38c0-0.35-0.83-0.63-1.84-0.63
				C101.73,354.01,100.9,354.29,100.9,354.64z"/>
			<path class="st17" d="M167.21,357.78l-6.81,18l-53.39-7.53l-2,8.2c0,0,48.61,23.41,63.4,19.69
				c13.34-3.35,13.43-30.83,13.43-36.82"/>
			<path class="st13" d="M107.76,367.43c0,0-5.92,9.09-0.41,15.01c5.51,5.92,10.05-0.76,8.19-4.48c-1.86-3.72,6.61-9.68,6.61-9.68
				S118.71,360.27,107.76,367.43z"/>
			<path class="st11" d="M157.24,275.72c0,0-2.59,18.71,2.17,17.72c4.75-0.99,9.01-8.4,9.01-8.4s4.42,0.91,4.01-4.41
				c0,0-1.34-2.05-3.82-2.24c0,0,11.78-24.05-11.36-29.74c0,0,1.13-7.57-6.3-0.96c0,0-3.03-8.58-6.06-2.71c0,0-26.84-8.41-40.03,7.6
				s-0.56,27.58-0.56,27.58s-4.03,2.2-2.65,4.54l4.48,1.55c0,0,1.79,6.95,2.89,6.68c1.1-0.28,2.27-18.39,2.27-18.39
				s17.15,4.37,26.03-15.98c0,0-1.96,9.3,8.26,3.2C145.56,261.77,157.96,257.54,157.24,275.72z"/>
			<path class="st16" d="M154.15,344.77c0,0,5.62-4.46,16.85-1.92c11.22,2.55,12.57,27.75,12.57,27.75l-20.34-2.31
				c0,0,6.83-15.03-8.62-23.3L154.15,344.77z"/>
			<path class="st18" d="M142.08,373.2c0,0-4.83-5.78,4.28-13.67c0,0-6.53,8.76-2.4,13.94L142.08,373.2z"/>
			<g>
				<path class="st13" d="M146.37,359.53c7.04,1.23,15.4,0.84,21.63-2.91c5.15-3.1,7.79-8.47,8.07-14.38
					c0.3-6.23,0.79-13.25,5.6-17.86c1.64-1.57,3.37-2.37,5.54-2.14c0.54,0.06,1.67,0.44,2.49,0.94c0.97,0.59,1.96,1.56,2.73,2.59
					c2.07,2.8,6.78,0.01,4.68-2.83c-3.24-4.37-8.29-7.41-13.84-5.71c-5.84,1.79-9.36,7.5-11.08,13.03
					c-1.17,3.76-1.44,7.64-1.57,11.55c-0.08,2.62-0.75,5.38-2.33,7.41c-2.76,3.54-7.51,4.86-11.66,5.23
					c-2.17,0.2-4.36,0.19-6.54,0.04c-0.41-0.03-0.81-0.07-1.22-0.11c-0.64-0.06-0.69-0.08-0.36-0.04c-0.26-0.04-0.51-0.07-0.77-0.11
					C144.29,353.63,142.9,358.92,146.37,359.53L146.37,359.53z"/>
			</g>
			<path class="st3" d="M169.15,340.91c0.18-0.49,0.29-1.07,0.3-1.77c0-0.06,0.02-0.13,0-0.18c-7.86-18.68-26.17-8.95-28.4-3.76
				c-3.54,8.26-0.82,18.14,3.07,17.19c1.39-0.34,1.9-1.37,2.05-2.66c0.07,0.36,0.13,0.71,0.23,1.1c0.19,0.72,0.72,1.32,1.42,1.57
				c1.06,0.37,2.63,0.72,3.48-0.08c0.5-0.47,0.48-1.51,0.37-2.76c0.06,0.26,0.14,0.53,0.22,0.81c0.48,1.57,2.1,2.56,3.7,2.18
				c0.83-0.19,1.51-0.6,1.48-1.41c-0.07-2.02,0.34-8.64,2.75-8.63c0.01,0,0.01,0,0.02,0c1.35,0.02,2.53,0.94,2.99,2.21
				c0.76,2.09,2.22,5.12,4.3,4.98C169.18,349.55,169.92,344.82,169.15,340.91z M146.08,344.22c0.05-0.58,0.17-1.09,0.41-1.5
				C146.49,342.72,146.27,343.27,146.08,344.22z M151.6,344.64c0.13-0.63,0.36-1.21,0.72-1.72
				C152.14,343.21,151.83,343.78,151.6,344.64z"/>
			<g>
				<g>
					<g>
						<path class="st1" d="M146.53,349.93c-0.1-1.14-0.1-2.31-0.03-3.45c0.05-0.92,0.16-1.84,0.39-2.74
							c0.19-0.75,0.47-1.53,1.04-2.07c0.53-0.5-0.27-1.29-0.79-0.79c-1.37,1.29-1.61,3.55-1.74,5.32c-0.09,1.24-0.09,2.5,0.01,3.73
							C145.47,350.64,146.6,350.65,146.53,349.93L146.53,349.93z"/>
					</g>
				</g>
				<g>
					<g>
						<path class="st1" d="M152.19,350.26c-0.24-0.98-0.32-1.89-0.33-2.93c-0.01-1.51,0.22-3.41,1.54-4.36
							c0.58-0.42,0.02-1.39-0.57-0.97c-2.36,1.71-2.3,5.14-1.88,7.73c0.04,0.28,0.09,0.56,0.16,0.83
							C151.27,351.26,152.36,350.96,152.19,350.26L152.19,350.26z"/>
					</g>
				</g>
			</g>
		</g>
		<path class="st3" d="M257.7,404.35c0,0-6.17-1.31-8.65,4.54c-2.49,5.85-9.06,7.82-8.92,10.98c0.12,2.61,4.41,1.62,7.08-0.37
			c1.95-1.45,3.33-4.22,3.6-3.63c0.26,0.59,1.16,4.47,0.58,6.63c-0.67,2.45-5.01,14.41-5.19,14.97c-0.01,0.02-0.01,0.03-0.01,0.05
			c-0.67,2.18,2.22,3.7,3.77,2.04c1.57-1.68,2.83-4.67,3.4-6.03c1.38-3.28,3.28-8.88,3.28-8.88l0.54,0.08c0,0-0.26,19.1-0.26,20.09
			c0,1.68,1.13,2.19,1.62,2.21c0.76,0.05,1.88-0.46,2.38-2.59c0.76-3.21,2.83-14.61,2.67-19.22c0,0,0.69,10.19,0.29,14.82
			c-0.12,1.42,0.57,3.52,2.14,3.06c1.79-0.52,2.06-3.8,2.02-4.3c-0.23-3.44-0.06-11.15-0.07-14.97l0.56-0.39
			c0,0-0.54,9.55,1.35,11.64c0.18,0.2,1.17,1.39,2.1,0.65c0.53-0.42,0.37-2.39,0.38-2.77c0.08-2.27-0.21-14.15-0.31-15.38
			c-0.24-2.89-6.85-17.15-10.25-20.29C256.95,392.83,257.7,404.35,257.7,404.35z"/>
		<path class="st8" d="M2.4,323.32c0,0-11.43-41.14,15.56-51.7l17.29,39.84C35.25,311.45,27.4,331.05,2.4,323.32z"/>
		<path class="st1" d="M34.59,212.23c0,0,15.05-7.38,22.51-33.2c0,0,4.57,9.71,22.54,9.09L68.86,174.9c0,0,10.99,14.77,27.31,16.37
			c0,0-3.23-33.31-29.89-30C39.61,164.57,26.15,196.37,34.59,212.23z"/>
		<path class="st19" d="M58.28,177.52c0,0,2.69,16-23.03,33.34"/>
		<path class="st2" d="M173.29,184.27c0,0,12.85,6.89,26.6-12.95c0,0-6.53,10.57-14.9,14.1c0,0,20.08,0.5,25.19-16.86
			c0,0,19.71,6.7,21.63,25.18c1.93,18.48-0.28,28.62-0.28,28.62l8.41-28.45c1.83-6.2,0.31-12.93-4.08-17.68
			c-7.3-7.9-20.64-18.01-40.28-16.48C163.93,162.23,173.29,184.27,173.29,184.27z"/>
		<path class="st1" d="M54.85,208.4c-0.44,0.41-1.12-0.1-0.87-0.64c0.99-2.09,2.65-4.43,4.95-3.95c2.19,0.46,3.21,2.86,3.69,4.96
			c0.14,0.6-0.65,0.94-0.99,0.43C60.3,207.22,58.02,205.43,54.85,208.4z"/>
		<path class="st1" d="M86.14,208.4c0.44,0.41,1.12-0.1,0.87-0.64c-0.99-2.09-2.65-4.43-4.95-3.95c-2.19,0.46-3.21,2.86-3.69,4.96
			c-0.14,0.6,0.65,0.94,0.99,0.43C80.69,207.22,82.96,205.43,86.14,208.4z"/>
	</g>
	<g>
		<g>
			<path class="st15" d="M334.48,455.23v-25.26h5.2l-0.49,25.26h35.47l3.66-69.5l-97.83-4.07c-3.23,17.51-0.98,52.73,2.38,73.56
				H334.48z"/>
			<path class="st20" d="M379.2,375.11V266.36l-10.89-3.4l-0.16-0.05c-31.51,22.06-56.92,0.8-57.81,0.04
				c-0.02-0.01-0.04-0.04-0.04-0.04l-6.44,1.34l-16.91,45.49l-10.24,70.49c0,0,9.34,20.79,47.81,22.9
				c38.47,2.11,56.73-13.56,56.73-13.56L379.2,375.11z"/>
			<path class="st21" d="M379.2,347.17c-5.96,3.69-12.21,6.92-19.35,8.51c-27.55,6.22-55.1-2.58-76.94-18.15l-6.2,42.71
				c0,0,9.34,20.79,47.81,22.9c38.47,2.11,56.73-13.56,56.73-13.56l-2.05-14.46V347.17z"/>
		</g>
		<path class="st17" d="M491.34,132.9l-5.71-15.99c-11.93-18.21,10.15-26.92,14.77-18.27c5.58,10.46,1.26,13.78,1.26,13.78
			l6.94,14.91L491.34,132.9z"/>
		<path class="st2" d="M414.35,68.62c0,0,24.63-1.36,29.82,25.53c0,0,13.1,15.25,8.02,22.03c-5.08,6.78-9.57,6.56-9.57,6.56
			l0.58-5.92l-3.06,5.92c0,0-28.61,8.91-48.95-2.27v-5.31l-1.47,4.63c0,0-5.87,0.67-7-7.12c-1.13-7.79,7-10.92,8.36-24.61
			C392.43,74.38,402.71,67.26,414.35,68.62z"/>
		<path class="st22" d="M402.16,127.34c0,0,10.83,7.43,32.75,0l2.37,5.03c0,0-16.46,22.45-37.71-0.37L402.16,127.34z"/>
		<g>
			<path class="st4" d="M433.98,100.08c0,0,6.62-8.21,9.71-2.38c3.09,5.83-3.18,13.69-11.39,9.71L433.98,100.08z"/>
			<path class="st5" d="M443.46,103.82c-0.6,1.22-1.7,2.19-3.04,2.39c-3.46,0.53-5.4-3.98-4.73-7.94c-1.03,0.96-1.71,1.8-1.71,1.8
				l-1.68,7.33c7,3.39,12.58-1.82,12.17-7.04C444.25,101.59,443.98,102.77,443.46,103.82z"/>
			<g>
				<g>
					<g>
						<path class="st1" d="M439.31,103.91c0-0.08,0.01-0.16,0.02-0.25c0.01-0.06,0-0.03,0,0.02c0-0.02,0.01-0.04,0.01-0.07
							c0.01-0.05,0.02-0.1,0.03-0.15c0.02-0.12,0.05-0.24,0.08-0.36c0.04-0.13,0.08-0.27,0.13-0.4c0.01-0.03,0.03-0.07,0.04-0.1
							c0.02-0.04,0,0.01,0,0.01c0.01-0.02,0.02-0.04,0.03-0.06c0.03-0.07,0.07-0.14,0.1-0.22c0.17-0.33,0.35-0.58,0.59-0.83
							c0.32-0.33,0.7-0.58,1.14-0.75c0.18-0.07,0.31-0.24,0.25-0.44c-0.05-0.17-0.26-0.32-0.44-0.25c-0.86,0.34-1.59,0.92-2.06,1.72
							c-0.3,0.51-0.5,1.1-0.59,1.69c-0.02,0.14-0.04,0.29-0.04,0.43C438.58,104.38,439.31,104.38,439.31,103.91L439.31,103.91z"/>
					</g>
				</g>
				<g>
					<g>
						<path class="st1" d="M439.41,102.38c0.05,0.01,0.09,0.03,0.14,0.04c0.02,0.01,0.04,0.02,0.07,0.03
							c0.05,0.02-0.1-0.05-0.04-0.02c0.01,0.01,0.03,0.01,0.04,0.02c0.06,0.03,0.13,0.06,0.19,0.1c0.03,0.02,0.06,0.04,0.09,0.06
							c0.02,0.01,0.03,0.02,0.05,0.04c0.01,0.01,0.02,0.01,0.03,0.02c0.05,0.03-0.06-0.05-0.03-0.02c0.07,0.06,0.14,0.12,0.2,0.19
							c0.03,0.03,0.06,0.07,0.09,0.11c0.03,0.03-0.05-0.06-0.02-0.03c0.01,0.01,0.02,0.02,0.02,0.03c0.02,0.02,0.03,0.05,0.05,0.08
							c0.03,0.04,0.05,0.08,0.07,0.13c0.01,0.03,0.03,0.05,0.04,0.08c0,0.01,0.01,0.04,0.02,0.04c-0.02-0.01-0.03-0.08-0.01-0.01
							c0.05,0.14,0.09,0.27,0.11,0.42c0,0.02,0.01,0.04,0.01,0.05c0-0.05-0.01-0.05,0,0c0,0.04,0.01,0.09,0.01,0.13
							c0,0.09,0,0.18,0,0.27c-0.01,0.19,0.17,0.37,0.36,0.36c0.2-0.01,0.35-0.16,0.36-0.36c0.02-0.63-0.14-1.23-0.54-1.72
							c-0.25-0.3-0.58-0.52-0.94-0.66c-0.06-0.03-0.13-0.05-0.2-0.07c-0.18-0.04-0.4,0.06-0.44,0.25
							C439.12,102.11,439.21,102.33,439.41,102.38L439.41,102.38z"/>
					</g>
				</g>
			</g>
		</g>
		<path class="st4" d="M427.99,114.15l0.56,12.48c0.08,1.73,5.25,0.19,6.58,1.3l4.58,0.66c0,0-14,21.9-24.32,22
			c-5.06,0.05-8.46-10.24-13.57-14.26l0.34-8.98c2.1-0.16,7.15,0.95,7.05-0.89l-0.42-7.85L427.99,114.15z"/>
		<path class="st6" d="M428.21,118.87l-0.21-4.72l-19.2,4.46l0.39,7.24C411.16,127.41,423.27,133.92,428.21,118.87z"/>
		<path class="st4" d="M410.48,69.54c0,0-20.05,5.55-13.33,29.03c0.27,0.95,0.27,1.96,0.04,2.92c-0.94,3.98-3.36,16.15,15.69,21.08
			c0.73,0.19,1.49,0.22,2.23,0.09c4.83-0.79,22.48-5.16,23.13-27.18C439,69.97,410.48,69.54,410.48,69.54z"/>
		<path class="st1" d="M419.86,97.97c0,1.31,0.8,2.37,1.79,2.37c0.99,0,1.79-1.06,1.79-2.37s-0.8-2.37-1.79-2.37
			C420.66,95.6,419.86,96.67,419.86,97.97z"/>
		<path class="st1" d="M404.87,98.28c0,1.31,0.8,2.37,1.79,2.37c0.99,0,1.79-1.06,1.79-2.37c0-1.31-0.8-2.37-1.79-2.37
			C405.67,95.91,404.87,96.97,404.87,98.28z"/>
		<g>
			<g>
				<path class="st1" d="M413.58,104.27c-0.36-0.17-0.78-0.42-0.99-0.77c-0.23-0.4,0.2-0.82,0.43-1.13
					c0.36-0.49,0.69-0.99,0.93-1.56c0.33-0.8,0.44-1.67,0.41-2.54c-0.02-0.47-0.75-0.47-0.74,0c0.03,0.89-0.09,1.78-0.5,2.58
					c-0.27,0.53-0.64,0.99-0.98,1.47c-0.36,0.52-0.52,1.08-0.12,1.65c0.29,0.4,0.74,0.72,1.18,0.93
					C413.64,105.11,414.01,104.47,413.58,104.27L413.58,104.27z"/>
			</g>
		</g>
		<path class="st7" d="M419.59,106.47c0,1.96,2.16,3.55,4.81,3.55c2.66,0,4.81-1.59,4.81-3.55s-2.16-3.55-4.81-3.55
			C421.74,102.92,419.59,104.51,419.59,106.47z"/>
		<path class="st7" d="M399.08,106.62c0,1.96,2.16,3.55,4.81,3.55c2.66,0,4.81-1.59,4.81-3.55c0-1.96-2.16-3.55-4.81-3.55
			C401.24,103.07,399.08,104.66,399.08,106.62z"/>
		<g>
			<g>
				<path class="st1" d="M419.87,108.02c-1.14,1.72-2.81,3-4.92,3.14c-2.12,0.14-4.25-0.53-5.84-1.95
					c-0.54-0.48-1.33,0.31-0.79,0.79c1.83,1.63,4.32,2.47,6.78,2.27c2.47-0.21,4.4-1.66,5.75-3.68
					C421.24,107.99,420.27,107.43,419.87,108.02L419.87,108.02z"/>
			</g>
		</g>
		<path class="st1" d="M418.54,90.48c-0.14,1.13,1.3,0.66,3.42,0.92c2.12,0.25,4.12,1.13,4.25,0c0.14-1.13-1.47-2.25-3.59-2.5
			C420.5,88.64,418.68,89.35,418.54,90.48z"/>
		<path class="st1" d="M408.7,91.26c0.14,1.13-1.3,0.66-3.42,0.92c-2.12,0.25-4.12,1.13-4.25,0c-0.14-1.13,1.47-2.25,3.59-2.5
			S408.56,90.13,408.7,91.26z"/>
		<path class="st5" d="M411.8,117.15c0,0.51,0.8,0.92,1.8,0.92c0.99,0,1.79-0.41,1.79-0.92c0-0.51-0.8-0.28-1.79-0.28
			C412.61,116.87,411.8,116.64,411.8,117.15z"/>
		<path class="st16" d="M477.99,108.36c-14.73,20.49-43.08,18.98-43.08,18.98c-0.66,4.69-3.12,7.83-5.97,9.94
			c-6.05,4.47-14.45,4.46-20.58,0.1c-2.96-2.1-5.54-5.28-6.2-10.04c0,0-21.09,4.08-35.82-16.4l-9.79,5.55
			c0,0,10.15,51.17,63.37,39.34l-0.02-0.34c52.71,11.28,67.13-40.5,67.13-40.5L477.99,108.36z"/>
		<path class="st16" d="M450.58,144.65l14.7,74.06c0,0-22.88,22.83-81.41-0.41l7.46-72.45
			C391.33,145.86,425.23,149.24,450.58,144.65z"/>
		<path class="st23" d="M430.74,455.23h43.73c2.75-23.77,3.38-64.22-4.5-88.28h-51.86v56.85h10.03L430.74,455.23z"/>
		<path class="st23" d="M421.78,455.23l2.61-31.43h10.03v-56.85h-51.86c-7.88,24.06-7.25,64.51-4.5,88.28H421.78z"/>
		<path class="st2" d="M366.66,175.06c0,3.01,2.44,5.44,5.44,5.44s5.44-2.44,5.44-5.44c0-3.01-2.44-5.44-5.44-5.44
			S366.66,172.05,366.66,175.06z"/>
		<path class="st2" d="M370.37,206.1c0,3.01,2.44,5.44,5.44,5.44c3.01,0,5.44-2.44,5.44-5.44c0-3.01-2.44-5.44-5.44-5.44
			C372.8,200.66,370.37,203.09,370.37,206.1z"/>
		<g>
			<path class="st17" d="M442.71,189.92c0,0,11.81-14.64,17.32-4.25c5.51,10.39-5.67,24.41-20.31,17.32L442.71,189.92z"/>
			<path class="st5" d="M459.62,196.58c-1.07,2.18-3.03,3.9-5.42,4.27c-6.17,0.94-9.64-7.09-8.43-14.15
				c-1.83,1.71-3.05,3.21-3.05,3.21l-2.99,13.07c12.48,6.04,22.44-3.25,21.7-12.56C461.02,192.61,460.54,194.71,459.62,196.58z"/>
			<g>
				<g>
					<g>
						<path class="st1" d="M452.22,196.75c0-0.15,0.02-0.29,0.03-0.44c0.01-0.1,0.01-0.05-0.01,0.03c0.01-0.04,0.01-0.08,0.02-0.12
							c0.01-0.09,0.03-0.18,0.05-0.26c0.04-0.22,0.09-0.43,0.15-0.64c0.07-0.24,0.14-0.48,0.23-0.71c0.02-0.06,0.05-0.12,0.07-0.19
							c0.03-0.07,0,0.01-0.01,0.02c0.02-0.04,0.03-0.07,0.05-0.11c0.06-0.13,0.12-0.26,0.19-0.38c0.31-0.59,0.62-1.03,1.06-1.47
							c0.57-0.58,1.26-1.03,2.03-1.33c0.32-0.13,0.55-0.43,0.45-0.79c-0.08-0.31-0.47-0.58-0.79-0.45
							c-1.54,0.61-2.83,1.64-3.68,3.07c-0.54,0.92-0.9,1.96-1.05,3.01c-0.04,0.25-0.07,0.51-0.08,0.76
							C450.92,197.58,452.21,197.58,452.22,196.75L452.22,196.75z"/>
					</g>
				</g>
				<g>
					<g>
						<path class="st1" d="M452.39,194.01c0.08,0.02,0.17,0.05,0.25,0.08c0.04,0.01,0.08,0.03,0.12,0.05
							c0.08,0.03-0.18-0.08-0.06-0.03c0.03,0.01,0.05,0.02,0.08,0.03c0.12,0.05,0.23,0.11,0.34,0.18c0.05,0.03,0.11,0.07,0.16,0.1
							c0.03,0.02,0.06,0.04,0.09,0.07c0.02,0.01,0.03,0.02,0.05,0.03c0.08,0.06-0.11-0.09-0.05-0.04c0.12,0.11,0.25,0.21,0.36,0.33
							c0.06,0.06,0.11,0.13,0.17,0.19c0.05,0.06-0.08-0.11-0.04-0.05c0.01,0.02,0.03,0.04,0.04,0.06c0.03,0.04,0.06,0.09,0.09,0.14
							c0.05,0.07,0.09,0.15,0.13,0.23c0.02,0.05,0.05,0.09,0.07,0.14c0.01,0.01,0.02,0.07,0.03,0.07c-0.03-0.02-0.05-0.13-0.01-0.02
							c0.09,0.24,0.16,0.49,0.2,0.74c0,0.03,0.01,0.07,0.01,0.09c0-0.08-0.01-0.09,0,0c0.01,0.08,0.01,0.15,0.02,0.23
							c0.01,0.16,0.01,0.33,0,0.49c-0.01,0.34,0.31,0.66,0.64,0.64c0.36-0.02,0.63-0.28,0.64-0.64c0.04-1.12-0.25-2.2-0.97-3.06
							c-0.44-0.54-1.04-0.92-1.68-1.18c-0.11-0.05-0.23-0.09-0.35-0.12c-0.33-0.07-0.71,0.1-0.79,0.45
							C451.87,193.55,452.04,193.93,452.39,194.01L452.39,194.01z"/>
					</g>
				</g>
			</g>
		</g>
		<g>
			<path class="st17" d="M402.91,189.92c0,0-11.81-14.64-17.32-4.25c-5.51,10.39,5.67,24.41,20.31,17.32L402.91,189.92z"/>
			<path class="st5" d="M386,196.58c1.07,2.18,3.03,3.9,5.42,4.27c6.17,0.94,9.64-7.09,8.43-14.15c1.83,1.71,3.05,3.21,3.05,3.21
				l2.99,13.07c-12.48,6.04-22.44-3.25-21.7-12.56C384.6,192.61,385.08,194.71,386,196.58z"/>
			<g>
				<g>
					<g>
						<path class="st1" d="M394.68,196.75c-0.03-1.92-0.93-3.95-2.31-5.28c-0.72-0.7-1.57-1.2-2.5-1.56
							c-0.32-0.13-0.71,0.14-0.79,0.45c-0.1,0.37,0.12,0.66,0.45,0.79c1.3,0.51,2.31,1.43,2.97,2.59c0.07,0.12,0.13,0.24,0.19,0.36
							c0.03,0.06,0.06,0.13,0.09,0.19c0.02,0.04,0.1,0.22,0.05,0.12c0.1,0.24,0.18,0.48,0.26,0.73c0.12,0.4,0.18,0.8,0.26,1.2
							c0,0-0.02-0.15,0-0.02c0,0.04,0.01,0.07,0.01,0.11c0.01,0.06,0.01,0.12,0.01,0.18c0,0.05,0.01,0.1,0.01,0.15
							C393.41,197.58,394.7,197.59,394.68,196.75L394.68,196.75z"/>
					</g>
				</g>
				<g>
					<g>
						<path class="st1" d="M392.88,192.77c-0.37,0.08-0.75,0.27-1.07,0.47c-0.75,0.47-1.31,1.15-1.63,1.97
							c-0.24,0.6-0.31,1.27-0.29,1.91c0.01,0.34,0.29,0.66,0.64,0.64c0.34-0.02,0.66-0.28,0.64-0.64c0-0.14-0.01-0.27,0-0.41
							c0-0.07,0.01-0.14,0.01-0.21c0-0.05,0.01-0.27,0.01-0.1c0-0.22,0.09-0.47,0.16-0.68c0.02-0.05,0.03-0.09,0.05-0.14
							c0.06-0.16-0.03,0.06,0.01-0.03c0.05-0.09,0.09-0.19,0.14-0.28c0.05-0.08,0.1-0.16,0.15-0.23c0.01-0.02,0.12-0.16,0.04-0.06
							c-0.07,0.09,0.04-0.04,0.06-0.07c0.11-0.13,0.23-0.25,0.35-0.35c0.03-0.02,0.06-0.04,0.08-0.07c0.06-0.06-0.13,0.1-0.01,0.01
							c0.06-0.04,0.12-0.09,0.18-0.13c0.11-0.07,0.23-0.14,0.35-0.2c0.05-0.02,0.09-0.04,0.14-0.07c0.1-0.05-0.01,0.01-0.06,0.03
							c0.03-0.01,0.05-0.02,0.08-0.03c0.1-0.04,0.2-0.08,0.31-0.1c0.33-0.07,0.55-0.47,0.45-0.79
							C393.56,192.88,393.23,192.69,392.88,192.77L392.88,192.77z"/>
					</g>
				</g>
			</g>
		</g>
		<path class="st17" d="M440.76,220.54v10.23c0,4.14,2.15,7.98,5.67,10.16l12.52,7.72c0,0,0.47,38.38-33.9,38.38
			s-34.25-38.15-34.25-38.15l11.65-7.91c3.27-2.22,5.23-5.92,5.23-9.88v-11.63L440.76,220.54z"/>
		<path class="st6" d="M440.76,227.82v-7.28l-33.07-1.06v10.03C412.87,242.75,435.2,241.91,440.76,227.82z"/>
		<path class="st17" d="M395.61,162.36c0,0-3.13,45.78,5.2,55.9c10.24,12.44,37.79,9.61,45.04,0c4.96-6.58,7.09-34.33,1.57-55.9
			C447.42,162.36,423.79,137.79,395.61,162.36z"/>
		<ellipse class="st1" cx="432.94" cy="186.7" rx="2.53" ry="3.35"/>
		<path class="st1" d="M408.49,186.7c0,1.85,1.13,3.35,2.53,3.35c1.4,0,2.53-1.5,2.53-3.35s-1.13-3.35-2.53-3.35
			C409.63,183.35,408.49,184.85,408.49,186.7z"/>
		<g>
			<g>
				<path class="st1" d="M419.55,196.95c-0.68-0.32-1.48-0.8-1.87-1.46c-0.45-0.75,0.38-1.56,0.82-2.14
					c0.69-0.93,1.31-1.88,1.76-2.95c0.63-1.53,0.84-3.18,0.79-4.82c-0.03-0.9-1.43-0.9-1.4,0c0.06,1.69-0.18,3.37-0.95,4.9
					c-0.51,1.01-1.21,1.87-1.86,2.8c-0.69,1-0.99,2.06-0.24,3.13c0.54,0.77,1.4,1.38,2.25,1.77
					C419.66,198.54,420.37,197.34,419.55,196.95L419.55,196.95z"/>
			</g>
		</g>
		<ellipse class="st7" cx="438.77" cy="199.89" rx="6.8" ry="5.02"/>
		<ellipse class="st7" cx="406.06" cy="199.89" rx="6.8" ry="5.02"/>
		<path class="st1" d="M429.03,174.87c-0.19,1.6,1.83,0.94,4.83,1.3c2.99,0.36,5.82,1.6,6.01,0c0.19-1.6-2.08-3.18-5.07-3.54
			C431.8,172.28,429.22,173.28,429.03,174.87z"/>
		<path class="st1" d="M414.56,175.46c0.19,1.6-1.83,0.94-4.83,1.3c-2.99,0.36-5.82,1.6-6.01,0c-0.19-1.6,2.08-3.18,5.07-3.54
			C411.78,172.86,414.37,173.86,414.56,175.46z"/>
		<path class="st5" d="M421.45,217.42c0,0.72,1.14,1.3,2.54,1.3c1.4,0,2.54-0.58,2.54-1.3c0-0.72-1.14-0.39-2.54-0.39
			C422.59,217.02,421.45,216.7,421.45,217.42z"/>
		<path class="st13" d="M420.59,206.34c0.99,0.9,2.56,0.77,3.41-0.27c1.4-1.71,3.52-3.47,5.52-1.88c3.19,2.55-1.16,8.99-7.23,9.36
			c-6.07,0.37-9.22-6.34-7.64-8.16C416.4,203.37,418.89,204.8,420.59,206.34z"/>
		<path class="st11" d="M453.74,182.02c0,0-3.96,9.63-6.67,7.52c-2.71-2.11-0.83-19.05-0.83-19.05s0.38,5.6-3.01,4.57
			c-3.39-1.03-6.89-15.53-6.89-15.53s-23.12-6.6-30.44-0.41c-8.39,7.09-1.74,30.94-8.99,32.42c-3.13,0.64-1.87-8.18-1.87-8.18
			s-13.28-9.86-10.87-23.79c2.41-13.93,25.7-11.98,29.39-12.05c0,0-1.88-4.22,1.96-5.87c3.84-1.66,33.22,1.13,38.23,12.95
			C458.75,166.42,453.74,182.02,453.74,182.02z"/>
		<path class="st24" d="M477.99,281.57c0,0,43.21-47.5,49.54-75.47c6.33-27.97-15.23-71.39-15.23-71.39l-20.79,6.49l6.54,47.77
			c0.72,5.26-1.09,10.55-4.87,14.27l-41.6,40.87c0,0-4.71,17.54-27.47,17.6c-22.76-0.06-27.47-17.6-27.47-17.6l-41.6-40.87
			c-3.79-3.72-5.59-9.01-4.87-14.27l6.54-47.77l-20.79-6.49c0,0-21.56,43.42-15.23,71.39c6.33,27.97,47.61,56.86,47.61,56.86
			l5.12,78.12c0,0,4.37,26.06-3.2,30.18c-7.57,4.12-5.24,7.63-5.24,7.63c18.82,18.53,56.74,18.4,59.11,18.38
			c2.38,0.03,40.3,0.15,59.11-18.38c0,0,2.33-3.51-5.24-7.63c-7.57-4.12-3.2-30.18-3.2-30.18L477.99,281.57z"/>
		<path class="st25" d="M393.51,328.33c-8.51-2.84-15.79-7.83-21.86-14.3l1.77,27.04c0,0,4.37,26.06-3.2,30.18
			c-7.57,4.12-5.24,7.63-5.24,7.63c18.82,18.53,56.74,18.4,59.11,18.38c2.38,0.03,40.3,0.15,59.11-18.38c0,0,2.33-3.51-5.24-7.63
			c-7.57-4.12-3.2-30.18-3.2-30.18l0.9-16.74C451.35,338.81,418.54,337.82,393.51,328.33z"/>
		<path class="st17" d="M368.15,262.91l0.16,0.05l-6.92-4.69c-3.23-2.19-5.16-5.84-5.16-9.74v-11.47l-32.62,1.05v10.09
			c0,4.08-2.12,7.88-5.59,10.02l-7.67,4.73C311.23,263.7,336.64,284.96,368.15,262.91z"/>
		<path class="st6" d="M323.61,245.28v-7.18l32.62-1.05v9.89C351.12,260,329.09,259.17,323.61,245.28z"/>
		<circle class="st2" cx="333.42" cy="166.2" r="15.74"/>
		<path class="st2" d="M342,158.14c0,3.01,2.44,5.44,5.44,5.44s5.44-2.44,5.44-5.44c0-3.01-2.44-5.44-5.44-5.44
			S342,155.13,342,158.14z"/>
		<path class="st2" d="M312.24,163c0,3.01,2.44,5.44,5.44,5.44c3.01,0,5.44-2.44,5.44-5.44c0-3.01-2.44-5.44-5.44-5.44
			C314.68,157.55,312.24,159.99,312.24,163z"/>
		<path class="st2" d="M294.56,187.04c0,3.01,2.44,5.44,5.44,5.44c3.01,0,5.44-2.44,5.44-5.44s-2.44-5.44-5.44-5.44
			C297,181.6,294.56,184.04,294.56,187.04z"/>
		<circle class="st2" cx="298.42" cy="215.57" r="5.44"/>
		<circle class="st2" cx="358.71" cy="169.21" r="15.74"/>
		
			<ellipse transform="matrix(0.3792 -0.9253 0.9253 0.3792 29.9341 398.7033)" class="st2" cx="312.11" cy="177.04" rx="15.74" ry="15.74"/>
		<circle class="st2" cx="302.69" cy="202.09" r="15.74"/>
		<circle class="st2" cx="310.3" cy="224.31" r="15.74"/>
		<circle class="st2" cx="370.37" cy="190.05" r="15.74"/>
		<circle class="st2" cx="363.46" cy="212.84" r="15.74"/>
		<g>
			<path class="st17" d="M322.3,210.16c0,0-13.96-12.61-17.77-1.48c-3.81,11.13,9.43,23.21,22.78,13.91L322.3,210.16z"/>
			<path class="st5" d="M306.65,219.4c1.4,1.98,3.6,3.38,6.03,3.36c6.24-0.04,8.4-8.52,6.1-15.3c2.08,1.4,3.52,2.69,3.52,2.69
				l5.01,12.44c-11.38,7.93-22.67,0.32-23.4-9C304.64,215.7,305.45,217.7,306.65,219.4z"/>
			<g>
				<g>
					<g>
						<path class="st1" d="M315.24,218.14c-0.11-0.61-0.35-1.21-0.61-1.76c-0.56-1.2-1.41-2.26-2.49-3.03
							c-0.77-0.55-1.68-0.92-2.6-1.13c-0.34-0.07-0.7,0.1-0.79,0.45c-0.09,0.32,0.11,0.72,0.45,0.79c0.8,0.18,1.41,0.42,2.08,0.85
							c0.07,0.05,0.14,0.09,0.21,0.14c0.03,0.02,0.07,0.05,0.1,0.07c0.09,0.06-0.07-0.05,0.02,0.01c0.13,0.11,0.26,0.22,0.39,0.33
							c0.24,0.22,0.46,0.46,0.66,0.71c0.02,0.03,0.05,0.06,0.07,0.09c-0.01-0.02-0.07-0.1,0,0c0.04,0.06,0.08,0.11,0.12,0.17
							c0.08,0.12,0.16,0.24,0.24,0.37c0.14,0.22,0.26,0.45,0.38,0.69c0.05,0.1,0.1,0.21,0.14,0.31c0.05,0.1-0.05-0.13,0.01,0.03
							c0.02,0.05,0.04,0.11,0.06,0.16c0.06,0.17,0.12,0.34,0.17,0.51c0.05,0.18,0.11,0.37,0.14,0.55c0.06,0.34,0.48,0.54,0.79,0.45
							C315.15,218.83,315.3,218.48,315.24,218.14L315.24,218.14z"/>
					</g>
				</g>
				<g>
					<g>
						<path class="st1" d="M312.94,214.52c-1.18,0.47-2.1,1.57-2.37,2.81c-0.15,0.69-0.12,1.38,0.02,2.07
							c0.06,0.33,0.48,0.55,0.79,0.45c0.35-0.11,0.52-0.44,0.45-0.79c-0.01-0.07-0.03-0.14-0.04-0.22c0-0.03-0.01-0.06-0.01-0.09
							c0,0.01,0.01,0.1,0,0.02c-0.01-0.14-0.02-0.28-0.03-0.42c0-0.11,0-0.23,0.01-0.34c0-0.05,0.01-0.1,0.01-0.15
							c0-0.09-0.02,0.12,0,0.03c0.01-0.03,0.01-0.06,0.02-0.09c0.04-0.2,0.09-0.4,0.16-0.58c0,0.01,0.03-0.08,0.03-0.08
							c0,0-0.06,0.12-0.02,0.06c0.02-0.04,0.04-0.09,0.06-0.13c0.04-0.08,0.09-0.16,0.13-0.24c0.04-0.07,0.09-0.14,0.13-0.2
							c0.01-0.01,0.02-0.03,0.03-0.04c0.05-0.07,0.01,0.03-0.04,0.04c0.02-0.01,0.06-0.08,0.08-0.1c0.1-0.12,0.21-0.23,0.32-0.33
							c0.05-0.04,0.1-0.08,0.15-0.13c0.08-0.07,0,0.01-0.04,0.03c0.03-0.01,0.06-0.04,0.09-0.06c0.09-0.06,0.18-0.12,0.27-0.17
							c0.07-0.04,0.14-0.08,0.21-0.11c0.13-0.06,0.03-0.02-0.06,0.02c0.31-0.12,0.57-0.44,0.45-0.79
							C313.63,214.67,313.27,214.38,312.94,214.52L312.94,214.52z"/>
					</g>
				</g>
			</g>
		</g>
		<path class="st17" d="M364.49,175.54c0,0,10.29,44.72,3.65,56.02c-8.15,13.89-35.81,15.43-44.48,7.08
			c-5.93-5.72-12.39-32.79-10.34-54.96C313.32,183.68,332.79,155.71,364.49,175.54z"/>
		<path class="st1" d="M335.93,207.32c0.29,1.83-0.59,3.48-1.98,3.7c-1.38,0.22-2.74-1.08-3.03-2.91c-0.29-1.83,0.59-3.48,1.98-3.7
			C334.28,204.19,335.64,205.49,335.93,207.32z"/>
		<path class="st1" d="M358.66,203.99c0.29,1.83-0.59,3.48-1.98,3.7c-1.38,0.22-2.74-1.08-3.03-2.91c-0.29-1.83,0.59-3.48,1.98-3.7
			C357.01,200.86,358.37,202.16,358.66,203.99z"/>
		<g>
			<g>
				<path class="st1" d="M348.19,217.44c0.91-0.62,1.82-1.46,2.3-2.46c0.66-1.38,0.1-2.5-0.88-3.51c-0.84-0.88-1.76-1.68-2.48-2.67
					c-1.11-1.55-1.73-3.36-1.97-5.25c-0.12-1-1.71-1.01-1.58,0c0.23,1.87,0.72,3.69,1.7,5.31c0.67,1.12,1.54,2.08,2.46,2.99
					c0.57,0.56,1.66,1.3,1.44,2.16c-0.15,0.58-0.64,1.07-1.06,1.47c-0.29,0.27-0.48,0.43-0.73,0.6
					C346.55,216.64,347.34,218.01,348.19,217.44L348.19,217.44z"/>
			</g>
		</g>
		<path class="st7" d="M336.07,218.32c0.44,2.74-2.22,5.43-5.93,6.02s-7.07-1.15-7.51-3.89c-0.44-2.74,2.22-5.43,5.93-6.02
			C332.27,213.85,335.63,215.59,336.07,218.32z"/>
		<path class="st7" d="M369.64,213.93c0.44,2.74-2.22,5.43-5.93,6.02c-3.71,0.59-7.07-1.15-7.51-3.89
			c-0.44-2.74,2.22-5.43,5.93-6.02C365.85,209.46,369.21,211.2,369.64,213.93z"/>
		<g>
			<g>
				<path class="st1" d="M331.84,220.9c0.79,3.03,2.69,6.05,5.25,7.85c4.25,2.99,10.41,1.89,14.2-1.3c0.78-0.66-0.34-1.77-1.12-1.12
					c-3.39,2.85-9.02,3.67-12.65,0.78c-2.01-1.61-3.51-4.14-4.16-6.63C333.11,219.49,331.58,219.91,331.84,220.9L331.84,220.9z"/>
			</g>
		</g>
		<path class="st1" d="M335.08,196.36c0.44,1.55-1.66,1.22-4.56,2.04c-2.9,0.82-5.5,2.49-5.94,0.95c-0.44-1.55,1.56-3.47,4.46-4.29
			C331.94,194.23,334.65,194.81,335.08,196.36z"/>
		<path class="st1" d="M349.47,194.66c0.06,1.61,1.96,0.64,4.97,0.52c3.01-0.12,6,0.66,5.94-0.94c-0.06-1.61-2.55-2.81-5.57-2.7
			C351.8,191.65,349.41,193.05,349.47,194.66z"/>
		<path class="st5" d="M347.32,234.29c0.06,0.71-1.01,1.39-2.41,1.52c-1.4,0.13-2.58-0.35-2.64-1.06c-0.06-0.71,1.1-0.5,2.49-0.62
			C346.16,234,347.26,233.58,347.32,234.29z"/>
		<path class="st2" d="M311.99,204.39c0,0,1.14,3.98,4.19,2.51c3.05-1.47-0.59-12.22-0.59-12.22s14.26,1.83,10.19-9.81
			c0,0,4.01,4.18,9.83,2.88c5.82-1.3,6.44-10.22,6.44-10.22s1.19,3.56,3.9,3.78c2.71,0.23,6.1-4.35,6.1-4.35s5.33,16.87,16.11,17.95
			l-0.57-22.25c0,0-35.93-17.17-57.28,7.57L311.99,204.39z"/>
		<g>
			<path class="st17" d="M313.92,301.23l20.34,36.38c0,0,49.71-5.2,62.13-2.71l2.71,13.56c0,0-62.29,25.31-73.06,22.59
				c-10.77-2.71-37.43-46.32-37.43-46.32S296.29,303.94,313.92,301.23z"/>
			<path class="st17" d="M387.85,340.48c0,0-3.56-5.84,1.54-10.49c5.1-4.65,4.76-12.09,8.04-13.08c2.71-0.82,3.24,3.93,2.17,7.38
				c-0.79,2.52-3.12,4.93-2.42,4.99c0.7,0.06,5-0.42,6.99-1.79c2.27-1.56,13.02-10.24,13.46-10.7c3.29-3.44,4.72-1.52,4.72-1.52
				c2.59,2.45-4.29,8.54-6.18,10.26c-2.86,2.59-7.92,6.55-7.92,6.55l0.27,0.52c0,0,19.46-7.13,20.47-7.49
				c1.72-0.61,2.64,0.37,2.85,0.87c0.32,0.76,0.2,2.09-1.79,3.37c-3.01,1.93-13.94,8.15-18.72,9.64c0,0,11.4-2.98,16.05-2.83
				c1.54,0.05,4.03,0.08,4.13,1.85c0.11,2.02-3.38,2.71-3.91,2.85c-3.6,1-12.19,2.92-16.12,3.11l-0.19,0.71
				c0,0,10.74-0.69,13.56,0.49c0.27,0.11,1.65,0.64,1.42,1.92c-0.36,2.01-2.3,1.48-2.7,1.39c-1.99-0.44-15.72,1.57-17.02,1.91
				c-3.05,0.79-8.83,1.77-13.27-0.58C386.97,346.46,387.85,340.48,387.85,340.48z"/>
			<path class="st20" d="M287.25,327.36c0,0-17.02-31.56-7.08-49.26c8.04-14.31,23.69-13.86,23.69-13.86l16.53,39.44
				C320.39,303.69,302.62,314.41,287.25,327.36z"/>
		</g>
		<path class="st16" d="M440.76,226.24c0,0,4.5-3.97,7.48-9.49c3.88-7.21,7.04-16.12,13.22-12.66c19.2,10.74,13.69,60.65,1.04,78.49
			l-13.02-4.52c0,0,5.06-28.07,2.16-29.6C448.73,246.94,440.76,238.13,440.76,226.24z"/>
		<path class="st16" d="M407.69,224.33c0,0-5.69-2.31-9.88-7.58c-3.72-4.69-5.71-12.54-9.79-10.66
			c-19.98,9.22-14.98,58.64-2.33,76.49l13.02-4.52c0,0-5.06-28.07-2.16-29.6C399.47,246.94,407.69,236.22,407.69,224.33z"/>
		<path class="st2" d="M439.51,87.19c0,0,1.39,12.2-2.68,11.75c-4.07-0.45-7-18.23-11.6-22.9c0,0-1.13,6.25,1.73,8.44l-7.91,0.83
			c0,0-4.59-2.86-4.22-9.26c0,0-3.45,0.9-1.76,9.79l-18.35,2.18c0,0,1.57-20.75,19.28-18.47C431.71,71.82,439.51,87.19,439.51,87.19
			z"/>
		<path class="st4" d="M477.99,108.36l9.05-11.08l4.77,1.66l-4.77,16.04C487.03,114.99,482.24,114.25,477.99,108.36z"/>
		<path class="st17" d="M489.08,98.24c1.25,3.74,2.14,7.49,0.13,8.16c-2.01,0.67-3.13-2.33-4.38-6.07
			c-1.25-3.74-2.16-6.82-0.15-7.49C486.69,92.17,487.83,94.5,489.08,98.24z"/>
		<path class="st17" d="M492.77,96.39c1.25,3.74,2.14,7.49,0.13,8.16c-2.01,0.67-3.13-2.33-4.38-6.07s-2.16-6.82-0.15-7.49
			C490.38,90.32,491.52,92.65,492.77,96.39z"/>
		<path class="st17" d="M497.06,95.6c1.11,3.32,1.86,6.65-0.15,7.32c-2.01,0.67-3.01-1.98-4.12-5.3c-1.11-3.32-1.9-6.04,0.11-6.72
			C494.9,90.23,495.95,92.28,497.06,95.6z"/>
		<path class="st17" d="M501.45,98.17c0.51,3.46,0.67,6.87-1.42,7.18c-2.09,0.31-2.62-2.48-3.13-5.94
			c-0.51-3.46-0.82-6.28,1.28-6.59S500.94,94.7,501.45,98.17z"/>
		<path class="st17" d="M491.17,119.75c0,0,6.95-4.69-5.46-13.2c-3.41-2.34,0.42-9.82-2.58-8.9
			C480.13,98.56,478.02,113.12,491.17,119.75z"/>
		<g>
			<g>
				<path class="st1" d="M486.88,94.12c0.62,1.14,1.17,2.32,1.68,3.5c0.83,1.92,1.72,4.07,1.8,6.19c0.03,0.79-0.07,1.69-0.88,2.04
					c-0.43,0.18-0.06,0.81,0.36,0.62c1.78-0.77,1.26-3.38,0.9-4.83c-0.55-2.22-1.49-4.36-2.48-6.41c-0.24-0.5-0.49-0.99-0.75-1.48
					C487.29,93.34,486.66,93.71,486.88,94.12L486.88,94.12z"/>
			</g>
		</g>
		<g>
			<g>
				<path class="st1" d="M491.34,93.64c0.5,0.92,0.93,1.89,1.32,2.86c0.67,1.66,1.33,3.49,1.34,5.3c0,0.77-0.13,1.67-0.8,2.16
					c-0.37,0.27-0.01,0.9,0.36,0.62c1.45-1.06,1.25-3.11,0.93-4.66c-0.39-1.88-1.12-3.69-1.94-5.43c-0.19-0.41-0.39-0.82-0.6-1.22
					C491.75,92.87,491.12,93.23,491.34,93.64L491.34,93.64z"/>
			</g>
		</g>
		<g>
			<g>
				<path class="st1" d="M496.29,94.5c0.31,0.77,0.57,1.57,0.8,2.37c0.39,1.33,0.78,2.77,0.69,4.17c-0.03,0.51-0.14,1.11-0.64,1.36
					c-0.42,0.21-0.05,0.83,0.36,0.62c1.17-0.59,1.07-2.29,0.93-3.38c-0.19-1.49-0.61-2.94-1.1-4.35c-0.11-0.33-0.23-0.66-0.36-0.98
					C496.82,93.88,496.12,94.07,496.29,94.5L496.29,94.5z"/>
			</g>
		</g>
		<g>
			<g>
				<path class="st1" d="M499.05,103.37c0.89,0.33,2.04,0.23,2.63-0.58c0.64-0.87,0.47-2.1,0.31-3.09
					c-0.22-1.36-0.46-2.72-0.76-4.06c-0.11-0.48-0.21-0.96-0.36-1.42c-0.14-0.44-0.84-0.25-0.7,0.19c0.41,1.26,0.62,2.59,0.86,3.89
					c0.13,0.75,0.29,1.51,0.36,2.27c0.04,0.47,0.05,0.97-0.1,1.42c-0.17,0.51-0.57,0.79-1.1,0.83c-0.33,0.02-0.62-0.02-0.94-0.14
					C498.81,102.51,498.62,103.21,499.05,103.37L499.05,103.37z"/>
			</g>
		</g>
		<g>
			<g>
				<path class="st1" d="M481.92,99.71c0.14-0.54,0.42-1.12,0.83-1.5c0.27-0.24,0.91-0.56,1.24-0.23c0.17,0.17,0.1,0.56,0.09,0.76
					c-0.13,1.82-0.76,3.54-0.32,5.39c0.59,2.45,3.07,3.74,5.04,4.99c2.19,1.39,4.8,2.79,5.77,5.35c0.16,0.43,0.86,0.24,0.7-0.19
					c-0.74-1.97-2.31-3.29-4.01-4.44c-1.07-0.72-2.17-1.38-3.25-2.09c-1.07-0.71-2.31-1.43-3.02-2.53
					c-1.07-1.67-0.62-3.72-0.31-5.54c0.16-0.93,0.42-2.31-0.84-2.51c-1.39-0.22-2.29,1.18-2.61,2.34
					C481.1,99.96,481.8,100.15,481.92,99.71L481.92,99.71z"/>
			</g>
		</g>
		<path class="st17" d="M355.44,136.66l4.12-16.47c10.1-19.29-12.73-25.81-16.48-16.74c-4.53,10.95,0.08,13.84,0.08,13.84
			l-5.46,15.52L355.44,136.66z"/>
		<path class="st4" d="M366.34,110.94l-10.09-10.14l-4.59,2.12l6.31,15.5C357.98,118.42,362.69,117.21,366.34,110.94z"/>
		<path class="st17" d="M354.32,101.95c-0.88,3.85-1.4,7.66,0.66,8.13c2.06,0.47,2.89-2.62,3.77-6.47c0.88-3.85,1.48-6.99-0.58-7.47
			C356.1,95.67,355.2,98.1,354.32,101.95z"/>
		<path class="st17" d="M350.46,100.47c-0.88,3.85-1.4,7.66,0.66,8.13c2.06,0.47,2.89-2.62,3.77-6.47c0.88-3.85,1.48-6.99-0.58-7.47
			C352.25,94.19,351.34,96.62,350.46,100.47z"/>
		<path class="st17" d="M346.12,100.09c-0.78,3.41-1.2,6.8,0.86,7.27c2.06,0.47,2.81-2.27,3.59-5.68c0.78-3.41,1.3-6.2-0.76-6.67
			C347.74,94.54,346.9,96.68,346.12,100.09z"/>
		<path class="st17" d="M342,103.08c-0.17,3.49,0,6.9,2.12,7.01c2.11,0.1,2.37-2.72,2.54-6.22c0.17-3.49,0.2-6.33-1.91-6.44
			C342.62,97.32,342.17,99.58,342,103.08z"/>
		<path class="st17" d="M354.33,123.56c0,0-7.37-3.99,4.14-13.67c3.17-2.67-1.38-9.73,1.7-9.11
			C363.25,101.39,366.77,115.67,354.33,123.56z"/>
		<g>
			<g>
				<path class="st1" d="M355.42,97.38c-0.57,1.36-1.06,2.77-1.5,4.18c-0.64,2.08-1.36,4.49-1,6.68c0.15,0.89,0.58,1.7,1.48,1.99
					c0.44,0.14,0.63-0.56,0.19-0.7c-1.61-0.51-1-3.45-0.78-4.61c0.39-2.05,1.04-4.06,1.77-6.01c0.17-0.45,0.34-0.9,0.53-1.34
					C356.3,97.14,355.6,96.96,355.42,97.38L355.42,97.38z"/>
			</g>
		</g>
		<g>
			<g>
				<path class="st1" d="M350.94,97.34c-0.46,1.11-0.84,2.25-1.16,3.41c-0.52,1.84-1,3.88-0.67,5.8c0.15,0.86,0.55,1.68,1.32,2.14
					c0.4,0.24,0.76-0.39,0.36-0.62c-1.39-0.82-1.13-3.06-0.93-4.4c0.26-1.71,0.76-3.39,1.34-5.02c0.13-0.37,0.27-0.74,0.42-1.11
					C351.81,97.11,351.11,96.92,350.94,97.34L350.94,97.34z"/>
			</g>
		</g>
		<g>
			<g>
				<path class="st1" d="M346.07,98.77c-0.26,0.9-0.46,1.83-0.63,2.75c-0.26,1.46-0.52,3.09-0.15,4.55
					c0.16,0.65,0.51,1.22,1.16,1.47c0.43,0.17,0.62-0.53,0.19-0.7c-0.42-0.16-0.58-0.67-0.67-1.06c-0.15-0.64-0.13-1.32-0.09-1.98
					c0.08-1.34,0.35-2.67,0.66-3.98c0.07-0.29,0.15-0.58,0.23-0.87C346.9,98.51,346.2,98.32,346.07,98.77L346.07,98.77z"/>
			</g>
		</g>
		<g>
			<g>
				<path class="st1" d="M344.58,107.37c-0.02,0.01-0.08,0.04-0.02,0.01c0.05-0.02-0.11,0.04-0.15,0.05
					c-0.17,0.06-0.38,0.11-0.53,0.13c-0.49,0.06-0.95-0.07-1.23-0.5c-0.62-0.94-0.33-2.39-0.25-3.43c0.08-1.09,0.18-2.18,0.32-3.26
					c0.05-0.38,0.1-0.76,0.18-1.13c0.1-0.45-0.6-0.65-0.7-0.19c-0.34,1.57-0.43,3.21-0.54,4.81c-0.11,1.59-0.31,4.5,2.03,4.44
					c0.43-0.01,0.87-0.12,1.25-0.31C345.36,107.79,345,107.17,344.58,107.37L344.58,107.37z"/>
			</g>
		</g>
		<g>
			<g>
				<path class="st1" d="M362.27,102.48c-0.36-0.95-1.11-2.06-2.21-2.16c-1.37-0.13-1.61,0.92-1.38,2.01
					c0.37,1.71,1.11,3.38,0.74,5.16c-0.26,1.24-1.09,2.07-2,2.88c-0.99,0.88-2.05,1.69-3.09,2.5c-1.93,1.51-3.92,3.14-4.59,5.6
					c-0.12,0.45,0.58,0.64,0.7,0.19c0.71-2.6,3.05-4.23,5.07-5.81c1.86-1.45,4.27-2.97,4.66-5.48c0.29-1.83-0.42-3.49-0.79-5.24
					c-0.05-0.22-0.18-0.62-0.07-0.84c0.21-0.41,0.85-0.28,1.17-0.08c0.51,0.31,0.88,0.92,1.09,1.46
					C361.73,103.1,362.43,102.92,362.27,102.48L362.27,102.48z"/>
			</g>
		</g>
		<path class="st26" d="M330.79,139.23c0,0,8.47,9.49,26.89,9.72l3.5-14.57c0,0-17.19-4.63-24.76-9.83L330.79,139.23z"/>
		<path class="st26" d="M396.22,278.93c0,0,0.18,4.27,2.87,7.52c2.7,3.25-5.06,13.7-11,12.04c-5.94-1.66,2.41-10.15,2.71-11.45
			s-3.1-5.15-3.1-5.15L396.22,278.93z"/>
		<path class="st26" d="M451.95,278.93c0,0-0.18,4.27-2.87,7.52c-2.7,3.25,5.06,13.7,11,12.04c5.94-1.66-2.41-10.15-2.71-11.45
			c-0.3-1.3,3.1-5.15,3.1-5.15L451.95,278.93z"/>
		<path class="st26" d="M517.42,139.23c0,0-8.47,9.49-26.89,9.72l-3.5-14.57c0,0,17.19-4.63,24.76-9.83L517.42,139.23z"/>
	</g>
	<g>
		<path class="st1" d="M563.09,165.03c0,0,3.22-14.51,24.86-13.04c21.63,1.48,35.6,16.29,35.47,45.83c0,0,40.17,56.82-16.59,65.55
			c-56.76,8.73-93.04,6.58-88.2-17.2c4.84-23.78,21.77-23.7,17.6-42.11C532.06,185.66,548.99,161.94,563.09,165.03z"/>
		<path class="st27" d="M551.17,313.81l-4.06,39.31c0,0-21.77,28.21-16.93,77.93h103.24l-2.53-121.73L551.17,313.81z"/>
		<path class="st28" d="M652.4,305.57c0,0,0.17,6.25-36.8,4.23v-16.67C615.6,293.13,646.76,292.88,652.4,305.57z"/>
		<path class="st4" d="M644.61,355.55c0.44-12.99,1.35-56.23,1.35-56.23h-25.32c0,0-2.7,41.89-0.16,56.23H644.61z"/>
		<path class="st11" d="M610.66,250.81l2.41,52.34c0,0,21.2-4.84,39.34,2.42c0,0,3.02-7.21-5.04-12.37
			C647.36,293.21,653.21,248.33,610.66,250.81z"/>
		<path class="st28" d="M515.47,304.68c0,0-0.17,6.25,36.8,4.23v-16.67C552.26,292.24,521.11,291.99,515.47,304.68z"/>
		<g>
			<path class="st4" d="M564.55,208.46c0,0-12.78-10.71-15.79-0.73c-3.01,9.98,9.12,20.26,20.64,11.58L564.55,208.46z"/>
			<path class="st5" d="M550.98,217.16c1.3,1.71,3.3,2.87,5.45,2.78c5.53-0.24,7.17-7.82,4.91-13.75c1.89,1.17,3.21,2.27,3.21,2.27
				l4.84,10.85c-9.82,7.4-20.08,1.02-21.03-7.2C549.08,213.95,549.86,215.69,550.98,217.16z"/>
			<g>
				<g>
					<g>
						<path class="st1" d="M558.56,215.78c-0.11-0.53-0.34-1.06-0.59-1.54c-0.53-1.04-1.32-1.96-2.3-2.61
							c-0.7-0.46-1.51-0.77-2.34-0.92c-0.3-0.06-0.62,0.08-0.7,0.4c-0.08,0.28,0.09,0.65,0.4,0.7c1.29,0.23,2.3,0.79,3.14,1.76
							c0.04,0.05,0.08,0.1,0.12,0.15c0.02,0.02,0.04,0.05,0.06,0.07c-0.01-0.02-0.07-0.09,0,0c0.08,0.1,0.15,0.21,0.22,0.32
							c0.13,0.19,0.25,0.39,0.36,0.6c0.09,0.18,0.17,0.36,0.26,0.54c0.03,0.07-0.04-0.11-0.02-0.05c0.01,0.02,0.02,0.04,0.02,0.06
							c0.01,0.04,0.03,0.07,0.04,0.11c0.03,0.07,0.05,0.14,0.08,0.22c0.05,0.16,0.11,0.32,0.14,0.49c0.06,0.3,0.42,0.48,0.7,0.4
							C558.47,216.39,558.62,216.08,558.56,215.78L558.56,215.78z"/>
					</g>
				</g>
				<g>
					<g>
						<path class="st1" d="M556.28,212.68c-0.31,0.14-0.59,0.37-0.84,0.59c-0.54,0.5-0.93,1.18-1.05,1.91
							c-0.11,0.61-0.07,1.22,0.07,1.83c0.07,0.29,0.42,0.49,0.7,0.4c0.3-0.1,0.47-0.39,0.4-0.7c-0.03-0.12-0.05-0.24-0.07-0.36
							c-0.01-0.07,0,0.01,0,0.02c0-0.03-0.01-0.05-0.01-0.08c-0.01-0.07-0.01-0.13-0.02-0.2c-0.01-0.1-0.01-0.21,0-0.31
							c0-0.05,0-0.09,0.01-0.14c0-0.05,0.03-0.2,0-0.07c0.03-0.18,0.07-0.36,0.13-0.53c0.01-0.04,0.03-0.07,0.04-0.11
							c0.05-0.12-0.04,0.07,0.01-0.02c0.04-0.07,0.07-0.15,0.11-0.22c0.03-0.06,0.07-0.12,0.11-0.17c0.02-0.03,0.04-0.06,0.07-0.09
							c0.07-0.1-0.06,0.07,0,0c0.09-0.1,0.17-0.2,0.27-0.3c0.04-0.04,0.09-0.08,0.13-0.12c0.02-0.02,0.04-0.03,0.06-0.05
							c0.01-0.01,0.03-0.02,0.04-0.03c0.06-0.05-0.06,0.04-0.06,0.05c0.08-0.03,0.16-0.11,0.23-0.16c0.08-0.05,0.16-0.1,0.25-0.14
							c0.28-0.13,0.35-0.54,0.2-0.78C556.89,212.59,556.56,212.55,556.28,212.68L556.28,212.68z"/>
					</g>
				</g>
			</g>
		</g>
		<path class="st4" d="M571.47,220.53l-0.79,17.5c-0.11,2.43-1.23,4.7-3.1,6.26l-7.81,6.53c0,0,25.01,26.73,48.39,0.8l-7.59-7.01
			c-1.89-1.75-2.91-4.25-2.77-6.82l0.59-11L571.47,220.53z"/>
		<path class="st6" d="M571.17,227.15l0.3-6.62l26.92,6.25l-0.54,10.15C595.07,239.11,578.1,248.25,571.17,227.15z"/>
		<path class="st4" d="M586.22,160.06c0,0,29.08,2.2,26.22,36.32c-0.12,1.38,0.16,2.77,0.73,4.03c2.38,5.23,9.01,21.3-15.87,33.25
			c-0.95,0.46-1.99,0.7-3.05,0.74c-6.85,0.23-32.33-1-39.19-31.11C547.11,168.39,586.22,160.06,586.22,160.06z"/>
		<path class="st1" d="M581.56,200.28c0.35,1.8-0.46,3.48-1.82,3.74c-1.36,0.27-2.75-0.97-3.11-2.77c-0.35-1.8,0.46-3.48,1.82-3.74
			S581.21,198.49,581.56,200.28z"/>
		<path class="st1" d="M602.89,196.08c0.35,1.8-0.46,3.48-1.82,3.74c-1.36,0.27-2.75-0.97-3.11-2.77c-0.35-1.8,0.46-3.48,1.82-3.74
			C601.14,193.04,602.53,194.28,602.89,196.08z"/>
		<g>
			<g>
				<path class="st1" d="M595.69,209.56c0.89-0.65,1.75-1.5,2.2-2.52c0.63-1.42,0-2.53-1.03-3.51c-0.9-0.86-1.87-1.66-2.62-2.66
					c-1.15-1.52-1.76-3.31-2.06-5.18c-0.16-1-1.68-0.57-1.52,0.42c0.29,1.8,0.88,3.55,1.89,5.08c0.7,1.06,1.58,1.97,2.51,2.82
					c0.59,0.54,1.67,1.23,1.51,2.06c-0.12,0.58-0.58,1.1-0.99,1.5c-0.17,0.17-0.35,0.34-0.54,0.49c-0.07,0.06-0.14,0.12-0.21,0.17
					c0.17-0.14,0.09-0.07,0.05-0.04C594.09,208.8,594.87,210.16,595.69,209.56L595.69,209.56z"/>
			</g>
		</g>
		<path class="st7" d="M583.72,213.33c0.53,2.7-2,5.47-5.66,6.19c-3.66,0.72-7.05-0.88-7.59-3.58c-0.53-2.7,2-5.47,5.66-6.19
			S583.19,210.64,583.72,213.33z"/>
		<path class="st7" d="M613.45,207.47c0.53,2.7-2,5.47-5.66,6.19c-3.66,0.72-7.05-0.88-7.59-3.58c-0.53-2.7,2-5.47,5.66-6.19
			C609.52,203.17,612.92,204.77,613.45,207.47z"/>
		<g>
			<g>
				<path class="st1" d="M584.86,217.51c2.46,2.48,5.61,3.92,9.13,3.43c3.37-0.47,6.42-2.25,8.47-4.96
					c0.61-0.81-0.75-1.59-1.36-0.79c-1.75,2.31-4.48,3.82-7.34,4.21c-3.02,0.42-5.69-0.89-7.79-3
					C585.26,215.68,584.15,216.79,584.86,217.51L584.86,217.51z"/>
			</g>
		</g>
		<path class="st1" d="M581.95,189.13c0.49,1.52-1.61,1.27-4.45,2.19c-2.84,0.92-5.36,2.67-5.85,1.15
			c-0.49-1.52,1.41-3.49,4.26-4.42C578.75,187.13,581.46,187.61,581.95,189.13z"/>
		<path class="st1" d="M596.15,186.92c0.12,1.59,1.97,0.56,4.95,0.34s5.97,0.44,5.85-1.15c-0.12-1.59-2.64-2.69-5.62-2.47
			C598.35,183.86,596.03,185.33,596.15,186.92z"/>
		<path class="st5" d="M597.33,225.9c0.14,0.7-0.86,1.48-2.22,1.75c-1.36,0.27-2.58-0.08-2.72-0.77c-0.14-0.7,1.03-0.6,2.39-0.87
			C596.14,225.74,597.19,225.21,597.33,225.9z"/>
		<g>
			<path class="st14" d="M740.25,379.86c-3.32-40.44-16.33-57.91-16.33-57.91l-36.89-1.03v81.38h0.91v52.94h43.9
				C731.82,455.23,742.77,410.6,740.25,379.86z"/>
			<path class="st14" d="M633.79,379.86c3.32-40.44,16.33-57.91,16.33-57.91l36.89-1.03v81.38h-0.91v52.94h-43.9
				C642.21,455.23,631.27,410.6,633.79,379.86z"/>
			<path class="st5" d="M646.54,272.66l6.37-27.77c0,0,4.02-15.01-0.26-20.45c0,0-41.38,22.4-21.51,68.02
				c2.45,5.62,79.06,1.21,79.06,1.21v-9.18C710.2,284.49,671.67,266.21,646.54,272.66z"/>
			<g>
				<path class="st17" d="M706.73,166.6c0,0,11.71-14.53,17.18-4.22c5.47,10.31-5.62,24.21-20.15,17.18L706.73,166.6z"/>
				<path class="st5" d="M723.5,173.22c-1.06,2.16-3,3.87-5.38,4.23c-6.12,0.93-9.56-7.03-8.36-14.04
					c-1.82,1.69-3.03,3.19-3.03,3.19l-2.97,12.96c12.38,5.99,22.26-3.23,21.52-12.46C724.89,169.28,724.42,171.36,723.5,173.22z"/>
				<g>
					<g>
						<g>
							<path class="st1" d="M716.17,173.39c0-0.15,0.02-0.29,0.03-0.43c0.01-0.1,0.01-0.05-0.01,0.03c0.01-0.04,0.01-0.08,0.02-0.12
								c0.01-0.09,0.03-0.17,0.04-0.26c0.04-0.21,0.09-0.43,0.15-0.63c0.06-0.24,0.14-0.47,0.23-0.7c0.02-0.06,0.05-0.12,0.07-0.18
								c0.03-0.07,0,0.01-0.01,0.02c0.02-0.04,0.03-0.07,0.05-0.11c0.06-0.13,0.12-0.26,0.18-0.38c0.3-0.58,0.61-1.02,1.05-1.46
								c0.57-0.58,1.25-1.02,2.02-1.32c0.32-0.13,0.54-0.43,0.45-0.79c-0.08-0.31-0.46-0.57-0.79-0.45
								c-1.53,0.6-2.81,1.62-3.65,3.04c-0.54,0.91-0.89,1.94-1.04,2.99c-0.04,0.25-0.07,0.5-0.08,0.76
								C714.88,174.21,716.15,174.21,716.17,173.39L716.17,173.39z"/>
						</g>
					</g>
					<g>
						<g>
							<path class="st1" d="M716.34,170.67c0.08,0.02,0.17,0.05,0.25,0.08c0.04,0.01,0.08,0.03,0.12,0.05
								c0.08,0.03-0.18-0.08-0.06-0.03c0.03,0.01,0.05,0.02,0.08,0.03c0.11,0.05,0.23,0.11,0.33,0.18c0.05,0.03,0.11,0.07,0.16,0.1
								c0.03,0.02,0.06,0.04,0.09,0.06c0.02,0.01,0.03,0.02,0.05,0.03c0.08,0.06-0.11-0.09-0.05-0.04c0.12,0.11,0.24,0.21,0.36,0.33
								c0.06,0.06,0.11,0.13,0.16,0.19c0.05,0.06-0.08-0.11-0.04-0.05c0.01,0.02,0.03,0.04,0.04,0.06c0.03,0.04,0.06,0.09,0.09,0.13
								c0.05,0.07,0.09,0.15,0.13,0.23c0.02,0.05,0.05,0.09,0.07,0.14c0.01,0.01,0.02,0.07,0.03,0.07
								c-0.03-0.02-0.05-0.13-0.01-0.02c0.09,0.24,0.16,0.48,0.2,0.74c0,0.03,0.01,0.06,0.01,0.09c0-0.08-0.01-0.09,0,0
								c0.01,0.08,0.01,0.15,0.02,0.23c0.01,0.16,0.01,0.32,0,0.48c-0.01,0.33,0.3,0.65,0.64,0.64c0.36-0.02,0.63-0.28,0.64-0.64
								c0.04-1.11-0.25-2.18-0.96-3.04c-0.44-0.53-1.03-0.91-1.66-1.17c-0.11-0.05-0.23-0.09-0.35-0.12
								c-0.33-0.07-0.71,0.1-0.79,0.45C715.82,170.21,715.99,170.59,716.34,170.67L716.34,170.67z"/>
						</g>
					</g>
				</g>
			</g>
			<path class="st4" d="M698.5,192.33l0.79,17.5c0.11,2.43,1.23,4.7,3.1,6.26l7.81,6.53c0,0-25.01,26.73-48.39,0.8l7.59-7.01
				c1.89-1.75,2.91-4.25,2.77-6.82l-0.59-11L698.5,192.33z"/>
			<path class="st29" d="M710.2,222.61l14.09,1.82l1.04,61.91l6.4,51.77c0,0-51.53,19.38-89.32-6.22l5.72-66.18l8.28-43.1l8.83-1.16
				C665.25,221.45,684.32,243.55,710.2,222.61z"/>
			<path class="st9" d="M644.54,307.29l-2.13,24.6c37.78,25.61,89.32,6.22,89.32,6.22L726,291.78
				C701.21,303.99,671.35,312.04,644.54,307.29z"/>
			<path class="st6" d="M698.8,198.95l-0.3-6.62l-26.92,6.25l0.54,10.15C674.9,210.91,691.87,220.05,698.8,198.95z"/>
			<path class="st4" d="M673.95,129.78c0,0-28.1,7.78-18.69,40.71c0.38,1.34,0.38,2.74,0.06,4.1c-1.32,5.59-4.71,22.64,22,29.55
				c1.02,0.26,2.09,0.3,3.13,0.13c6.77-1.1,31.52-7.23,32.43-38.11C713.94,130.39,673.95,129.78,673.95,129.78z"/>
			<path class="st1" d="M686.31,168.35c0,1.83,1.12,3.32,2.51,3.32c1.39,0,2.51-1.49,2.51-3.32c0-1.83-1.12-3.32-2.51-3.32
				C687.43,165.03,686.31,166.51,686.31,168.35z"/>
			<path class="st1" d="M664.57,168.35c0,1.83,1.12,3.32,2.51,3.32c1.39,0,2.51-1.49,2.51-3.32c0-1.83-1.12-3.32-2.51-3.32
				C665.7,165.03,664.57,166.51,664.57,168.35z"/>
			<g>
				<g>
					<path class="st1" d="M674.9,178.76c-0.77-0.36-1.66-0.9-2.11-1.65c-0.5-0.85,0.43-1.75,0.92-2.41
						c0.77-1.05,1.48-2.11,1.98-3.32c0.71-1.72,0.95-3.57,0.88-5.42c-0.03-1.01-1.61-1.01-1.57,0c0.06,1.9-0.2,3.79-1.07,5.5
						c-0.57,1.13-1.36,2.11-2.09,3.14c-0.78,1.12-1.12,2.31-0.27,3.52c0.61,0.86,1.57,1.55,2.52,1.99
						C675.02,180.55,675.82,179.19,674.9,178.76L674.9,178.76z"/>
				</g>
			</g>
			<path class="st7" d="M686.72,181.57c0,2.75,3.02,4.98,6.75,4.98s6.75-2.23,6.75-4.98c0-2.75-3.02-4.98-6.75-4.98
				S686.72,178.82,686.72,181.57z"/>
			<path class="st7" d="M656.41,181.57c0,2.75,3.02,4.98,6.75,4.98c3.73,0,6.75-2.23,6.75-4.98c0-2.75-3.02-4.98-6.75-4.98
				C659.44,176.59,656.41,178.82,656.41,181.57z"/>
			<g>
				<g>
					<path class="st1" d="M685.07,185.05c-1.6,2.42-3.94,4.2-6.9,4.4c-2.97,0.2-5.96-0.75-8.19-2.73c-0.75-0.67-1.87,0.44-1.11,1.11
						c2.57,2.29,6.06,3.47,9.5,3.18c3.47-0.29,6.17-2.32,8.06-5.16C686.99,185,685.63,184.21,685.07,185.05L685.07,185.05z"/>
				</g>
			</g>
			<path class="st1" d="M683.77,157.48c-0.19,1.58,1.82,0.93,4.79,1.29c2.97,0.36,5.77,1.58,5.96,0c0.19-1.58-2.06-3.15-5.03-3.51
				C686.52,154.9,683.96,155.9,683.77,157.48z"/>
			<path class="st1" d="M669.41,158.05c0.19,1.58-1.82,0.93-4.79,1.29c-2.97,0.36-5.78,1.58-5.96,0s2.06-3.15,5.03-3.51
				S669.22,156.47,669.41,158.05z"/>
			<path class="st5" d="M675.8,196.53c0,0.71,1.13,1.29,2.52,1.29c1.39,0,2.52-0.58,2.52-1.29c0-0.71-1.13-0.39-2.52-0.39
				C676.93,196.14,675.8,195.82,675.8,196.53z"/>
			<circle class="st30" cx="660.49" cy="169.04" r="11.09"/>
			<circle class="st30" cx="691.33" cy="169.04" r="11.09"/>
			<path class="st30" d="M671.83,169.52c0,0,4.26-2.67,8.74,0"/>
			<path class="st31" d="M650.05,255.64c0,0-11.55,24.66,10.62,34.2c22.17,9.54,66.77-11.55,66.77-11.55s13.17-7.26,4.84-29.16
				c0,0-12.48-19.48-46.28-9.4c0,0-8.88,3.09-12.94-6.38L650.05,255.64z"/>
			<path class="st31" d="M650.79,259.87c0,0-24.68,28.04-11.44,33.88s11.25-13.52,24.48-24.12
				C663.82,269.62,663.85,260.12,650.79,259.87z"/>
			<path class="st32" d="M638.79,214.48c0,0-9.9-7.9-11.91-14.95c0,0-4.9,4.57-2.59,9.14c0,0-2.99,4.43-0.62,8.67
				c0,0,0.35,11.29,7.68,10.11C638.67,226.27,638.79,214.48,638.79,214.48z"/>
			<path class="st31" d="M662.36,214.48c0,0,9.9-7.9,11.91-14.95c0,0,4.9,4.57,2.59,9.14c0,0,2.99,4.43,0.62,8.67
				c0,0-0.35,11.29-7.68,10.11C662.48,226.27,662.36,214.48,662.36,214.48z"/>
			<path class="st31" d="M630.19,229.14c-0.24,2.67-1.76,5.06-3.99,6.54c-3.25,2.16-5.67,3.32-5.73,8.04
				c-0.1,8.06,11.39,18.94,34.87,10.18c0,0,13.2-6.25,17.73-20.56c0,0-3.83-22.27-21.66-22.47
				C636.75,210.71,630.87,221.69,630.19,229.14z"/>
			<path class="st7" d="M650.05,255.64c0,0,14.67-4.27,23.14-21.92l3.02,4.14c0,0-7.13,16.96-27.71,22.09L650.05,255.64z"/>
			<path class="st4" d="M730.4,272.66l-6.37-27.77c0,0-4.02-15.01,0.26-20.45c0,0,10.24-0.61,19.26,14.85
				c6.59,11.31,10.73,49.58-0.82,56.02c-5.35,2.98-75.99-1.65-75.99-1.65v-9.18C666.74,284.49,705.27,266.21,730.4,272.66z"/>
			<path class="st31" d="M715.76,241.6c0,0,6.18-0.27,6.92-7.39c0.74-7.12,1.41-11.76,6.78-8.93c5.37,2.82,9.27,20.35-8.06,21.56
				L715.76,241.6z"/>
			<g>
				<path class="st4" d="M668.89,294.09c3.08-4.15,1.94-10.05-2.25-13.07c-4.59-3.3-11.6-7.29-15.96-4.78
					c-6.93,3.98-10.28,12.48-7,13.88c3.27,1.4,4.52-4.67,6.86-5.61c0,0-2.7,1.54-4.4,5.7c-0.25,0.62-0.2,1.33,0.18,1.89
					c0.56,0.83,1.49,1.91,2.52,1.8c1.66-0.19,2.85-5.45,5.96-6.21c0,0-2.93,0.76-4.5,5.15c-0.49,1.37,0.14,2.93,1.47,3.51
					c0.69,0.3,1.39,0.38,1.81-0.21c1.03-1.47,3.07-4.54,4.78-3.25c1.71,1.3,7.15,5.62,10.43,1.33
					C668.82,294.18,668.86,294.14,668.89,294.09z"/>
				<g>
					<g>
						<path class="st1" d="M647.2,289.12c0.36-0.57,0.75-1.12,1.16-1.65c0.73-0.94,1.59-1.96,2.58-2.69
							c0.27-0.2,0.56-0.38,0.86-0.53c0.11-0.05,0.19-0.09,0.34-0.13c0.07-0.02,0.15-0.04,0.23-0.06c0.1-0.02,0.1-0.02,0.14-0.03
							c0.27-0.03,0.5-0.21,0.5-0.5c0-0.25-0.23-0.53-0.5-0.5c-1.33,0.15-2.44,1.08-3.35,2c-0.88,0.89-1.66,1.89-2.37,2.91
							c-0.15,0.22-0.3,0.44-0.44,0.66C645.99,289.17,646.86,289.67,647.2,289.12L647.2,289.12z"/>
					</g>
				</g>
				<g>
					<g>
						<path class="st1" d="M650.98,292.5c0.24-0.55,0.54-1.09,0.86-1.6c0.59-0.94,1.32-1.88,2.26-2.48c0.55-0.35,1.1-0.55,1.73-0.53
							c0.64,0.01,0.64-0.99,0-1c-2.53-0.05-4.34,2.45-5.39,4.45c-0.11,0.21-0.22,0.43-0.32,0.65c-0.11,0.25-0.07,0.54,0.18,0.68
							C650.51,292.8,650.87,292.75,650.98,292.5L650.98,292.5z"/>
					</g>
				</g>
			</g>
			<path class="st31" d="M657.75,268.41c0,0-5.95,36.88,8.36,34.76c14.31-2.12,2.32-17.43,7.86-33.45
				C673.97,269.72,668.93,261.66,657.75,268.41z"/>
			<path class="st1" d="M706.02,149.61c0,0,1.51,23.72,5.24,23.1c3.73-0.63,1.51-13.09,7.05-14.01c0,0,3.86-0.98,6.52,5.92
				c0,0,7.73-13.7,4.1-25.12c-3.63-11.42-11.82-11.69-11.82-11.69s-17.85-16.39-40.9-8.06c-23.05,8.33-29.1-6.99-30.17,0.94
				c-1.07,7.93,4.69,48.99,53.19,18.89c0,0-5.54,4.74-4.94,8.97C694.72,151.65,695.94,153.64,706.02,149.61z"/>
		</g>
		<path class="st11" d="M608.16,251.61c0,0-22.02,25.33-48.39-0.8l-9.38,9.06l-1.93,58.26h70.32c0,0,6.92-53.55,1.68-62.42
			L608.16,251.61z"/>
		<path class="st27" d="M607.58,250.98l0.45,79.71h13.42l-5.06-80.05C616.39,250.64,611,249.48,607.58,250.98z"/>
		<path class="st4" d="M550.39,298.44c0,0,2.82,43.67,0,57.1c0,0,10.62,6.05,29.46,33.99l-9.94,4.7c0,0-43-29.29-43.38-36.81
			c-0.38-7.52-1.45-58.98-1.45-58.98H550.39z"/>
		<path class="st11" d="M559.77,250.81l-4.97,51.45c0,0-21.2-4.84-39.34,2.42c0,0-3.02-7.21,5.04-12.37
			C520.5,292.32,517.21,248.33,559.77,250.81z"/>
		<path class="st27" d="M551.17,250.98l0.45,79.71h13.42l-5.06-80.05C559.98,250.64,554.59,249.48,551.17,250.98z"/>
		<g>
			<path class="st33" d="M541.46,403.01c0,0-21.53,0.08-23.14-25.52c-0.86-13.71,0.35-22.31,1.67-27.33
				c0.53-2.01-1.68-3.64-3.46-2.58l-7.28,4.31c0,0-3.43-23.38-10.48-21.36c-7.05,2.02-14.91,33.66,1.81,51.79
				c0,0-7.43-6.04-9.96-4.83c-2.53,1.21-0.52,36.07,43.42,37.08L541.46,403.01z"/>
			<path class="st34" d="M646.36,380.48c0,0,1.21,10.48,4.7,13.44c3.49,2.96,6.05,9,2.15,10.61c0,0,15.05,34.26-22.44,46.35v4.27
				H518.32c0,0-7.05-38.13,11.29-49.21c18.34-11.08,45.22-11.44,49.51-20.23c4.29-8.79,19.01-13.22,19.01-13.22
				S633.12,385.25,646.36,380.48z"/>
			<path class="st33" d="M538.25,419.69c1.31-7.86,17.08-12.1,14.01-22.72c-7.65,2.15-15.76,4.8-22.65,8.97
				c-10.59,6.4-12.71,21.81-12.61,33.7c1.29,0.64,2.67,1.13,4.19,1.38C532.56,441.02,536.82,429.65,538.25,419.69z"/>
			<path class="st33" d="M651.06,393.92c-3.49-2.96-4.7-13.44-4.7-13.44c-4.14,1.49-10.42,1.27-17.09,0.25
				c-2.19,6.14-3.56,12.42-0.01,14.78c7.11,7.11,14.22,5.69,21.33,15.64c1.98,2.37,3.62,2.87,5.06,2.21
				c-0.86-5.25-2.43-8.84-2.43-8.84C657.11,402.92,654.55,396.88,651.06,393.92z"/>
			<path class="st24" d="M646.89,367.85l2.02,15.11c0,0-25.59,8.67-52.2-4.83l7.46-11.69L646.89,367.85z"/>
			<path class="st34" d="M609.91,316.16c0,0,17.03-9.17,29.63-2.02c12.6,7.15,17.42,20.27,32.85,25.09
				c17.73,5.54,5.24,32.25-12.39,33.15l-14.31,0.2c0,0,1.71,5.39-0.3,5.54c-2.02,0.15-7.1-4.08-7.1-4.08s1.11,3.22-1.91,3.63
				c-3.02,0.4-5.29-5.24-5.29-5.24s-1.41,4.48-5.95,4.79c-4.53,0.3-7.36-7.05-7.36-7.05s-1.81,5.44-8.77,5.44
				C602.05,375.61,609.91,316.16,609.91,316.16z"/>
			<path class="st33" d="M609.91,316.16c0,0,11.79,6.55,8.57,20.05c-3.22,13.5-5.63,21.07-5.44,29.83c0.19,8.75-18.54,25.59-27.01,0
				c0,0-1.28,2.08-3.83,1.68c-2.55-0.4-4.37-4.7-1.95-8.33c2.42-3.63,3.96-8.87,4.97-25.39
				C586.23,317.47,607.78,314.65,609.91,316.16z"/>
			<g>
				<g>
					<path class="st1" d="M631.56,453.74c0.21-2.25,0.12-4.55,0.05-6.81c-0.24-6.98-1.06-13.93-2.09-20.84
						c-0.15-1-1.66-0.57-1.52,0.42c1.02,6.84,1.82,13.74,2.04,20.66c0.07,2.18,0.14,4.4-0.05,6.57
						C629.89,454.74,631.47,454.74,631.56,453.74L631.56,453.74z"/>
				</g>
			</g>
			<g>
				<g>
					<path class="st1" d="M606.81,453.34c-1.8-2.72-3.15-5.81-4.25-8.87c-2.36-6.58-3.34-13.69-1.87-20.58
						c0.21-0.99-1.3-1.41-1.52-0.42c-1.5,7.06-0.61,14.35,1.76,21.11c1.15,3.29,2.59,6.63,4.52,9.55
						C606.01,454.97,607.37,454.19,606.81,453.34L606.81,453.34z"/>
				</g>
			</g>
			<g>
				<g>
					<path class="st1" d="M563.99,425.27c4.16,6.14,6.12,15.39,0.73,21.37c-3,3.33-7.32,5.14-11.54,6.33
						c-0.97,0.27-0.56,1.79,0.42,1.52c6.78-1.92,13.97-5.77,15.63-13.21c1.05-4.71-0.21-9.63-2.25-13.89c-0.48-1-1-2-1.62-2.91
						C564.78,423.65,563.42,424.43,563.99,425.27L563.99,425.27z"/>
				</g>
			</g>
		</g>
		<path class="st4" d="M569.49,387.15c0,0,1.52-4.93,6.69-4.38c5.17,0.55,9.2-3.36,11.4-2c1.82,1.12-0.6,3.79-3.08,4.91
			c-1.82,0.82-4.34,0.7-4.03,1.13c0.32,0.42,2.73,2.61,4.51,3.05c2.02,0.5,12.29,2.23,12.77,2.25c3.59,0.14,3.22,1.91,3.22,1.91
			c-0.09,2.69-6.96,1.85-8.88,1.64c-2.89-0.32-7.65-1.2-7.65-1.2l-0.16,0.41c0,0,13.75,7.42,14.46,7.81
			c1.21,0.67,1.11,1.67,0.94,2.04c-0.27,0.56-1.08,1.16-2.8,0.67c-2.6-0.74-11.57-3.79-14.8-5.75c0,0,7.38,4.94,9.62,7.65
			c0.74,0.9,1.97,2.32,1.02,3.26c-1.08,1.08-3.22-0.56-3.56-0.78c-2.37-1.53-7.74-5.42-9.81-7.55l-0.5,0.25c0,0,5.76,5.72,6.5,7.9
			c0.07,0.21,0.46,1.25-0.38,1.76c-1.31,0.8-1.98-0.56-2.13-0.83c-0.75-1.35-8.75-8.09-9.58-8.65c-1.97-1.32-5.41-4.1-6.31-7.78
			C565.67,389.64,569.49,387.15,569.49,387.15z"/>
		<path class="st1" d="M609.18,172.45c0,0-18.51,8.49-38.01-0.54c0,0-3.61,33.54-16.32,32.47c0,0-4.05-3.9-3.68-16.79
			c0.37-12.89,19.86-31.2,35.71-28.9C602.73,160.99,609.18,172.45,609.18,172.45z"/>
		<path class="st1" d="M676.88,351.5c-1.28,1.38-3.24,1.9-5.08,1.44c-3.62-0.9-9.36-2.69-7.98-4.72c1.97-2.92,11.85-5.9,14.47-2.52
			C679.78,347.62,678.37,349.89,676.88,351.5z"/>
		<path class="st1" d="M627.93,245.1c1.02,1.1,2.59,1.51,4.05,1.15c2.88-0.72,7.46-2.14,6.37-3.77c-1.57-2.33-9.45-4.7-11.54-2.01
			C625.62,242,626.74,243.82,627.93,245.1z"/>
		<path class="st1" d="M627.64,347.26c-0.68,0.73-1.9,0.05-1.56-0.89c0.95-2.69,2.99-5.63,7.33-5.36c4.37,0.28,6.4,3.52,7.35,6.34
			c0.32,0.95-0.92,1.62-1.58,0.86C636.61,345.31,632.28,342.28,627.64,347.26z"/>
		<path class="st1" d="M646.9,236.55c-0.43,0.62-1.2,0.04-0.99-0.76c0.6-2.3,1.89-4.83,4.64-4.59c2.76,0.24,4.05,3.02,4.64,5.43
			c0.2,0.82-0.58,1.39-1,0.74C652.57,234.88,649.83,232.28,646.9,236.55z"/>
		<path class="st1" d="M635.28,234.07c0.34,0.49,0.94,0.03,0.78-0.6c-0.47-1.81-1.48-3.79-3.64-3.6c-2.17,0.19-3.18,2.37-3.65,4.27
			c-0.16,0.64,0.46,1.09,0.79,0.58C630.82,232.76,632.97,230.72,635.28,234.07z"/>
		<path class="st13" d="M712.37,177.68c0,1.14,0.93,2.07,2.07,2.07c1.14,0,2.07-0.93,2.07-2.07c0-1.14-0.93-2.07-2.07-2.07
			C713.29,175.61,712.37,176.53,712.37,177.68z"/>
	</g>
</g>
</svg>
