<?xml version="1.0" encoding="utf-8"?>
<!-- Generator: Adobe Illustrator 25.1.0, SVG Export Plug-In . SVG Version: 6.00 Build 0)  -->
<svg version="1.1" xmlns="http://www.w3.org/2000/svg" xmlns:xlink="http://www.w3.org/1999/xlink" x="0px" y="0px"
	 viewBox="0 0 500 500" style="enable-background:new 0 0 500 500;" xml:space="preserve">
<style type="text/css">
	.st0{opacity:0.5;fill:#70CACC;}
	.st1{fill:#ED8046;}
	.st2{fill:#4F4558;}
	.st3{fill:#70CACC;}
	.st4{fill:#FFF9EF;}
	.st5{fill:#F27F95;}
	.st6{fill:#F0C165;}
	.st7{fill:#658EC9;}
	.st8{fill:#F05857;}
	.st9{fill:#7E5EA4;}
	.st10{fill:#E5492B;}
	.st11{fill:#F8E2D2;}
	.st12{fill:#383A45;}
	.st13{fill:#E37373;}
</style>
<g id="BACKGROUND">
</g>
<g id="OBJECTS">
	<g>
		<path class="st0" d="M72.15,164.86c0,0,137.04-110.75,194.96-63.95s6.31,91.38,32.37,93.56s80.89-43.08,101.43,9.51
			c20.55,52.59-77.01,109.97-60.28,113.44c16.73,3.47,45.55-4.44,44.61,14.9c-0.95,19.33-85.16,92.03-139.25,84.08
			c-54.09-7.95,26.95-56.46-5.09-53.26c-32.04,3.2-89.98,74.16-130.87,27.28s44.22-125.47,7.7-115.6
			C57.64,291.04-9.57,236.69,72.15,164.86z"/>
		<path class="st0" d="M346.82,400.86c0,0-152-7.84-157.53-71.45c-5.52-63.62,53.52-62.52,39.2-78.98
			c-14.32-16.47-75.74-18.99-55.12-64.74s115.37-26.35,107.47-38.25c-7.9-11.9-30.22-23.46-17.52-35.37
			c12.7-11.91,109.02-10.08,136.6,26.3s-51.65,20.8-30.35,37.25s100.71,4.22,95.92,58.05s-105.34,55.28-77.16,70.03
			C434.72,327.95,441.1,401.8,346.82,400.86z"/>
		<path class="st0" d="M186.12,341.04c0,0-2.77,24.28,31.84,27.62s43.04-22.27,64.88,5.86s47.66-1.35,37.09-24.35
			S184.41,305.31,186.12,341.04z"/>
		<path class="st1" d="M152.5,335.63c4.67,5.81,10.88,41.78,48.91,38.88c23.27-1.77,34-19.2,67.05-10.48s64.52,19.88,83.85,4.56
			c19.34-15.32,0.32-36.31-14.49-43.82S137.13,316.49,152.5,335.63z"/>
		<path class="st2" d="M86.95,326.66c3.85,5.84,9.17,41.85,40.19,39.22c18.98-1.61,27.61-18.96,54.64-10.01
			c27.03,8.95,52.79,20.33,68.46,5.15s0.01-36.3-12.14-43.91S74.27,307.42,86.95,326.66z"/>
		<g>
			<g>
				<path class="st3" d="M456.83,172.46c0,0-1.74-7.87-10.79-8.46c-11.76-0.77-11.83,6.34-27.62,0.59
					c-15.8-5.75-36.26-2.73-37.69,17.75c-1.78,25.54,28.6,22.8,39.52,15C431.16,189.54,463.93,199.53,456.83,172.46z"/>
				<path class="st4" d="M441.77,177.75c0,0-45.3,11.75-59.55,11.08C382.22,188.83,411.17,183.04,441.77,177.75z"/>
			</g>
			<path class="st4" d="M431.13,187.49l-15.45-4.13l11.22-10.25c0,0-8.8,6.97-12.67,10.17C414.23,183.27,426.66,187.6,431.13,187.49
				z"/>
			<path class="st4" d="M417.67,191.56L403.83,185l9.58-12.23c0,0-6.1,5.56-11.04,12.15C402.37,184.92,411.92,190.63,417.67,191.56z
				"/>
			<path class="st4" d="M405.22,194.01l-13.84-6.56l9.58-12.23c0,0-6.1,5.56-11.04,12.15C389.93,187.37,399.48,193.09,405.22,194.01
				z"/>
			<path class="st4" d="M439.75,184.22l-9.99-3.56l7.52-8.44c0,0-5.1,5.16-8.98,8.36C428.3,180.58,435.8,183.64,439.75,184.22z"/>
		</g>
		<g>
			<g>
				<path class="st1" d="M425.76,115.35c0,0-7.67-2.47-12.75,5.05c-6.6,9.76-0.49,13.41-13.42,24.15s-20.64,29.94-3.67,41.5
					c21.16,14.41,32.52-14.49,31.29-27.85C425.98,144.84,452.71,122.87,425.76,115.35z"/>
				<path class="st4" d="M422.74,131.03c0,0-12.69,45.04-20.46,57.01C402.28,188.04,411.86,160.12,422.74,131.03z"/>
			</g>
			<path class="st4" d="M425.78,145.12l-11.36,11.26l-3.19-14.85c0,0,1.58,11.11,2.39,16.07
				C413.61,157.6,423.62,149.04,425.78,145.12z"/>
			<path class="st4" d="M422.5,158.8l-12.64,8.64L404.13,153c0,0,1.73,8.08,4.93,15.66C409.06,168.66,418.81,163.29,422.5,158.8z"/>
			<path class="st4" d="M418.35,170.79l-12.64,8.64l-5.73-14.44c0,0,1.73,8.08,4.93,15.66C404.9,180.65,414.65,175.28,418.35,170.79
				z"/>
			<path class="st4" d="M427.3,136.03l-8.11,6.83l-3.49-10.75c0,0,1.88,7.01,2.69,11.97C418.38,144.08,424.81,139.15,427.3,136.03z"
				/>
		</g>
		<path class="st0" d="M151.42,184.15c4.26-6.11,26.18-54.43,64.32-54.13c23.34,0.18,22.52,36.43,54.9,25.48
			c32.38-10.95,32.27-37.81,52.61-23.84c20.34,13.97,28.08,42.21,13.81,50.71S137.38,204.29,151.42,184.15z"/>
		<path class="st5" d="M75.48,191.68c0,0-24.29,2.67-19.89,37.16s31.24,37.05,8.64,64.56s11.86,46.18,31.95,30.78
			C116.27,308.79,109.94,182.11,75.48,191.68z"/>
		<g>
			<g>
				<path class="st2" d="M89.9,116.88c0,0-6.99,4-4.86,12.83c2.77,11.45,9.58,9.39,8.8,26.19c-0.78,16.79,8.21,35.42,28.19,30.67
					c24.91-5.92,11.21-33.79,0.51-41.89C111.84,136.59,113.62,102.04,89.9,116.88z"/>
				<path class="st4" d="M99.45,129.68c0,0,24.73,39.73,28.34,53.53C127.79,183.21,113.62,157.31,99.45,129.68z"/>
			</g>
			<path class="st4" d="M111.91,136.93l0.66,15.98l-13.13-7.65c0,0,9.27,6.32,13.49,9.06C112.94,154.32,113.35,141.16,111.91,136.93
				z"/>
			<path class="st4" d="M119.81,148.56l-2.13,15.16l-14.53-5.5c0,0,7.13,4.17,14.89,6.91C118.04,165.14,120.65,154.32,119.81,148.56
				z"/>
			<path class="st4" d="M125.87,159.71l-2.13,15.16l-14.53-5.5c0,0,7.13,4.17,14.89,6.91C124.1,176.29,126.71,165.47,125.87,159.71z
				"/>
			<path class="st4" d="M106.22,129.68l-0.41,10.6l-10.3-4.66c0,0,6.44,3.33,10.66,6.07C106.16,141.69,106.85,133.62,106.22,129.68z
				"/>
		</g>
		<g>
			<g>
				<path class="st6" d="M279.01,95.79c0,0-8.01-0.89-11.49,7.49c-4.52,10.88,2.19,13.24-8.35,26.34
					c-10.54,13.1-14.28,33.44,4.65,41.4c23.6,9.92,28.99-20.67,25.13-33.52S306.92,97.8,279.01,95.79z"/>
				<path class="st4" d="M277.92,109.13c0,0-3.48,46.67-8.71,59.94C269.21,169.08,273.05,139.81,277.92,109.13z"/>
			</g>
			<path class="st4" d="M283.7,122.34l-8.89,13.29l-6.08-13.92c0,0,3.76,10.58,5.54,15.27C274.26,136.99,282.37,126.61,283.7,122.34
				z"/>
			<path class="st4" d="M283.22,136.4l-10.67,10.98l-8.49-13.02c0,0,3.3,7.57,7.94,14.37C272,148.73,280.49,141.54,283.22,136.4z"/>
			<path class="st4" d="M281.53,148.97l-10.67,10.98l-8.49-13.02c0,0,3.3,7.57,7.94,14.37C270.31,161.31,278.8,154.11,281.53,148.97
				z"/>
			<path class="st4" d="M283.39,113.13l-6.59,8.31l-5.56-9.84c0,0,3.24,6.49,5.02,11.19C276.25,122.79,281.57,116.68,283.39,113.13z
				"/>
		</g>
		<g>
			<g>
				<path class="st3" d="M51.33,161.58c0,0-4.08,6.95,2.16,13.55c8.09,8.56,12.98,3.39,20.65,18.35s24.73,26.66,39.71,12.61
					c18.67-17.51-7.07-34.89-20.38-36.6C80.17,167.78,64.54,136.91,51.33,161.58z"/>
				<path class="st4" d="M65.97,167.94c0,0,41.2,22.19,51.2,32.37C117.17,200.31,92.01,184.88,65.97,167.94z"/>
			</g>
			<path class="st4" d="M80.39,168.04l8.52,13.54l-15.19-0.11c0,0,11.19,0.88,16.21,1.16C89.92,182.62,83.75,170.99,80.39,168.04z"
				/>
			<path class="st4" d="M93.03,174.21l5.69,14.22l-15.34,2.45c0,0,8.26,0.07,16.36-1.4C99.73,189.48,96.62,178.79,93.03,174.21z"/>
			<path class="st4" d="M103.83,180.87l5.69,14.22l-15.34,2.45c0,0,8.26,0.07,16.36-1.4C110.53,196.14,107.41,185.45,103.83,180.87z
				"/>
			<path class="st4" d="M71.85,164.57l4.91,9.4l-11.25,1.07c0,0,7.25-0.31,12.26-0.02C77.77,175.03,74.35,167.69,71.85,164.57z"/>
		</g>
		<g>
			<g>
				<path class="st7" d="M212.05,107.55c0,0-7.81,1.99-8.11,11.06c-0.39,11.77,6.72,11.61,1.48,27.59
					c-5.24,15.97-1.57,36.84,18.96,37.1c31.04,0.38,23.13-30.41,14.98-41.07C231.21,131.56,238.87,99.59,212.05,107.55z"/>
				<path class="st4" d="M217.82,122.43c0,0,13.21,44.89,12.99,59.16C230.82,181.6,224.09,152.85,217.82,122.43z"/>
			</g>
			<path class="st4" d="M227.89,132.75l-3.63,15.57l-10.6-10.88c0,0,7.25,8.57,10.57,12.34
				C224.23,149.79,228.15,137.22,227.89,132.75z"/>
			<path class="st4" d="M232.4,146.08l-6.11,14.04l-12.54-9.18c0,0,5.76,5.92,12.5,10.64C226.25,161.58,231.66,151.85,232.4,146.08z
				"/>
			<path class="st4" d="M235.25,158.44l-6.11,14.04l-12.54-9.18c0,0,5.76,5.92,12.5,10.64
				C229.11,173.94,234.52,164.21,235.25,158.44z"/>
			<path class="st4" d="M224.35,124.24l-3.23,10.1l-8.68-7.24c0,0,5.32,4.93,8.64,8.7C221.08,135.8,223.9,128.21,224.35,124.24z"/>
		</g>
		<g>
			<g>
				<path class="st2" d="M428.73,386.41c0,0,5.86-5.53,1.71-13.61c-5.38-10.48-11.52-6.88-14.7-23.39s-16.53-32.96-34.6-23.2
					c-27.31,14.75-5.43,37.82,6.87,43.18S409.16,406.41,428.73,386.41z"/>
				<path class="st4" d="M416.45,376.21c0,0-33.36-32.82-40.11-45.39C376.34,330.82,396.19,352.67,416.45,376.21z"/>
			</g>
			<path class="st4" d="M402.63,372.08l-4.4-15.38l14.56,4.35c0,0-10.5-3.97-15.24-5.64C397.56,355.42,400.24,368.31,402.63,372.08z
				"/>
			<path class="st4" d="M392.22,362.63l-1.49-15.24l15.42,1.93c0,0-7.91-2.38-16.1-3.22C390.06,346.1,390.06,357.23,392.22,362.63z"
				/>
			<path class="st4" d="M383.72,353.21l-1.49-15.24l15.42,1.93c0,0-7.91-2.38-16.1-3.22C381.55,336.68,381.55,347.81,383.72,353.21z
				"/>
			<path class="st4" d="M409.87,377.8l-2.08-10.4l11.1,2.11c0,0-7.05-1.73-11.78-3.4C407.1,366.11,408.33,374.11,409.87,377.8z"/>
		</g>
		<g>
			<g>
				<path class="st7" d="M64.44,390.89c0,0,6.14,5.21,13.71,0.21c9.83-6.5,5.58-12.2,21.64-17.18s30.52-19.76,19.27-36.94
					c-14.03-21.41-36.56-0.85-40.54,11.96C74.54,361.76,42.42,373.63,64.44,390.89z"/>
				<path class="st4" d="M73.23,377.56c0,0,28.96-36.76,40.71-44.85C113.94,332.71,94.4,354.84,73.23,377.56z"/>
			</g>
			<path class="st4" d="M75.81,363.37l14.8-6.06l-2.73,14.95c0,0,2.79-10.87,3.94-15.76C91.82,356.5,79.3,360.58,75.81,363.37z"/>
			<path class="st4" d="M84.07,351.99l14.99-3.15l-0.23,15.54c0,0,1.5-8.12,1.44-16.36C100.26,348.02,89.2,349.25,84.07,351.99z"/>
			<path class="st4" d="M92.5,342.5l14.99-3.15l-0.23,15.54c0,0,1.5-8.12,1.44-16.36C108.69,338.53,97.63,339.76,92.5,342.5z"/>
			<path class="st4" d="M70.93,371.19l10.11-3.21l-0.88,11.27c0,0,0.94-7.19,2.09-12.09C82.25,367.16,74.42,369.26,70.93,371.19z"/>
		</g>
		<g>
			<g>
				<path class="st8" d="M232.35,410.6c0,0,7.92,1.48,12.01-6.62c5.31-10.51-1.2-13.36,10.28-25.65
					c11.48-12.28,16.71-32.3-1.58-41.63c-22.8-11.64-30.44,18.46-27.54,31.56S204.66,406.53,232.35,410.6z"/>
				<path class="st4" d="M233.37,394.67c0,0,6.93-46.28,13.13-59.13C246.5,335.54,240.5,364.44,233.37,394.67z"/>
			</g>
			<path class="st4" d="M228.59,381.07l9.85-12.6l5.04,14.33c0,0-2.96-10.82-4.39-15.64C239.08,367.16,230.23,376.91,228.59,381.07z
				"/>
			<path class="st4" d="M230.11,367.09l11.45-10.16l7.5,13.61c0,0-2.73-7.8-6.86-14.92C242.21,355.62,233.21,362.17,230.11,367.09z"
				/>
			<path class="st4" d="M232.73,354.67l11.45-10.16l7.5,13.61c0,0-2.73-7.8-6.86-14.92C244.82,343.2,235.83,349.75,232.73,354.67z"
				/>
			<path class="st4" d="M228.22,390.28l7.19-7.8l4.82,10.22c0,0-2.75-6.71-4.18-11.53C236.05,381.17,230.3,386.87,228.22,390.28z"/>
		</g>
		<g>
			<g>
				<path class="st5" d="M290.4,400.75c0,0,7.48-3,6.59-12.03c-1.15-11.72-8.18-10.63-5.08-27.16c3.1-16.52-3.22-36.22-23.66-34.29
					c-25.49,2.41-15.79,31.91-6.31,41.41C271.4,378.19,264.85,412.16,290.4,400.75z"/>
				<path class="st4" d="M282.72,386.75c0,0-18.98-42.78-20.64-56.95C262.08,329.8,272.52,357.42,282.72,386.75z"/>
			</g>
			<path class="st4" d="M271.38,377.84l1.56-15.92l11.94,9.4c0,0-8.31-7.55-12.1-10.85C272.78,360.48,270.54,373.45,271.38,377.84z"
				/>
			<path class="st4" d="M265.17,365.22l4.22-14.72l13.63,7.46c0,0-6.48-5.12-13.79-8.91C269.23,349.05,265.14,359.41,265.17,365.22z
				"/>
			<path class="st4" d="M260.72,353.34l4.22-14.72l13.63,7.46c0,0-6.48-5.12-13.79-8.91C264.77,337.17,260.69,347.52,260.72,353.34z
				"/>
			<path class="st4" d="M276.01,385.81l1.88-10.44l9.55,6.04c0,0-5.92-4.19-9.71-7.49C277.73,373.92,275.94,381.82,276.01,385.81z"
				/>
		</g>
		<path class="st9" d="M303.9,176.57c0,0,3.24-24.22-31.29-28.24c-34.53-4.02-43.47,21.42-64.75-7.13s-47.67,0.41-37.56,23.61
			C180.42,188.01,304.91,212.32,303.9,176.57z"/>
		<path class="st5" d="M399.52,331.18c0,0,24.43,0.56,24.63-34.21s-26.07-40.85-0.03-65.14c26.04-24.29-5.65-47.34-27.6-34.73
			S364.1,336.11,399.52,331.18z"/>
		<g>
			<path class="st10" d="M264.49,202.79c72.39,16.74,126.84,5.81,142.7,1.79c-0.48-15.32-1.43-27.88-3.09-35.09
				c0,0-46.98,14.78-139.61-0.9c-98.53-16.68-171.01,0.9-171.01,0.9s-0.26,12.77-0.44,32.4
				C117.41,196.51,186.48,184.76,264.49,202.79z"/>
			<path class="st1" d="M407.19,204.58c-15.86,4.02-70.32,14.95-142.7-1.79c-78.01-18.04-147.07-6.29-171.46-0.9
				c-0.09,9.78-0.17,21.27-0.19,33.74c24.21-5.37,93.44-17.22,171.65,0.86c72.95,16.87,127.7,5.63,143.08,1.69
				C407.61,226.27,407.51,214.81,407.19,204.58z"/>
			<path class="st6" d="M264.49,236.49c-78.21-18.09-147.44-6.23-171.65-0.86c-0.02,9.46,0,19.48,0.07,29.75
				c24.71-5.42,93.46-16.96,171.08,0.99c72.27,16.71,126.66,5.84,142.62,1.81c-0.03,1.28-0.06,2.56-0.09,3.83
				c0.19-0.05,0.41-0.1,0.59-0.15c0.24-11.2,0.41-22.63,0.45-33.67C392.19,242.12,337.44,253.36,264.49,236.49z"/>
			<path class="st3" d="M263.98,266.36c-77.61-17.95-146.37-6.41-171.08-0.99c-0.16,0.03-0.32,0.07-0.48,0.11
				c0.07,9.78,0.2,19.74,0.38,29.62c0.17-0.04,0.34-0.07,0.51-0.11c0-0.05,0-0.09,0-0.14c24.64-5.94,93.48-18.66,171.18,1.06
				c54.56,13.85,98.91,10.44,124.25,6.03c7.4-1.43,13.14-2.89,17.06-3.86c0.27-8.28,0.52-17.08,0.73-26.08
				c0.03-1.27,0.06-2.55,0.09-3.83C390.64,272.2,336.25,283.07,263.98,266.36z"/>
			<path class="st7" d="M264.49,295.9c-77.7-19.72-146.54-7-171.18-1.06c0,0.05,0,0.09,0,0.14c0.19,11.23,0.45,22.35,0.78,33.04
				c0.04-0.01,0.08-0.02,0.12-0.03c-0.04-1.27-0.08-2.5-0.12-3.66c25.28-5.48,87.36-23.38,164.19-5.28
				c76.63,18.04,128.77,12.64,146.88,8.31c-0.06,1.49-0.12,2.99-0.18,4.46c0.06-0.02,0.12-0.03,0.18-0.05
				c0.36-9.48,0.76-21.03,1.14-33.67c-3.94,1.07-9.89,2.49-17.56,3.83C363.4,306.34,319.05,309.75,264.49,295.9z"/>
			<path class="st9" d="M258.29,319.06c-76.82-18.09-138.9-0.2-164.19,5.28c0.04,1.16,0.08,2.38,0.12,3.66
				c0.3,9.08,0.67,20.56,1.11,27.96c0,0,63.8-20.34,164.52-4.46c96.84,15.27,144.25,4.46,144.25,4.46s0.38-11.43,0.88-24.12
				c0.06-1.48,0.12-2.97,0.18-4.46C387.06,331.7,334.91,337.1,258.29,319.06z"/>
		</g>
		<g>
			<path class="st11" d="M133.16,194.44c0,0,25.17-17.67,39.82,2.74c16.67,23.23-6.83,39.03-34.35,35.41
				S122.06,198.83,133.16,194.44z"/>
			<path class="st11" d="M159.13,219.42c0,0-1.15,20.34-15.82,22.33c-14.67,1.99,12.29,1.6,4.04-22.33
				C147.36,219.42,155.56,215.75,159.13,219.42z"/>
			<path class="st8" d="M152.04,225.21c0,0-19.48-16.54-14.74-22.32c6.45-7.87,11.69,5.11,11.69,5.11s1.16-12.1,10.14-7.64
				C166.4,203.98,152.04,225.21,152.04,225.21z"/>
		</g>
		<g>
			<path class="st12" d="M134.01,373.84l-0.69,4.59c0.71,0.08,8.26,0.43,8.39-0.04c0.13-0.46-5.42-1.65-5.42-1.65
				s0.74-2.23,0.66-2.49C136.88,374.02,134.01,373.84,134.01,373.84z"/>
			<path class="st12" d="M94.92,363.22l-3.5,2.62c0.35,0.62,4.54,6.94,4.99,6.78s-1.85-5.67-1.85-5.67s1.61-0.89,1.77-1.11
				C96.48,365.64,94.92,363.22,94.92,363.22z"/>
			<path class="st13" d="M114.23,309.86c0,0,2.69,22.62,0.01,27.96c-2.67,5.33-19.32,25.4-19.32,25.4l1.41,2.61
				c0,0,25.16-16.46,28.17-23.45c3-7,6.55-27.98,6.55-27.98s8.78,25.75,8.47,32.25c-0.31,6.5-5.5,27.6-5.5,27.6h2.94
				c0,0,12.87-21.18,12.87-33.52s-5.84-30.65-5.84-30.65L114.23,309.86z"/>
			<path class="st6" d="M145.59,308.63c0,0,2.1,11.44,2.28,12.51l-14.79,3.2l-1.34-7.85l-1.54,7.85l-15.4-0.1l-1.08-9.62
				C113.72,314.63,140.16,307.71,145.59,308.63z"/>
			<path class="st13" d="M108.21,271.34c0,0-10.36,20.1-15.36,21.22s-11.83-28.17-18.2-32.18c-6.37-4.01,0,1.51,2.28,7.63
				c2.28,6.11,7.28,37.97,15.47,37.06c8.19-0.91,21.41-21.49,21.85-23.71C114.69,279.13,108.21,271.34,108.21,271.34z"/>
			<path class="st13" d="M160.79,325.62c0,0-1.13-1.94-2.49-7.41c-1.37-5.47-15.52-53.5-23.98-53.2c0,0-1.23,11.32,0,17.04
				s9.04,8.58,12.96,18.38C155.54,321.01,158.3,327.17,160.79,325.62z"/>
			<path class="st11" d="M113.72,314.63c0,0-5.16-27.76-7.09-39.22c-2.38-14.12,26.79-11.42,27.69-10.39
				c3.67,4.19,11.8,46.46,11.8,46.46L113.72,314.63z"/>
			<g>
				<path class="st13" d="M119.28,251.19c0,0-0.65-3.04-2.02-2.5s-1.87,3.74-0.9,4.71C117.31,254.37,119.76,253.75,119.28,251.19z"
					/>
				<path class="st13" d="M128.13,245.96c0,0,4.45,7.94-0.39,10.28c-4.85,2.34-4.88-3.23-4.49-2.25c0.39,0.98,3.09,10.59,3.09,10.59
					s-1.9,2.32-7.28,0.34c0,0-0.34-13.94-0.94-20.71C117.86,241.25,125.68,242.86,128.13,245.96z"/>
				<path class="st12" d="M118.15,241.5c0,0,0.44-4.17,3.05-3.68s2.51,1.9,4.15,0.83c1.64-1.07,3.94,1.38,3.32,3.32
					c-0.82,2.54-0.67,3.25-4.18,3.09c-3.51-0.16-5.49-1.02-6.01,0.46s1.45,4.7,0.51,5.3c-0.94,0.6-1.33-2.11-1.91-0.96
					c-0.58,1.15-1.3,3.94,0.67,3.26c1.97-0.68,0.95,2.28,0.17,2.34c-0.79,0.05-4.82-2.2-5.11-6.14c-0.18-2.49,2.61-1.68,1.58-3.33
					C113.36,244.36,114.3,240.27,118.15,241.5z"/>
				<path class="st12" d="M130.56,252.58c0,0-1.83-1.03-3.47,0.62c-1.64,1.65-7.15,0.81-7.61-2.95l-1.69-0.6
					c0,0,2.98,9.22,8.32,8.96C131.47,258.34,131.44,252.86,130.56,252.58z"/>
			</g>
			<path class="st11" d="M109.85,267.66c0,0-12.91,15.59-12.35,16.92c0.56,1.33,8.15,10.46,7.93,9.51c-0.22-0.95,6.79-11.5,8.79-14
				S112.48,266.97,109.85,267.66z"/>
			<path class="st11" d="M140.81,287.17c0,0,8.21-2.83,8.19-4.08s-6.7-16.64-14.68-18.08C134.32,265.01,137.89,284.24,140.81,287.17
				z"/>
		</g>
		<g>
			<path class="st13" d="M349.48,140.34c0,0,10.5,26.64,5.82,32.43c-4.68,5.79-22.88,2.6-27.66,4.19s-7.1,3.51-6.37,2.28
				c0.73-1.23,1.58-3.36,6.59-4.04c5.01-0.68,21.17-2.1,21.85-5.74c0.68-3.64-7.32-14.33-7.32-14.33S343.65,137.63,349.48,140.34z"
				/>
			<path class="st12" d="M347.82,136.99c0,0,3.78,3.96,7.48,21.32c0,0-6.69,6.18-7.48,6.57l-5.43-9.76
				C342.39,155.12,346.25,136.9,347.82,136.99z"/>
			<path class="st13" d="M304.46,102.43c0,0-3.09,22.91,2.6,30.01c5.69,7.1,19.19-2.01,22.92-2.62c0,0,1.67,6.53,1.15,9.95
				c-0.52,3.42-21.65,6.43-28.17,1.32s-3.95-24.67-1.05-34.79c1.59-5.54-0.07-9.65-0.07-9.65S304.19,96.81,304.46,102.43z"/>
			<path class="st12" d="M259.64,186.82l-2.51,3.58c-0.63-0.33-7.08-4.32-6.93-4.77c0.15-0.45,5.72,1.67,5.72,1.67
				s0.84-1.64,1.05-1.81C257.18,185.34,259.64,186.82,259.64,186.82z"/>
			<path class="st12" d="M277.83,195.46l-1.52,4.1c-0.69-0.17-7.94-2.39-7.91-2.87c0.03-0.48,5.96,0.17,5.96,0.17s0.4-1.8,0.56-2.01
				C275.08,194.64,277.83,195.46,277.83,195.46z"/>
			<path class="st13" d="M317.72,158.1c0,0-18.66-14.83-36.29-9.65c-17.63,5.18-24.45,37.05-24.45,37.05l2.66,1.33
				c0,0,13.69-27,23.11-26.92c9.42,0.08,28.56,4.51,28.56,4.51s-16.1-0.86-27.03,10.27c-6.09,6.2-9.36,20.16-9.36,20.16l2.9,0.61
				c0,0,9.63-17.95,17.31-18.83s25.13-0.81,25.13-0.81S321.75,160.87,317.72,158.1z"/>
			<path class="st13" d="M310.17,153.29c0,0,12.25-3.19,12.74-15.18c0.49-11.99,15.66-10.91,23.13-3.06
				c7.47,7.84,6.05,28.1-25.77,40.77C320.27,175.82,316.1,163.24,310.17,153.29z"/>
			<g>
				<path class="st12" d="M340.56,124.67c0,0,5.97,1.09,6.44-2.75s-3.24-0.8-2.18-4.73s1.19-6.52-4.26-6.44
					c-5.45,0.07-6.31-0.66-8.73-2.83c-2.64-2.36-7.2,8.66-0.45,8.88C338.13,117.02,331.63,127.12,340.56,124.67z"/>
				<path class="st13" d="M340.57,120.39c0,0,0.2-2.72,1.46-2.41c1.26,0.31,2.06,3.02,1.34,3.98
					C342.65,122.92,340.45,122.67,340.57,120.39z"/>
				<path class="st13" d="M332.25,116.9c0,0-2.93,7.43,1.56,8.88c4.49,1.45,3.85-3.39,3.64-2.49c-0.22,0.9-1.42,9.56-1.42,9.56
					s1.93,1.79,6.36-0.57c0,0-1.36-12.15-1.64-18.1C340.62,111.59,334.01,113.92,332.25,116.9z"/>
				<path class="st12" d="M332.09,112.37c0,0-3.61,3.8-0.7,4.43c2.91,0.63,7.27-2.89,8.38-1.65s0.54,4.41,0.8,4.57
					c0.26,0.16-0.11-1.43,1.47-1.74C343.6,117.68,345.4,107.39,332.09,112.37z"/>
				<path class="st12" d="M331.85,124.16c0,0-0.18-2.56,1.29-2.89c1.47-0.33,3.55-0.25,3.53,0.57c-0.02,0.82,0,4.07-1.08,4.1
					C334.51,125.97,331.54,126.16,331.85,124.16z"/>
			</g>
			<path class="st12" d="M336.17,129.53c0,0-2.73,4.94,0,6.27c2.73,1.33,6.22-3.52,6.22-3.52s5.34,0.93,8.44,11.68
				c0,0,1.38,22.75-28.88,31.85c0,0-8-14.21-10.03-23.15c0,0,6.44-4.15,10.51-11.21s3.97-9.15,5.51-10.56
				C329.48,129.5,334.01,128.29,336.17,129.53z"/>
			<path class="st11" d="M311.92,152.68c-0.49-1.79-7.34-3.57-12.63-4.27l-2.11,13.17l10.1,2.54l-10.1,2.07l2.11,10.1
				c0,0,17.43,1.35,22.66-0.46C321.95,175.82,313.43,158.2,311.92,152.68z"/>
			<path class="st12" d="M315.86,134.36c0,0,0.39,7.87,0.59,11.39c0,0,5.33-0.79,10.45-1.78l6.9-14.96
				C333.81,129.02,325.92,128.41,315.86,134.36z"/>
		</g>
		<g>
			<path class="st13" d="M370.69,259.1c0,0-13.82-2-20.18-7.16c-6.25-5.07-6.24-30.51-15.19-35.14c-7.77-4.02-2.41,0.23-0.17,2.49
				c5,5.07,4.4,30.03,7.01,36.16c2.58,6.07,20.49,17.52,26.92,15.77C375.51,269.47,380.98,262.06,370.69,259.1z"/>
			<path class="st13" d="M382.33,262.34c0,0,12.69,10.55,19.22,11.28c6.54,0.72,22.81-14.53,30.09-13.86s-1.43,0.67-3.45,2.17
				c-2.02,1.5-14.02,18.25-23.77,20.75s-24.5-8.1-24.75-10.92S377.58,260.7,382.33,262.34z"/>
			<path class="st12" d="M360.25,373.6l-0.43,4.2c-0.69,0.01-8.01-0.32-8.09-0.77s5.62-1.28,5.62-1.28s-0.06-1.78,0.04-2.02
				C357.47,373.51,360.25,373.6,360.25,373.6z"/>
			<path class="st12" d="M387.29,370.32l2.09,3.67c-0.55,0.41-6.7,4.4-7.03,4.08c-0.33-0.32,3.83-4.31,3.83-4.31
				s-1.08-1.41-1.14-1.67C384.97,371.85,387.29,370.32,387.29,370.32z"/>
			<path class="st13" d="M383.5,306.46c0,0,4.02-37.24-6.43-41.86c-12.66-5.59-14.59,15.73-14.24,17
				c2.34,8.31-2.89,22.83-2.89,22.83L383.5,306.46z"/>
			<path class="st13" d="M366.95,242.55c0,0-3.66,8,1.19,9.86c4.85,1.87,4.44-3.5,4.15-2.52c-0.29,0.98-2.14,10.44-2.14,10.44
				s0.87,7.39,7.04-0.25c0,0-0.77-13.45-0.73-20.02C376.47,237.2,369.07,236.11,366.95,242.55z"/>
			<path class="st13" d="M385.1,313.86c0,0-7.68,18.96-5.31,28.58c1.38,5.6,7.49,27.88,7.49,27.88l-2.26,1.77
				c0,0-12.59-21.45-14.84-28.45s-1.67-26.93-1.67-26.93s-10.79,23.97-11.09,30.25s2.82,26.65,2.82,26.65l-2.87,0.13
				c0,0-10.92-23-9.8-34.87c1.12-11.87,7.46-29.05,7.46-29.05L385.1,313.86z"/>
			<path class="st9" d="M370.56,258.27c0,0,0.53,7.19,6.63,1.8c1.96-1.73,10.81,3.25,9.95,23.1c0,0-11.86,6.19-19.78,3.71
				c-7.92-2.49-8.4-8.33-8.17-8.97C359.43,277.28,365.39,258.26,370.56,258.27z"/>
			<path class="st11" d="M360.06,300.58c0,0,13.14,2.3,23.98,0.67c0,0,3.82,7.35-0.65,23.1c0,0-14.21-0.11-14.24-0.4
				c-0.03-0.29-0.63-7.25-0.63-7.25l-2.52,5.78l-15.29-3.32C350.7,319.16,354.46,305.25,360.06,300.58z"/>
			<path class="st12" d="M367.71,238.28c0,0,1.51-6.69,8.98-6.22c12.4,0.78,7.09,8.65,12.31,9.7c4.86,0.97,5.36-0.88,8.25,3.74
				c2.91,4.65,5.32,0.25,8,3.76c2.68,3.51,0.68,6.85,2.62,6.13c1.94-0.72,5.46-3.59,4,3.68c-1.06,5.25-4.75,7.94-7.84,5.86
				c-3.09-2.08-1.95-3.32-4.78-1.92c-2.83,1.4-5.36,3.85-7.71,0c-2.34-3.85-2.43-4.28-4.79-3.92s-5.7,1.2-9.18-3.14
				s-0.81-9.32-2.99-11.68C372.12,241.63,366.95,242.55,367.71,238.28z"/>
		</g>
		<g>
			<g>
				<path class="st12" d="M167.78,102.95c0,0,3.89-2.7,6.89,0.42s0.15,5.58,3.56,6.21s3.4,3.04,2.54,5.99
					c-1.4,4.84-3.64,4.21-1.64,6.08s2.12,3.04,0.38,4.77c-3.48,3.45-7.44,2.58-10.7,0.91c-2.77-1.41-2.09-0.89-5.68-0.47
					c-4.93,0.58-11.8,1.27-11.55-2.73c0.25-4,2.88-3.41,2.75-6.26c-0.12-2.85-1.81-2.15-1.23-5.66c0.88-5.3,4.41-1.96,5.09-5.91
					C159.02,101.47,164.77,99.42,167.78,102.95z"/>
				<path class="st13" d="M164.77,114.69c0,0-0.09-2.73-1.36-2.47c-1.27,0.26-2.19,2.94-1.5,3.92
					C162.59,117.13,164.8,116.97,164.77,114.69z"/>
				<path class="st13" d="M173.29,109.68c0,0,2.56,9.39-1.99,10.66c-4.54,1.27-3.71-3.54-3.53-2.63s1.04,9.61,1.04,9.61
					s-2.38,2.45-6.72-0.09c0,0,2.23-12.82,2.76-18.75C165.07,105.89,171.65,106.62,173.29,109.68z"/>
			</g>
			<path class="st13" d="M157.43,162.03c0,0-12.34-25.28-6.72-31.01c8.79-8.97,24.13-2.25,24.75-1.22
				c2.52,4.18,3.07,31.63,3.07,31.63L157.43,162.03z"/>
			<path class="st13" d="M151.8,130.02c0,0-24.69,19.76-16.84,30.91c3.94,5.59,35.61,7.22,39.19,12.39
				c1.58,2.27,1.33-2.73-4.08-4.56c-2.77-0.94-28.03-10.43-28.03-13.24s14.01-13.6,14.01-13.6S158.32,130.02,151.8,130.02z"/>
			<path class="st13" d="M174.26,128.45c0,0,9.07,4.67,17.07-2c8-6.67-2.67-24.19,1-32.94c1.19-2.83-0.08,1.5,0.67,6.17
				c0.28,1.77,11.43,24.64,5.17,33.07c-7,9.42-17.16,6.64-17.16,6.64S176.7,135.22,174.26,128.45z"/>
			<path class="st6" d="M160.81,126.41c0,0,3.12,13.09,6.97,12.69c3.85-0.4,6.69-0.08,6.23-3.21c-0.47-3.12-3.29-8.17-3.29-8.17
				s2.37-1.31,4.76,2.07c2.39,3.38,6.09,6.88,5.57,11.76c-0.52,4.88-0.21,4.53-3.49,5.8c-3.57,1.39-23.96,5.3-25.3,3.06
				c-0.35-0.59-0.51-3.47-0.51-3.47s7.5-3.98,7.39-6.57c-0.11-2.59-1.57-13.3-1.57-13.3S158.92,125.68,160.81,126.41z"/>
		</g>
		<g>
			<path class="st13" d="M184.4,260.66c0,0,26.66,3.32,26.41-2.06c-0.25-5.38-14.8-26.66-12.39-33.39c0,0,0.12-3.01,1.83,4.93
				c1.7,7.91,25.98,25.29,19.75,33.65c-6.23,8.36-29.08,10.27-29.08,10.27S183.74,268.31,184.4,260.66z"/>
			<path class="st12" d="M205,373.84l0.04,4.37c0.71,0.08,8.28,0.45,8.41-0.01c0.13-0.46-5.66-1.87-5.66-1.87s0.23-1.83,0.15-2.09
				C207.87,374.02,205,373.84,205,373.84z"/>
			<path class="st12" d="M171.08,373.84l0.04,4.37c0.71,0.08,8.28,0.45,8.41-0.01c0.13-0.46-5.66-1.87-5.66-1.87
				s0.23-1.83,0.15-2.09C173.95,374.02,171.08,373.84,171.08,373.84z"/>
			<path class="st12" d="M170.18,314.94c0,0-11.06-43.08-4.99-49.93c9.5-10.72,25.15-3.01,25.91-1.88
				c3.11,4.62,11.58,50.11,11.58,50.11L170.18,314.94z"/>
			<g>
				<path class="st13" d="M173.66,246.99c0,0-0.58-3.06-1.97-2.54s-1.95,3.69-1.01,4.68C171.62,250.13,174.08,249.56,173.66,246.99z
					"/>
				<path class="st13" d="M182.63,241.97c0,0,4.27,8.04-0.63,10.26s-4.8-3.34-4.44-2.35c0.36,0.99,2.84,10.65,2.84,10.65
					s-1.95,2.28-7.28,0.17c0,0-0.02-13.95-0.46-20.72C172.47,237.02,180.25,238.81,182.63,241.97z"/>
				<path class="st11" d="M171.96,238.96c0,0,0.89-2,3.52-2.37c6.44-0.91,7.48-5.07,8.48-3.3c2.55,4.49-1.45,7.94-4.95,7.7
					c-3.5-0.24-5.46-1.15-6.02,0.32c-0.55,1.47,1.34,4.73,0.39,5.31s-1.28-2.14-1.89-1.01c-0.61,1.13-1.39,3.91,0.59,3.27
					s0.9,2.3,0.11,2.34c-0.79,0.03-3.89-1.79-4.09-5.73C167.98,243.01,167.78,239.97,171.96,238.96z"/>
			</g>
			<path class="st13" d="M160.79,320.06c0,0-1.17-6.66-1.42-16.94c-0.25-10.28-7.46-30.93,7.65-39.89c0,0-0.18,11.58-0.18,13
				s-3.17,19.43-3.17,28.86s1.08,19.45-2.88,20.53V320.06z"/>
			<path class="st13" d="M202.68,313.22c0,0,5.27,19.38,5.27,61.04l-2.94-0.41c0,0-8.46-42.65-15.97-51.49
				c0,0-4.51,24.06-15.01,51.9l-2.94-0.41c0,0,3.77-21.04,3.15-31.46s-4.05-27.55-4.05-27.55S196.54,311.59,202.68,313.22z"/>
			<path class="st3" d="M202.04,309.86c0,0,5.87,22.65,7.01,51.38l-6.37,1.85c0,0-11.49-35.87-13.65-40.73
				c0,0-7.45,34.03-11.76,42.89l-7.09-1.18c0,0,4.36-22.47,3.1-30.8c-1.27-8.34-3.53-20.04-3.53-20.04S200.4,307.45,202.04,309.86z"
				/>
			<path class="st12" d="M155.91,284.18c0,0,9.46,6.63,11.11,5.19c1.64-1.44,7.38-16.44,5.64-20.19s-4.6-6.75-4.6-6.75
				S158.36,266.11,155.91,284.18z"/>
			<path class="st12" d="M183.02,259.91c0,0,14.54,1.46,18.46,0.99c0,0,4.36,12.55,3.52,13.16c-0.84,0.62-14.34,1.94-14.34,1.94
				S183.63,263.59,183.02,259.91z"/>
		</g>
		<g>
			<path class="st13" d="M370.88,126.88c0,0-15.38-3.05-11.21-15.11c4.16-12.05,6.99-28.76,0.4-28.76c0,0,4.27,4.85,0.38,12.03
				s-13.73,21.06-10.59,28.69C353,131.36,366.82,147.05,370.88,126.88z"/>
			<path class="st13" d="M380.81,128.05c0,0,12.32,12.29,23.48,6.12c11.16-6.17,27.54-12.17,30.44-6.26c0,0-6.96-2.85-13.37,2.22
				c-6.41,5.07-18.39,17.15-26.44,15.37C386.87,143.71,374.78,132.74,380.81,128.05z"/>
			<path class="st13" d="M359,175.68c0,0,0.09-40.58,5.45-46.55c8.39-9.34,17.17-1.27,17.5-0.11c5.53,19.39-1.4,43.01-1.4,43.01
				L359,175.68z"/>
			<path class="st12" d="M415.79,207.83l1.8,3.98c0.68-0.21,7.76-2.93,7.69-3.41s-5.93,0.58-5.93,0.58s-0.53-1.76-0.7-1.97
				C418.49,206.83,415.79,207.83,415.79,207.83z"/>
			<path class="st12" d="M423.86,200.66l1.8,3.98c0.68-0.21,7.76-2.93,7.69-3.41c-0.07-0.48-5.93,0.58-5.93,0.58
				s-0.52-1.76-0.7-1.97C426.55,199.66,423.86,200.66,423.86,200.66z"/>
			<path class="st13" d="M359,175.68c0,0,22.55-20.27,33.1-13.09c10.55,7.18,26.55,44.43,26.55,44.43l-2.86,0.81
				c-5.69-6.83-23.72-39.7-28.34-38.46C382.84,170.61,370.19,175.56,359,175.68z"/>
			<path class="st13" d="M383.64,164.52c0,0,22.1-9.65,27.56-2.98c5.46,6.67,15.52,38.31,15.52,38.31l-2.86,0.81
				c0,0-13.39-32.35-19.62-30.8c-39.09,9.71-42.05,1.77-42.05,1.77S372.14,165.33,383.64,164.52z"/>
			<path class="st11" d="M359,175.68c0.51-1.68,19.03-17.02,29.9-15.27c10.87,1.75,23.28,32.73,23.28,32.73l-6.42,3.61
				c0,0-13.9-24.37-16.5-23.76C372.81,176.85,358.53,177.22,359,175.68z"/>
			<g>
				<path class="st13" d="M375.1,114.38c0,0,0.21-2.72,1.47-2.41c1.26,0.31,2.06,3.03,1.33,3.99
					C377.18,116.92,374.98,116.66,375.1,114.38z"/>
				<path class="st13" d="M366.73,108.91c0,0-2.88,9.37,1.6,10.84c4.48,1.47,3.86-3.38,3.64-2.48c-0.22,0.9-1.45,9.56-1.45,9.56
					s1.92,1.8,6.36-0.55c0,0-1.32-12.16-1.59-18.11C375.18,105.58,371.04,105.02,366.73,108.91z"/>
			</g>
			<path class="st6" d="M368.25,103.37c0,0-5.51,2.6-1.52,5.54c3.99,2.94,7.94-0.76,8.63,4.15c0.69,4.91-0.4,8.91,2.81,10.88
				c3.21,1.97,11.46,0.74,11.65,5.05c0.19,4.32,8.71,5.69,10.77,2.34c3.71-6.02-5.34-2.37-3.61-11.11
				c1.73-8.74-10.63-6.86-10.25-11.31S375.66,96.64,368.25,103.37z"/>
			<path class="st11" d="M384.58,162.96c0,0,19.36-8.06,26.53-3.45c7.17,4.62,11.33,28.81,11.33,28.81l-5.78,2.38
				c0,0-9.47-19.85-12.36-19.89s-11.8,1.25-11.8,1.25L384.58,162.96z"/>
			<path class="st3" d="M370.52,125.05c0,0,6.37,11.75,7.77,0.92c0,0-0.29-1.64,3.67,3.04c3.96,4.67,4.62,19.72,3.38,24.18
				c0,0-20,5.6-25.63-1.17c0,0,0.57-15.82,3.96-21.71C366.45,125.47,370.52,125.05,370.52,125.05z"/>
			<path class="st3" d="M391.92,133.72c0,0,0.86,8.64-1.43,10.1c-2.29,1.45-11.43-6.83-11.43-6.83l0.86-10.22
				C379.92,126.76,388.42,132.92,391.92,133.72z"/>
			<path class="st3" d="M361.77,121.09c0,0-9.06,5.02-9.36,6.96c-0.3,1.94,7.37,8.74,9.81,8.94c2.44,0.19,8.29-11.93,8.29-11.93
				S365.2,124.26,361.77,121.09z"/>
		</g>
	</g>
</g>
<g id="DESIGNED_BY_FREEPIK_1_">
</g>
</svg>
