<?xml version="1.0" encoding="utf-8"?>
<!-- Generator: Adobe Illustrator 25.1.0, SVG Export Plug-In . SVG Version: 6.00 Build 0)  -->
<svg version="1.1" xmlns="http://www.w3.org/2000/svg" xmlns:xlink="http://www.w3.org/1999/xlink" x="0px" y="0px"
	 viewBox="0 0 188.92 367.1" style="enable-background:new 0 0 188.92 367.1;" xml:space="preserve">
<style type="text/css">
	.st0{opacity:0.13;fill:#A01877;}
	.st1{fill:#32C686;}
	.st2{fill:#FDBB2B;}
	.st3{fill:#FA9673;}
	.st4{opacity:0.44;fill:#CC4A37;}
	.st5{opacity:0.38;fill:#FAC5E9;}
	.st6{fill:#FAC5E9;}
	.st7{fill:#ED89B8;}
	.st8{fill:#FFC927;}
	.st9{fill:#60B6FF;}
	.st10{fill:#FF9727;}
	.st11{fill:#FF5289;}
	.st12{fill:#CC4A37;}
	.st13{opacity:0.56;fill:#7B52FF;}
	.st14{fill:#7B52FF;}
	.st15{opacity:0.88;fill:#CC4A37;}
	.st16{fill:#231F20;}
	.st17{fill:#84FFCC;}
	.st18{fill:#F7AC86;}
	.st19{clip-path:url(#SVGID_2_);}
	.st20{fill:#AD553D;}
	.st21{fill:#B12B33;}
	.st22{fill:#F06177;}
</style>
<g id="BACKGROUND">
</g>
<g id="OBJECTS_1_">
	<g>
		<ellipse class="st0" cx="89.98" cy="356.09" rx="98.94" ry="11.01"/>
		<path class="st1" d="M118.22,89.14c-4.7,0.34-16.43,25.99-35.45,25.55s-7.25,21.63,1.97,20.08c9.22-1.55,27.21-5.18,34.59-16.87
			C126.72,106.2,127.55,88.46,118.22,89.14z"/>
		<g>
			<path d="M16.46,101.66c-3.68-1.55-6.92-4.55-7.93-8.41c-1.01-3.86,0.7-8.5,4.35-10.11c-3.49-0.04-6.18-3.6-6.32-7.09
				c-0.14-3.49,1.63-6.78,3.71-9.59c2.08-2.81,4.54-5.37,6.14-8.47c1.77-3.44,2.39-7.33,3.54-11.02c1.15-3.69,3.05-7.44,6.44-9.3
				c2.86-1.58,6.45-1.55,9.49-0.35c3.05,1.19,5.59,3.45,7.57,6.05c4.53,5.94,6.28,13.91,4.68,21.21c-0.77,3.52-2.29,7.09-1.42,10.59
				c0.63,2.55,2.45,4.62,3.53,7.01c2.45,5.39,0.57,12.39-4.25,15.83c-2.85,2.04-6.37,2.82-9.79,3.57
				C29.4,103.06,23.21,104.51,16.46,101.66z"/>
			<path class="st2" d="M138.9,160.15c2.68-1.28,7.71-15.74,3.56-18.83c-6.61-4.94-15.81-3.85-33.59-15.56
				c-10.43-6.87-38.49-34.06-42.92-22.99c-1.84,4.61,7.51,31.84,38.03,48.64C112.41,156.05,132.53,163.19,138.9,160.15z"/>
			<g>
				<g>
					<g>
						<path class="st3" d="M29.4,340.06c0.53,0.12,16.95,0.37,16.95,0.29c-0.1-2.74-0.1-44.31,2.88-86.47
							c2.17-30.76,7.19-60.61,8.83-61.75c0-0.01,0.01-0.01,0.01-0.01c0.05-0.04,0.09-0.05,0.12-0.02c1.42,0.38,2.89,35.6,2.52,69.72
							c-0.53,48.43,3.73,78.12,3.97,78.13c0.36,0.01,17.15,0.46,17.31,0.41c-1.36-19.91,0.29-111.52,2.36-137.09
							c1.92-23.67-1.79-35.04-6.11-45.2c-4.23,0.1-37.07-2.62-39.02-0.7C19.01,177.21,27.08,302.21,29.4,340.06z"/>
						<path class="st4" d="M35.26,310.85c3.8,0.55,7.6,0.84,11.39,0.96c0.36-15.99,1.11-36.89,2.59-57.94
							c2.17-30.76,7.19-60.61,8.83-61.75c0-0.01,0.01-0.01,0.01-0.01c0.05-0.04,0.09-0.05,0.12-0.02c1.42,0.38,2.89,35.6,2.52,69.72
							c-0.22,19.97,0.38,36.74,1.17,49.57c6.56-0.54,13.09-1.46,19.62-2.49c0.11-35.45,1.37-87.36,2.85-105.62
							c1.92-23.67-1.79-35.04-6.11-45.2c-4.23,0.1-37.07-2.62-39.02-0.7C22.95,173.34,25.01,257.46,27.64,309.4
							C30.16,309.99,32.7,310.48,35.26,310.85z"/>
					</g>
					<g>
						<path d="M63.01,347.23c-0.14,1.27-0.17,2.44-0.05,3.34c0.01,0.04,0.01,0.08,0.02,0.12c0.13,0.99,0.44,1.66,0.91,1.79
							c1.91,0.61,31.27,0.42,32.14-0.09c0.43-0.25,0.61-0.81,0.66-1.36c0.05-0.56-0.03-1.11-0.13-1.3
							c-2.67-5.38-13.16-6.68-13.09-8.23c0.06-1.4,0.39-8.68-0.76-9.67c-2.32-1.99-20.88-2.16-20.63,1.14
							C62.44,337.81,63.38,344.11,63.01,347.23z"/>
						<path class="st5" d="M62.97,350.69c0.13,0.99,0.44,1.66,0.91,1.79c1.91,0.61,31.27,0.42,32.14-0.09
							c0.43-0.25,0.61-0.81,0.66-1.36c-3.29,0.14-13.12,0.52-18.12,0.39C73.94,351.3,66.32,350.89,62.97,350.69z"/>
					</g>
					<g>
						<path d="M27.04,347.23c-0.14,1.27-0.17,2.44-0.05,3.34c0.01,0.04,0.01,0.08,0.02,0.12c0.13,0.99,0.44,1.66,0.91,1.79
							c1.91,0.61,31.27,0.42,32.14-0.09c0.43-0.25,0.61-0.81,0.66-1.36c0.05-0.56-0.03-1.11-0.13-1.3
							c-2.67-5.38-13.16-6.68-13.09-8.23c0.07-1.47,1.36-8.59,0.02-9.52c-4.76-3.29-20.76-2.97-20.61,0.43
							C27.14,337.27,27.41,344.11,27.04,347.23z"/>
						<path class="st5" d="M27,350.69c0.13,0.99,0.44,1.66,0.91,1.79c1.91,0.61,31.27,0.42,32.14-0.09
							c0.43-0.25,0.61-0.81,0.66-1.36c-3.29,0.14-13.12,0.52-18.12,0.39C37.97,351.3,30.35,350.89,27,350.69z"/>
					</g>
				</g>
				<g>
					<path class="st6" d="M103.75,293.85c-0.04,0.29-0.08,0.57-0.13,0.84c-0.23,1.39-0.54,2.52-0.88,3.64
						c-2.22,7.18-55.31,8.96-80.43,5.33c-0.25-0.04-0.5-0.08-0.75-0.11c-7.5-1.15-12.32-2.8-12.19-4.96c0.11-1.9,0.15-4.2,0.16-6.96
						c0.01-0.18,0.01-0.37,0.01-0.56c0.03-12.13-0.51-32.81,1.11-66.61c2.33-48.85,18.54-73.66,25.33-77.76
						c8.45-5.1,18.82-6.91,33.49-4.18c10.28,1.91,28.05,12.68,29.21,40.88c0.77,18.76,0.53,59.72,4.06,88.86
						C104.18,284.15,104.26,290,103.75,293.85z"/>
					<path class="st7" d="M103.75,293.85c-0.04,0.29-0.08,0.57-0.13,0.84c-2.62,0.44-5.26,0.86-7.9,1.24
						c-8.03,1.18-16.11,2.07-24.22,2.54c-7.93,0.46-15.88,0.51-23.81,0.04c-7.78-0.46-15.54-1.42-23.18-2.97
						c-0.45-0.09-0.91-0.19-1.37-0.29c-0.24,2.81-0.51,5.61-0.83,8.41c-0.25-0.04-0.5-0.08-0.75-0.11c0.3-2.82,0.56-5.64,0.81-8.46
						c-4.33-0.95-8.62-2.1-12.84-3.46c0.01-0.18,0.01-0.37,0.01-0.56c4.24,1.33,8.54,2.46,12.88,3.4c0.39-4.7,0.72-9.41,0.96-14.13
						c0.61-11.64,0.86-23.3,1.17-34.95c0.31-11.64,0.67-23.28,1.5-34.9c0.83-11.44,2.1-22.85,4.2-34.13
						c1.81-9.7,3.98-20.07,10.72-27.66c0.16-0.18,0.43,0.09,0.27,0.27c-0.84,0.98-1.62,2-2.33,3.08
						c-5.73,8.68-7.43,19.53-9.04,29.61c-1.84,11.49-2.87,23.1-3.51,34.71c-0.63,11.53-0.91,23.07-1.19,34.6
						c-0.28,11.54-0.59,23.09-1.31,34.61c-0.19,3.02-0.41,6.04-0.66,9.06c1.36,0.29,2.73,0.56,4.11,0.81
						c15.52,2.82,31.4,3.23,47.11,2.1c8.16-0.59,16.28-1.59,24.35-2.86C100.43,294.43,102.1,294.15,103.75,293.85z"/>
				</g>
			</g>
			<g>
				<g>
					<path class="st8" d="M39.71,149.8c10.55,4.84,32.63,2.2,38.17-1.88c4.81-3.54,7.77-11,8.68-18.02
						c0.9-7.01-7.94-23.63-11.9-27.16c-2.87-2.58-6.08-4.09-11.16-5.04c-0.28-0.05-0.57-0.11-0.86-0.15
						c-2.46-0.41-5.35-0.7-8.81-0.93c-3.74-0.25-8.32,0.38-12.81,1.5c-0.22,0.05-0.43,0.11-0.65,0.16
						c-8.85,2.3-16.28,6.66-17.55,9.19C18.84,115.41,22.31,141.81,39.71,149.8z"/>
				</g>
			</g>
			<g>
				<path class="st3" d="M28.99,217.54c-3.47-4.75-4.68-10.31-5.75-15.92c-1.7,0.49-3.41,0.9-5.14,1.26
					c-2.56,0.53-5.14,0.94-7.72,1.35c-0.99,0.16-1.98,0.33-2.97,0.5c0.38,2.09,0.79,4.17,1.27,6.23c1.59,6.81,2.47,13.94,4.83,20.53
					c1.35,3.78,2.47,3.96,2.17,1.09c-0.28-2.74-1.06-5.75-0.53-5.86c0.27-0.06,0.41,2.22,1.52,5.16c1.29,3.41,2.55,5.94,3.59,5.24
					c1.04-0.69-1-7.95-1.34-10.39c-0.72-2.31,2.41,5.95,4.43,8.68c2.03,3.13,3.98,2.83,2.23-1.36c-1.66-4.25-2.76-7.49-2.64-8.7
					c0.83,0.78,1.31,1.98,4.02,6.45c2.16,3.25,3.88,2.34,2.51-1.15c-1.68-4.2-4.99-10.14-3.84-11.12c1.07-0.28,1.61,1.39,5.16,3.51
					C34.4,225.16,31.29,220.84,28.99,217.54z"/>
				<path class="st2" d="M7.5,210.76c2.32,2.21,17.52,0.3,18.48-5.65c1.54-9.49-3.47-18.71-0.74-43.46
					c1.6-14.51,13.74-57.94,1.85-57.09c-4.95,0.35-25.32,23.93-27.04,64.75C-0.42,180.58,1.98,205.52,7.5,210.76z"/>
				<g>
					<path class="st9" d="M11.39,213.18c-0.15-1.06-1.09-1.85-2.12-1.83c-1.02,0.01-1.86,0.8-1.85,1.84
						c0.01,1.04,0.97,1.97,2.14,1.97C10.73,215.17,11.54,214.24,11.39,213.18z"/>
					<path class="st1" d="M15.26,212.63c-0.28-1.06-1.29-1.73-2.29-1.58c-0.99,0.15-1.71,1.07-1.58,2.13
						c0.13,1.06,1.18,1.87,2.33,1.71C14.86,214.74,15.54,213.69,15.26,212.63z"/>
					<path class="st8" d="M18.98,211.56c-0.4-1.04-1.48-1.59-2.43-1.3c-0.95,0.29-1.55,1.32-1.29,2.37
						c0.26,1.06,1.38,1.74,2.48,1.43C18.84,213.75,19.38,212.59,18.98,211.56z"/>
					<path class="st10" d="M22.51,209.98c-0.52-1-1.65-1.42-2.55-1c-0.9,0.42-1.36,1.54-0.98,2.58c0.38,1.04,1.57,1.58,2.61,1.13
						C22.64,212.23,23.03,210.98,22.51,209.98z"/>
					<g>
						<path class="st11" d="M25.8,207.91c-0.64-0.95-1.8-1.22-2.64-0.68c-0.84,0.54-1.15,1.74-0.65,2.75c0.5,1.01,1.74,1.4,2.71,0.8
							C26.2,210.17,26.44,208.85,25.8,207.91z"/>
					</g>
				</g>
			</g>
			<g>
				<path class="st3" d="M46.25,85.15l-0.72,8.55l-0.54,6.42c0,0,2.38,4.31,11.67,4.42c9.29,0.11,7.23-3.95,7.23-3.95l0.3-3.56
					l0.96-11.42L46.25,85.15z"/>
				<path class="st12" d="M46.25,85.15l-0.22,2.62c-0.04,0.42,0.74,1.38,0.98,1.75c3.13,4.8,8.97,6.95,14.52,6.65
					c0.86-0.05,1.82-0.13,2.76-0.29l0.86-10.26L46.25,85.15z"/>
			</g>
			<path class="st3" d="M83.35,51.65c2.92,18.11-3.04,38.49-18.56,40.98c-15.52,2.49-29.65-11.27-33.47-29.21
				c-3.82-17.94,4.13-33.27,19.65-35.76C66.5,25.17,80.15,31.76,83.35,51.65z"/>
			<g>
				<path class="st12" d="M71.35,71.9c-0.57,0.13-1.14,0.49-1.67,0.74c-0.59,0.27-1.21,0.5-1.83,0.69c-1.23,0.38-2.51,0.54-3.79,0.5
					c-1.2-0.03-2.4-0.27-3.53-0.66c-0.59-0.2-1.16-0.45-1.71-0.73c-0.5-0.25-1-0.63-1.56-0.76c-0.29-0.07-0.45,0.27-0.32,0.5
					c0.3,0.53,0.93,0.88,1.43,1.19c0.58,0.36,1.21,0.65,1.85,0.9c1.24,0.47,2.53,0.73,3.85,0.8c1.39,0.07,2.78-0.12,4.11-0.51
					c0.67-0.19,1.29-0.46,1.91-0.78c0.59-0.3,1.31-0.69,1.69-1.26C72,72.18,71.74,71.81,71.35,71.9z"/>
				<path class="st12" d="M62.98,61.27c0.08-0.67,0.26-1.53,0.67-2.08c0.2-0.26,0.62-0.09,0.65,0.21c0.06,0.73-0.17,1.5-0.18,2.23
					c-0.01,0.76,0.01,1.53,0.14,2.28c0.12,0.72,0.31,1.5,0.65,2.15c0.09,0.17,0.28,0.51,0.5,0.49c0.24-0.02,0.5-0.4,0.68-0.55
					c0.96-0.8,2.36-0.42,2.99,0.61c0.75,1.22,0.28,2.62-0.18,3.85c-0.12,0.32-0.67,0.15-0.58-0.19c0.19-0.73,0.4-1.52,0.26-2.28
					c-0.12-0.64-0.57-1.35-1.31-1.26c-0.56,0.07-0.86,0.73-1.38,0.94c-0.56,0.22-1.14,0.06-1.57-0.35c-0.96-0.9-1.24-2.66-1.37-3.9
					C62.88,62.7,62.89,61.99,62.98,61.27z"/>
				<g>
					<path d="M48.45,62.86c0.8-0.64,1.81-1.04,2.83-1.11c1.95-0.13,4.14,0.94,4.77,2.88c0.11,0.32-0.29,0.54-0.51,0.29
						c-1.03-1.19-2.49-2.12-4.12-1.94c-0.76,0.08-1.48,0.4-2.08,0.87c-0.31,0.24-0.58,0.53-0.82,0.83c-0.24,0.3-0.46,0.67-0.74,0.94
						c-0.25,0.24-0.75,0.19-0.78-0.23C46.93,64.39,47.72,63.44,48.45,62.86z"/>
					<path d="M76.7,59.77c-0.73-0.47-1.57-0.67-2.35-0.54c-1.5,0.25-2.95,1.72-3.05,3.74c-0.02,0.34,0.33,0.48,0.44,0.18
						c0.55-1.36,1.48-2.55,2.74-2.69c0.59-0.07,1.19,0.11,1.74,0.46c0.28,0.18,0.54,0.4,0.78,0.65c0.24,0.25,0.48,0.57,0.74,0.77
						c0.24,0.19,0.61,0.04,0.55-0.37C78.15,60.98,77.36,60.19,76.7,59.77z"/>
				</g>
				<path d="M57.03,50.99c0.52-0.02,1.15-0.07,1.39-0.54c0.18-0.35,0.03-0.79-0.25-1.06c-0.28-0.27-0.66-0.4-1.03-0.51
					c-3.99-1.12-8.6,0.51-11,3.89c-0.33,0.47-0.63,1-0.6,1.57c0.09,1.62,1.26,0.58,1.89,0.09c0.91-0.71,1.9-1.31,2.94-1.81
					C52.45,51.63,54.73,51.06,57.03,50.99z"/>
				<path d="M70.15,50.31c-0.43,0.1-0.95,0.19-1.21-0.21c-0.19-0.3-0.14-0.77,0.05-1.09c0.19-0.33,0.48-0.54,0.76-0.73
					c3.08-2,7.06-1.43,9.49,1.35c0.34,0.38,0.66,0.84,0.71,1.41c0.16,1.61-0.94,0.85-1.52,0.52c-0.84-0.49-1.73-0.86-2.65-1.11
					C73.97,49.91,72.04,49.86,70.15,50.31z"/>
			</g>
			<g>
				<path d="M83.5,52.63c-2.02-0.11-2.61-9.91-5.57-11.21c-3.91-1.72-5.35-6.9-6.95-10.87c0.39,2.28,0.1,4.79-1.37,6.57
					c-1.48,1.77-4.33,2.48-6.18,1.1c-1.13-0.83-1.71-2.26-1.83-3.66c-0.13-1.39,0.13-2.8,0.4-4.18c-1.7,6.56-7.06,12.04-13.57,13.88
					c-1.64,0.46-3.45,0.69-4.98-0.05c-0.77-0.37-1.41-1.07-1.72-1.86c-0.42,3.71-2.22,7.28-5.02,9.77c-1.4,1.24-3.15,2.45-3.37,4.3
					c-0.16,1.42,0.66,2.76,1.5,3.92s1.77,2.37,1.86,3.8c0.1,1.42-1.11,3.02-2.51,2.71c-1.26-0.29-1.75-1.78-2.15-3.01
					c-0.4-1.23-1.32-2.65-2.59-2.41c-0.13,0.16-0.25,0.33-0.38,0.49c-1.1,1.46-4.25,0.43-5.42-0.97c-1.18-1.4-1.64-3.26-1.93-5.06
					c-1.01-6.28-0.37-12.95,2.31-18.67c0.62-1.34,1.36-2.62,2.21-3.84c0.52-0.74,1.08-1.45,1.69-2.13
					c4.63-5.19,11.64-8.36,18.52-7.48c3.51-3.62,9.21-4.11,14.15-3.1c7.18,1.45,13.77,5.62,18.17,11.48
					C83.16,38,85.53,52.74,83.5,52.63z"/>
				<path class="st13" d="M40.05,39.68c0.03,1.04-0.41,2.04-0.85,2.99c-0.34,0.75-0.71,1.53-1.37,2c-0.67,0.48-1.73,0.52-2.21-0.15
					c-0.77-1.04,0.3-2.97-0.82-3.61c-1.08-0.61-2.21,1.13-3.44,0.94c-1.11-0.18-1.31-1.71-1.11-2.82c0.2-1.11,0.41-2.51-0.53-3.14
					c-0.74-0.49-1.75-0.15-2.5,0.33c-0.76,0.48-1.49,1.11-2.39,1.15c-0.28,0.01-0.55-0.04-0.8-0.15c0.62-1.34,1.36-2.62,2.21-3.84
					c0.52-0.74,1.08-1.45,1.69-2.13c0.05,0.25,0.16,0.48,0.35,0.68c0.76,0.78,2.06,0.32,3.01-0.2c0.95-0.51,2.21-1.03,3.02-0.31
					c0.86,0.75,0.42,2.14-0.05,3.19c-0.47,1.04-0.8,2.51,0.16,3.14c1.12,0.74,2.56-0.59,3.89-0.38
					C39.34,37.53,40.01,38.63,40.05,39.68z"/>
			</g>
			<g>
				<path class="st3" d="M38.29,76.19c-0.21,3.45-4.39,5.71-8.65,3.72c-4.26-1.99-8.88-10.07-7.3-15.49
					c1.58-5.42,8.42-4.89,12.13,0.16C37.28,68.4,38.45,73.5,38.29,76.19z"/>
				<circle class="st8" cx="32.44" cy="80.31" r="2.36"/>
				<path class="st12" d="M25.55,66.99c-0.18-0.13-0.19-0.45,0-0.56c0.79-0.46,1.89-0.07,2.71,0.26c0.91,0.36,1.79,0.88,2.57,1.54
					c1.58,1.35,2.88,3.32,3.35,5.52c0.09,0.41-0.43,0.67-0.6,0.26c-0.8-1.87-1.83-3.57-3.31-4.8c-0.2-0.17-0.41-0.3-0.62-0.44
					c-0.04,0.12-0.1,0.23-0.15,0.34c-0.08,0.2-0.17,0.39-0.25,0.59c-0.17,0.4-0.29,0.83-0.4,1.26c-0.22,0.87-0.27,1.81-0.55,2.66
					c-0.05,0.16-0.29,0.24-0.36,0.03c-0.37-0.99-0.2-2.06,0.04-3.03c0.12-0.49,0.3-0.96,0.5-1.41c0.1-0.22,0.2-0.43,0.32-0.63
					c0.06-0.09,0.11-0.18,0.17-0.26c-0.32-0.18-0.63-0.35-0.97-0.48C27.2,67.52,26.27,67.5,25.55,66.99z"/>
			</g>
			<g>
				<path class="st14" d="M25,96.98c1.07-2.73,3.4-4.93,6.19-5.84c2.79-0.9,5.97-0.49,8.44,1.09c1.92,1.23,3.46,3.45,2.99,5.68
					c-0.43,2.05-2.37,3.39-4.25,4.31c-3.78,1.84-11.1,4.97-13.5-0.41C24.18,100.29,24.41,98.49,25,96.98z"/>
				<path d="M59.9,118.99c0.55-3.17-1-6.6-3.75-8.29c-2.04-1.26-4.5-1.53-6.59-2.67c-2.12-1.16-3.28-3.55-4.17-5.69
					c-1.45-3.49-2.87-7.24-7.14-7.65c-2.43-0.24-5.05,0.27-7.22,1.39c-1.38,0.71-2.49,1.73-3.2,3.13c-0.86,1.7-0.56,3.53-0.95,5.34
					c-0.42,1.94-1.82,2.92-2.82,4.5c-1.35,2.12-1.37,5-0.05,7.14c1.31,2.14,3.9,3.42,6.4,3.18c-2.82,1.55-4.47,4.99-3.92,8.17
					c0.55,3.17,3.27,5.85,6.45,6.36c1.73,0.28,3.5-0.04,5.25,0.08c1.75,0.11,3.65,0.81,4.4,2.39c1.03,2.17-0.91,4.9-3.29,5.27
					c-2.37,0.37-4.72-1.07-6.18-2.98c-0.5,2.41,1.09,4.92,3.28,6.05c2.19,1.14,4.81,1.12,7.22,0.61c5.64-1.2,10.65-5.07,13.23-10.22
					c0.92-1.83,1.55-3.93,1.09-5.93c-0.46-2-2.29-3.78-4.33-3.61C56.75,124.88,59.35,122.16,59.9,118.99z"/>
			</g>
		</g>
		<g>
			<g>
				<path d="M170.55,207.82c-0.6-16.75-2.37-32.23-5.96-44.52c-0.07-0.24-0.14-0.48-0.21-0.71c-0.21-0.69-0.42-1.37-0.64-2.04
					c-0.06-0.19-0.13-0.38-0.19-0.57c-2.28-6.81-5.18-12.46-8.8-16.59c-8.4-0.25-16.79-0.61-25.18-1.25
					c-3.32-0.25-6.63-0.57-9.94-0.93c-0.17,0.16-0.33,0.31-0.49,0.48c-4.37,4.39-7.52,10.19-9.72,16.52
					c-0.09,0.25-0.18,0.5-0.26,0.76c-5.06,15.13-4.88,33.12-3.25,42.54c0.32,1.84,0.68,4,1.06,6.42c2.89,18.51,7.09,51.87,7.2,69.24
					c0.12,18.31,0.72,44.7-0.41,63c1.61,0.13,17.17,0.08,17.57,0.07c0.26-0.01,8.05-35.02,7.6-83.11
					c-0.17-18.04-2.11-35.27-3.7-47.76c-1.48-11.63-2.65-19.14-1.79-19.35c0.04-0.04,0.08-0.03,0.15,0.02c0,0,0.01,0,0.01,0.01
					c0.92,0.59,2.95,8.16,4.96,19.31c2.42,13.46,4.84,32.17,5.29,50.14c0.98,39.95,0.31,78.97,0.18,81.45
					c2.11,0.34,6.24,1.31,12.99,0.89h0.02c0.18-0.01,0.35-0.02,0.53-0.04c0.14,0,0.27-0.01,0.41-0.03c1.18-0.09,3.01-0.96,3.59-1.07
					C163.75,318.43,172.33,257.52,170.55,207.82z"/>
				<g>
					<path class="st1" d="M133.18,347.09c0.14,1.27,0.17,2.44,0.05,3.34c-0.01,0.04-0.01,0.08-0.02,0.12
						c-0.14,0.99-0.44,1.66-0.91,1.79c-1.91,0.61-31.27,0.42-32.14-0.09c-0.43-0.25-0.61-0.81-0.66-1.36
						c-0.05-0.56,0.03-1.11,0.13-1.3c2.67-5.38,13.16-6.68,13.09-8.23c-0.17-3.56,4.84-3.32,9.76-3.76
						c4.33-0.39,9.48-1.16,9.89,0.68C133.38,343.04,132.8,343.97,133.18,347.09z"/>
					<path class="st15" d="M133.21,350.55c-0.14,0.99-0.44,1.66-0.91,1.79c-1.91,0.61-31.27,0.42-32.14-0.09
						c-0.43-0.25-0.61-0.81-0.66-1.36c3.29,0.14,13.12,0.52,18.12,0.39C122.25,351.16,129.86,350.75,133.21,350.55z"/>
				</g>
				<g>
					<path class="st1" d="M163.4,347.73c0.14,1.27,0.17,2.44,0.05,3.34c-0.01,0.04-0.01,0.08-0.02,0.12
						c-0.13,0.99-0.44,1.66-0.91,1.79c-1.91,0.61-31.27,0.42-32.14-0.09c-0.43-0.25-0.61-0.81-0.66-1.36
						c-0.05-0.56,0.03-1.11,0.13-1.3c2.67-5.38,13.16-6.68,13.09-8.23c-0.16-3.39,4.94-3.24,9.63-3.8c4.56-0.54,9.34-1.57,9.77,0.36
						C163.36,343.32,163.03,344.61,163.4,347.73z"/>
					<path class="st15" d="M163.43,351.19c-0.13,0.99-0.44,1.66-0.91,1.79c-1.91,0.61-31.27,0.42-32.14-0.09
						c-0.43-0.25-0.61-0.81-0.66-1.36c3.29,0.14,13.12,0.52,18.12,0.39C152.47,351.8,160.09,351.39,163.43,351.19z"/>
				</g>
				<g>
					<path class="st14" d="M172.51,207.69c-0.66,0.04-1.31,0.08-1.96,0.13c-0.89,0.05-1.78,0.11-2.67,0.17
						c-1.03,0.07-2.05,0.13-3.08,0.21c-0.14,0.01-0.28,0.02-0.42,0.03c-0.05,0-0.11,0.01-0.16,0.01c-0.29,0.01-0.57,0.03-0.86,0.06
						c-5.2,0.35-10.39,0.7-15.59,0.95c-1.12,0.05-4.69,0.1-9.21,0.11c-1.06,0.01-2.18,0.01-3.33,0.01
						c-8.43-0.01-18.63-0.15-22.88-0.64c-1.79-0.2-3.59-0.46-5.38-0.8c-0.95-0.16-1.9-0.35-2.84-0.56c-0.11-0.61-0.21-1.2-0.31-1.76
						c-1.73-10.06-1.92-29.26,3.47-45.41c0.08-0.28,0.18-0.54,0.28-0.81c2.34-6.76,5.7-12.95,10.35-17.63
						c0.21-0.21,0.41-0.41,0.62-0.6c0.15-0.15,0.31-0.3,0.46-0.44c0.25,0,0.63,0.01,1.12,0.03c2.37,0.11,7.28,0.5,12.7,0.91
						c0.29,0.02,0.57,0.04,0.85,0.06c0.56,0.05,1.11,0.09,1.67,0.13c0.24,0.01,0.5,0.03,0.74,0.05c1.87,0.14,3.75,0.26,5.55,0.38
						c0.19,0.01,0.38,0.02,0.57,0.03h0.08c0.19,0.02,0.37,0.03,0.55,0.04c1.95,0.12,3.79,0.23,5.43,0.29c0.29,0,0.57,0.01,0.84,0.02
						c0.43,0.02,0.85,0.03,1.25,0.04h0.66c1.29,0.03,2.34,0,3.08-0.07c0.35-0.03,0.64-0.07,0.84-0.13
						c4.3,4.49,7.69,10.91,10.32,18.78c0.06,0.2,0.14,0.4,0.2,0.61c0.05,0.15,0.1,0.3,0.15,0.46c0.07,0.23,0.15,0.47,0.23,0.71
						C169.66,175.33,171.69,190.81,172.51,207.69z"/>
					<path class="st16" d="M164.8,208.2c-0.14,0.01-0.28,0.02-0.42,0.03c-0.01-3.96-0.15-7.91-0.45-11.86
						c-0.82-10.77-2.73-21.46-5.68-31.85c-2.02-0.21-4.09-1.26-5.74-2.37c-3.35-2.24-5.87-5.55-7.49-9.21
						c-0.91-2.07-1.57-4.24-2.04-6.45c-0.24-1.12-0.43-2.25-0.59-3.38c-0.04-0.26-0.08-0.53-0.11-0.8c0.19,0.02,0.37,0.03,0.55,0.04
						c0.03,0.36,0.07,0.71,0.12,1.06c0.18,1.21,0.39,2.4,0.67,3.59c0.95,4.12,2.6,8.14,5.39,11.36c1.24,1.44,2.68,2.72,4.3,3.72
						c0.81,0.49,1.66,0.92,2.54,1.27c0.74,0.29,1.5,0.47,2.27,0.68c-0.08-0.25-0.14-0.51-0.22-0.77
						c-2.05-7.01-4.57-13.89-7.55-20.56h0.45c0.93,2.08,1.81,4.18,2.65,6.29c1.96,4.97,3.67,10.05,5.13,15.19
						c0.09,0.06,0.11,0.17,0.08,0.26c1.6,5.67,2.9,11.42,3.88,17.23C164.01,190.41,164.83,199.32,164.8,208.2z"/>
				</g>
			</g>
			<g>
				<path class="st17" d="M114.49,91.84c1.69-3.41,16.08-12.56,27.45-13.41c11.37-0.85,30.77,12.25,31.41,17.04
					c0.65,4.79-6.92,41.93-17.43,47.56c-10.51,5.63-34.34,0.46-37.11-2.36c-2.77-2.82-8.61-12.11-9.52-20
					C108.39,112.79,111.94,96.99,114.49,91.84z"/>
				<g>
					<path class="st18" d="M148.12,63.07l1.4,11.35l1.05,8.53c0,0-0.6,5.14-9.59,6.03c-8.98,0.89-8.67-3.89-8.67-3.89l-0.59-4.72
						l-1.87-15.16L148.12,63.07z"/>
					<path class="st12" d="M144.28,75.62c-1.16,0.77-2.38,1.47-3.72,2.02c-1.96,0.82-4.16,1.34-6.32,1.36
						c-0.84,0.01-1.78-0.03-2.69-0.17l-1.68-13.62l18.25-2.14l0.84,6.78C147.83,72.08,146.19,74.02,144.28,75.62z"/>
					<path class="st1" d="M129.38,82.65c-0.29-0.78-0.57-1.69-0.13-2.4c0.6-0.99,2.05-0.84,3.19-0.67
						c5.97,0.89,12.31-1.15,16.65-5.34c0.59-0.57,1.39-1.22,2.12-0.86c0.59,0.29,0.71,1.07,0.76,1.72c0.16,2.13,0.31,4.25,0.47,6.38
						c0.06,0.86,0.12,1.75-0.15,2.57c-0.33,0.99-1.09,1.76-1.89,2.43c-2.71,2.27-6.11,3.66-9.61,4.1c-2.27,0.28-7.88,0.66-9.18-1.71
						C130.61,87.03,130.11,84.62,129.38,82.65z"/>
				</g>
			</g>
			<g>
				<path class="st3" d="M96.13,167.64c-4.08,0.61-9.56,2.66-12.26,4.32c-2.87,1.66-3.7,1.21-1.9-0.86c1.75-1.9,4.23-3.07,4.04-3.56
					c-0.1-0.24-1.78,0.91-4.23,2.31c-2.85,1.62-4.94,3.39-5.34,2.12c-0.53-1.51,5.34-6.57,7.52-7.56c2.1-1.14-5.81,2.04-8.75,4.12
					c-3.24,2.15-4.7,0.9-0.75-2.66c4-3.36,7.35-4.7,8.29-5.67c-1.13,0.02-2.49,0.04-7.71,2.58c-3.84,2.11-4.64,0.25-0.92-2.71
					c4.53-3.6,12.14-4.46,12.52-5.83c-0.31-1.06-2.2-0.83-6.58-2c-4.52-0.96,1.98-2.59,6.9-2.1c5.04,0.36,10.68,0.72,14.38,2.32
					c4.9,2.12,7.43,3.23,7.25,7.32c-0.05,2.47,0.1,6.39-2.51,7.35C104.02,167.87,99.76,166.74,96.13,167.64z"/>
				<path class="st1" d="M172.82,94.12c-5.77-10.55-17.85-1.31-20.32,8.35c-2.11,8.27-9.25,29.04-17.52,36
					c-5.95,5-30.75,10.93-33.17,13.03c-4.85,4.19-3.09,16.92,1.82,17.72c8.33,1.36,36.9-2.52,50.13-13.53
					C166.99,144.68,177.38,102.47,172.82,94.12z"/>
				<g>
					<path class="st14" d="M166.84,133.36c-0.25,1.03-0.42,2.19,0.14,3.1c0.38,0.62,1.03,1,1.66,1.37c2.54,1.48,5.08,2.95,7.62,4.43
						c0.2-2.35,0.05-4.73-0.45-7.03c-0.28-1.29-0.67-2.58-1.37-3.7c-0.7-1.12-1.74-2.08-3-2.47c-1.06-0.34-2.16-0.17-3.05,0.5
						c-0.57,0.42-0.73,1.08-0.94,1.72C167.22,131.96,167.01,132.66,166.84,133.36z"/>
					<path class="st10" d="M171.75,131.67c1,0.36,2.14,0.65,3.1,0.2c0.65-0.31,1.11-0.92,1.54-1.5c1.74-2.37,3.48-4.73,5.23-7.1
						c-2.31-0.45-4.69-0.56-7.04-0.31c-1.32,0.14-2.64,0.39-3.83,0.96c-1.19,0.57-2.25,1.5-2.78,2.71c-0.45,1.02-0.4,2.13,0.17,3.09
						c0.36,0.61,0.99,0.84,1.61,1.12C170.4,131.14,171.06,131.42,171.75,131.67z"/>
					<path class="st11" d="M169.07,132.22c0.67,0.11,1.33-0.22,1.94-0.53c0.76-0.4,1.59-0.88,1.8-1.71c0.2-0.76-0.2-1.54-0.59-2.23
						c-0.44-0.79-1.03-1.67-1.93-1.74c-0.53-0.04-1.04,0.23-1.47,0.55c-0.8,0.6-1.97,1.79-1.83,2.89
						C167.13,130.53,167.88,132.03,169.07,132.22z"/>
					<g>
						<defs>
							<path id="SVGID_1_" d="M144.39,128.41c-0.81-0.32-1.63-0.68-2.22-1.28c-0.6-0.6-0.93-1.5-0.6-2.31
								c0.35-0.89,1.39-1.47,1.65-2.38c0.21-0.77-0.19-1.52-0.49-2.23s-0.43-1.64,0.17-2.22c0.56-0.53,1.49-0.49,2.13-0.94
								c0.82-0.57,0.85-1.67,0.85-2.61c0.01-0.93,0.21-2.07,1.14-2.46c0.72-0.3,1.51,0.03,2.18,0.36c6.86,3.4,13.42,7.3,19.6,11.65
								c0.53,0.37,1.11,0.83,1.13,1.47c0.02,0.47-0.28,0.91-0.43,1.37c-0.22,0.68-0.14,1.39-0.06,2.07
								c0.07,0.69,0.12,1.41-0.16,2.07c-0.61,1.41-2.11,1.37-3.41,1.39c-1.81,0.02-3.61-0.05-5.41-0.2
								c-3.54-0.29-7.02-0.91-10.4-1.85C148.12,129.79,146.23,129.15,144.39,128.41z"/>
						</defs>
						<clipPath id="SVGID_2_">
							<use xlink:href="#SVGID_1_"  style="overflow:visible;"/>
						</clipPath>
						<g class="st19">
							<polygon class="st8" points="143.28,116.04 171.82,128.56 171.2,130.03 142.16,119.32 							"/>
							<polygon class="st10" points="144.42,112.7 172.44,127.08 171.82,128.56 143.28,116.04 							"/>
							<polygon class="st11" points="145.58,109.32 173.06,125.59 172.44,127.08 144.42,112.7 							"/>
							<polygon class="st9" points="141.05,122.56 170.59,131.48 169.98,132.93 139.96,125.75 							"/>
							<polygon class="st14" points="139.95,125.8 169.97,132.95 169.37,134.39 138.87,128.94 							"/>
							<polygon class="st1" points="142.16,119.32 171.2,130.03 170.59,131.48 141.05,122.56 							"/>
						</g>
					</g>
				</g>
			</g>
			<g>
				<path class="st18" d="M109.15,36.36c0.05,19.09,9.6,39.03,25.96,38.97c16.36-0.06,28.57-16.57,29.47-35.64
					c0.9-19.07-9.84-33.48-26.2-33.42C122.02,6.32,109.1,15.38,109.15,36.36z"/>
				<g>
					<g>
						<path d="M117.75,47.48c0.1,1.56,0.86,2.79,1.7,2.74c0.85-0.05,1.45-1.36,1.35-2.94c-0.1-1.58-0.88-2.8-1.72-2.74
							C118.24,44.61,117.65,45.92,117.75,47.48z"/>
						<path d="M142.01,46.03c0.11,1.63,1.01,2.91,2.03,2.86c1.02-0.06,1.77-1.44,1.66-3.1c-0.11-1.65-1.03-2.93-2.05-2.85
							C142.63,43.01,141.9,44.4,142.01,46.03z"/>
					</g>
					<path class="st12" d="M125.98,49.05c0.42-0.24,0.92-0.27,1.39-0.29c0.29-0.01,0.66,0,0.88-0.21c0.23-0.22,0.19-0.58,0.18-0.87
						c-0.02-0.75-0.07-1.5-0.09-2.25c-0.01-0.36-0.01-0.72-0.02-1.08c-0.01-0.46,0.05-0.85,0.1-1.3c0.03-0.34,0.57-0.48,0.64-0.09
						c0.06,0.33,0.17,0.62,0.2,0.95c0.03,0.36,0.05,0.72,0.08,1.08c0.05,0.68,0.08,1.37,0.12,2.06c0.05,1.05,0.09,2.3-1.15,2.63
						c-0.48,0.13-0.98,0.04-1.46,0.11c-0.3,0.04-0.58,0.13-0.57,0.48c0.01,0.27,0.23,0.54,0.38,0.75c0.76,1.06,1.72,1.99,2.74,2.8
						c0.33,0.26-0.11,0.83-0.45,0.58C127.89,53.65,123.64,50.4,125.98,49.05z"/>
					<g>
						<path class="st20" d="M139.68,33.68c-0.33,0.07-0.66,0.16-0.99,0.14c-0.33-0.02-0.68-0.17-0.84-0.47
							c-0.2-0.38-0.01-0.88,0.33-1.14c0.34-0.27,0.78-0.36,1.21-0.41c2.94-0.36,6.97,0.86,8.61,3.52c-0.31,0.19-1.31-0.64-1.68-0.82
							c-0.69-0.34-1.41-0.59-2.15-0.77C142.69,33.39,141.15,33.36,139.68,33.68z"/>
						<path class="st20" d="M120.29,34.48c0.29-0.01,0.59-0.01,0.87-0.11c0.28-0.1,0.53-0.34,0.59-0.66
							c0.07-0.42-0.21-0.85-0.56-1.02c-0.35-0.18-0.74-0.15-1.11-0.1c-2.56,0.39-5.64,2.58-6.36,5.56c0.31,0.11,0.95-0.94,1.21-1.21
							c0.49-0.5,1.04-0.93,1.62-1.28C117.69,34.95,118.97,34.54,120.29,34.48z"/>
					</g>
				</g>
				<path class="st20" d="M163.51,13.78c-1.39-1.76-3.52-3.46-5.68-2.82c-1.33,0.39-2.25,1.58-2.98,2.76
					c-3.41,5.51-2.83,10.27-0.81,16.07c2.03,5.81,2.83,12.04,2.33,18.17c0.9-1.84,1.83-3.71,3.26-5.18
					c1.43-1.46,3.49-2.48,5.51-2.16C170.11,32.47,169.43,21.26,163.51,13.78z"/>
				<g>
					<path class="st18" d="M158.52,51.2c0.52,3.54,4.76,5.43,8.68,2.9c3.92-2.53,7.61-11.4,5.59-16.83
						c-2.03-5.43-8.56-4.14-11.67,1.5C158.77,43.03,158.12,48.44,158.52,51.2z"/>
					<path class="st8" d="M164.57,57.78L164.57,57.78c-0.69,0.05-1.29-0.47-1.34-1.16L163,53.34c-0.05-0.69,0.47-1.29,1.16-1.34l0,0
						c0.69-0.05,1.29,0.47,1.34,1.16l0.24,3.28C165.79,57.13,165.27,57.74,164.57,57.78z"/>
					<path class="st8" d="M168.83,55.07l-0.21,0.11c-0.39,0.2-0.87,0.05-1.07-0.34l-1.12-2.17c-0.2-0.39-0.05-0.87,0.34-1.07
						l0.21-0.11c0.39-0.2,0.87-0.05,1.07,0.34l1.12,2.17C169.37,54.39,169.22,54.87,168.83,55.07z"/>
					<path class="st8" d="M172.02,51.78l-0.15,0.18c-0.28,0.34-0.78,0.39-1.12,0.11l-1.89-1.54c-0.34-0.28-0.39-0.78-0.11-1.12
						l0.15-0.18c0.28-0.34,0.78-0.39,1.12-0.11l1.9,1.54C172.24,50.94,172.29,51.44,172.02,51.78z"/>
					<path class="st12" d="M169.94,40.28c0.16-0.15,0.14-0.49-0.05-0.58c-0.81-0.39-1.82,0.14-2.59,0.57
						c-0.84,0.47-1.64,1.1-2.33,1.88c-1.4,1.57-2.47,3.75-2.71,6.08c-0.05,0.44,0.48,0.64,0.61,0.2c0.59-2.02,1.43-3.9,2.74-5.33
						c0.18-0.19,0.37-0.35,0.56-0.53c0.05,0.12,0.12,0.22,0.18,0.33c0.1,0.19,0.2,0.39,0.3,0.58c0.2,0.4,0.36,0.82,0.51,1.26
						c0.3,0.88,0.43,1.85,0.78,2.7c0.07,0.16,0.3,0.22,0.35-0.01c0.26-1.07,0-2.16-0.32-3.13c-0.17-0.49-0.38-0.96-0.61-1.4
						c-0.11-0.22-0.23-0.42-0.37-0.61c-0.06-0.09-0.12-0.17-0.19-0.25c0.29-0.22,0.58-0.43,0.89-0.61
						C168.4,41.02,169.29,40.89,169.94,40.28z"/>
				</g>
				<g>
					<path class="st11" d="M164.04,17.61c-0.4,0.74-1.01,1.48-1.84,1.57c-0.91,0.1-1.73-0.62-2.06-1.47
						c-0.33-0.85-0.27-1.79-0.2-2.69c-0.77,1.19-0.76,2.72-1.2,4.07c-0.43,1.35-1.73,2.68-3.07,2.24c-2.2,2.74-5.24,4.65-8.23,6.5
						c-1.14,0.71-2.62,1.42-3.74,0.68c-0.81-0.54-1.03-1.67-0.79-2.61c0.25-0.94,0.86-1.74,1.47-2.5
						c-2.67,3.15-6.24,5.54-10.17,6.81c-0.81,0.26-1.65,0.47-2.48,0.35c-0.84-0.13-1.66-0.66-1.89-1.48
						c-0.19-0.69,0.07-1.42,0.36-2.08c1.23-2.83,3.03-5.42,5.26-7.56c-5.97,4.99-12.66,9.1-19.8,12.17
						c-1.09,0.47-2.59,0.81-3.27-0.16c-0.49-0.71-0.18-1.67,0.21-2.45c-0.96,0.98-1.76,1.94-1.76,2.46
						c-0.69,0.78-1.76,1.62-2.64,1.07c-0.69-0.44-0.68-1.44-0.55-2.25c0.3-1.94,0.79-3.84,1.45-5.68c-2.14,0.92-4.63,1.02-6.78,0.12
						l6.15-5.46c-0.55,0.18-1.13,0.37-1.71,0.28c-0.57-0.1-1.13-0.56-1.12-1.15c0.02-0.54,0.49-0.94,0.93-1.27
						c2.9-2.2,5.8-4.4,8.7-6.59c0.91-0.69,1.83-1.38,2.75-2.06c1.62-1.19,3.26-2.34,4.97-3.37c1.16-0.72,2.35-1.38,3.58-1.96
						c4.2-1.99,8.83-3.06,13.47-3.14c2.66-0.04,5.36,0.25,7.86,1.19c2.49,0.95,4.77,2.58,6.19,4.84c0.17,0.27,0.32,0.56,0.46,0.86
						c0.76-0.3,1.56-0.49,2.38-0.52c2.68-0.12,5.37,1.29,6.81,3.56C165.17,12.2,165.29,15.24,164.04,17.61z"/>
					<path class="st11" d="M130.42,18.44c-0.45,0.89-1.28,1.52-2.09,2.11c-0.75,0.56-1.53,1.13-2.45,1.28
						c-0.92,0.16-2.01-0.23-2.33-1.1c-0.3-0.84,0.15-1.88-0.36-2.62c-0.86-1.25-3.02,0.02-4.3-0.8c-0.91-0.58-0.9-1.94-0.51-2.95
						c0.4-1.01,1.08-1.94,1.19-3.02c0.1-1.1-0.47-2.24-1.43-2.81c-0.04-0.02-0.08-0.05-0.12-0.06c1.62-1.19,3.26-2.34,4.97-3.37
						c0.03,0.08,0.05,0.18,0.06,0.27c0.09,0.68-0.17,1.34-0.3,2.01c-0.13,0.66-0.07,1.47,0.48,1.86c0.87,0.62,2.29-0.22,3.09,0.49
						c0.64,0.56,0.36,1.6-0.05,2.35c-0.4,0.75-0.89,1.63-0.49,2.39c0.7,1.35,2.95,0.38,4.19,1.26
						C130.78,16.31,130.86,17.55,130.42,18.44z"/>
				</g>
			</g>
		</g>
	</g>
	<g>
		<path class="st21" d="M142.24,56.3c-0.18-0.9-5.43-0.3-10.44-0.31c-4.41,0-8.65-0.71-9.09-0.06c-0.95,1.38,1.7,8.02,8.71,8.31
			C138.43,64.52,142.72,58.65,142.24,56.3z"/>
		<path class="st22" d="M136.52,57.76c-4.01-0.1-8.09,1.45-10.07,4.92c1.31,0.86,2.96,1.47,4.97,1.56c5.15,0.21,8.82-2.9,10.22-5.5
			C140.01,58.13,138.25,57.8,136.52,57.76z"/>
	</g>
</g>
</svg>
