<?xml version="1.0" encoding="utf-8"?>
<!-- Generator: Adobe Illustrator 25.1.0, SVG Export Plug-In . SVG Version: 6.00 Build 0)  -->
<svg version="1.1" xmlns="http://www.w3.org/2000/svg" xmlns:xlink="http://www.w3.org/1999/xlink" x="0px" y="0px"
	 viewBox="0 0 750 500" style="enable-background:new 0 0 750 500;" xml:space="preserve">
<style type="text/css">
	.st0{opacity:0.1;fill:#874DD9;}
	.st1{fill:#2C2C2C;stroke:#2C2C2C;stroke-width:0.9505;stroke-miterlimit:10;}
	.st2{clip-path:url(#SVGID_2_);}
	.st3{clip-path:url(#SVGID_4_);fill:#FC7D14;stroke:#FC7D14;stroke-width:0.447;stroke-miterlimit:10;}
	.st4{clip-path:url(#SVGID_4_);fill:#CC1F38;}
	.st5{clip-path:url(#SVGID_4_);fill:#3D00F3;stroke:#3D00F3;stroke-width:0.4853;stroke-miterlimit:10;}
	.st6{clip-path:url(#SVGID_4_);fill:#9204FF;stroke:#9204FF;stroke-width:0.4616;stroke-miterlimit:10;}
	.st7{clip-path:url(#SVGID_4_);fill:#FDE835;stroke:#FDE835;stroke-width:0.3415;stroke-miterlimit:10;}
	.st8{clip-path:url(#SVGID_4_);fill:#2EB766;stroke:#2EB766;stroke-width:0.3311;stroke-miterlimit:10;}
	.st9{fill:none;stroke:#000000;stroke-width:0.9505;stroke-miterlimit:10;}
	.st10{fill:#C95846;stroke:#C95846;stroke-width:0.9505;stroke-miterlimit:10;}
	.st11{fill:#943F31;}
	.st12{fill:none;stroke:#2C2C2C;stroke-width:0.3026;stroke-miterlimit:10;}
	.st13{fill:#C95846;}
	.st14{fill:none;stroke:#2C2C2C;stroke-width:0.4455;stroke-miterlimit:10;}
	.st15{fill:none;stroke:#2C2C2C;stroke-width:0.4794;stroke-miterlimit:10;}
	.st16{fill:none;stroke:#4F1811;stroke-width:0.2208;stroke-miterlimit:10;}
	.st17{fill:none;stroke:#4F1811;stroke-width:0.2376;stroke-miterlimit:10;}
	.st18{opacity:0.29;fill:#FD6B04;stroke:#FD6B04;stroke-width:0.4726;stroke-miterlimit:10;}
	.st19{fill:#09182D;}
	.st20{opacity:0.52;fill:#FD6B04;stroke:#09182D;stroke-width:0.4726;stroke-miterlimit:10;}
	.st21{fill:none;stroke:#09182D;stroke-width:0.4726;stroke-miterlimit:10;}
	.st22{fill:#2C2C2C;}
	.st23{fill:#FFA3BF;stroke:#FFA3BF;stroke-width:0.3588;stroke-miterlimit:10;}
	.st24{fill:#5A61EE;stroke:#5A61EE;stroke-width:1.1248;stroke-miterlimit:10;}
	.st25{fill:#F8C892;stroke:#F8C892;stroke-width:0.6067;stroke-miterlimit:10;}
	.st26{opacity:0.29;fill:#FD6B04;stroke:#FD6B04;stroke-width:0.3272;stroke-miterlimit:10;}
	.st27{opacity:0.53;fill:#FD6B04;}
	.st28{fill:none;stroke:#09182D;stroke-width:0.4121;stroke-miterlimit:10;}
	.st29{fill:#9D3BC6;stroke:#9D3BC6;stroke-width:0.571;stroke-miterlimit:10;}
	.st30{fill:#F1E3C8;stroke:#F1E3C8;stroke-width:0.611;stroke-miterlimit:10;}
	.st31{stroke:#000000;stroke-width:0.8669;stroke-miterlimit:10;}
	.st32{fill:none;stroke:#2C2C2C;stroke-width:0.2559;stroke-miterlimit:10;}
	.st33{fill:none;stroke:#2C2C2C;stroke-width:0.2376;stroke-miterlimit:10;}
	.st34{clip-path:url(#SVGID_6_);}
	.st35{clip-path:url(#SVGID_8_);fill:#FC7D14;stroke:#FC7D14;stroke-width:0.1694;stroke-miterlimit:10;}
	.st36{clip-path:url(#SVGID_8_);fill:#CC1F38;}
	.st37{clip-path:url(#SVGID_8_);fill:#00B4DB;stroke:#00B4DB;stroke-width:0.184;stroke-miterlimit:10;}
	.st38{clip-path:url(#SVGID_8_);fill:#9204FF;stroke:#9204FF;stroke-width:0.175;stroke-miterlimit:10;}
	.st39{clip-path:url(#SVGID_8_);fill:#FDE835;stroke:#FDE835;stroke-width:0.1295;stroke-miterlimit:10;}
	.st40{clip-path:url(#SVGID_8_);fill:#6DC785;stroke:#6DC785;stroke-width:0.1255;stroke-miterlimit:10;}
	.st41{fill:#000535;}
	.st42{clip-path:url(#SVGID_10_);fill:#F8C892;stroke:#F8C892;stroke-width:0.9505;stroke-miterlimit:10;}
	.st43{clip-path:url(#SVGID_10_);fill:none;stroke:#000000;stroke-width:0.4753;stroke-miterlimit:10;}
	.st44{fill:#2EB766;stroke:#2EB766;stroke-width:0.9505;stroke-miterlimit:10;}
	.st45{fill:#ED7541;}
	.st46{fill:#F8C892;}
	.st47{fill:none;stroke:#2C2C2C;stroke-width:0.3698;stroke-miterlimit:10;}
	.st48{fill:none;stroke:#4F1811;stroke-width:0.1833;stroke-miterlimit:10;}
	.st49{opacity:0.29;fill:#FD6B04;stroke:#FD6B04;stroke-width:0.4038;stroke-miterlimit:10;}
	.st50{fill:none;stroke:#09182D;stroke-width:0.5085;stroke-miterlimit:10;}
	.st51{fill:#943F31;stroke:#943F31;stroke-width:0.8528;stroke-miterlimit:10;}
	.st52{opacity:0.7;fill:#2C2C2C;}
	.st53{fill:#FD5407;}
	.st54{fill:none;stroke:#2C2C2C;stroke-width:0.9505;stroke-miterlimit:10;}
	.st55{fill:#FFCC11;stroke:#FFCC11;stroke-width:0.8528;stroke-miterlimit:10;}
	.st56{clip-path:url(#SVGID_12_);fill:#2C2C2C;}
	.st57{clip-path:url(#SVGID_12_);}
	.st58{fill:#C33A20;}
	.st59{fill:#FBD10F;}
	.st60{fill:#00B4DB;}
	.st61{fill:#9204FF;}
	.st62{fill:#FC7D14;}
	.st63{fill:#6DC785;}
	.st64{fill:#FB7BB9;}
	.st65{fill:#5A61EE;stroke:#5A61EE;stroke-width:0.7129;stroke-miterlimit:10;}
	.st66{fill:#FB8DC2;stroke:#FB8DC2;stroke-width:0.9505;stroke-miterlimit:10;}
	.st67{fill:#9D3BC6;stroke:#9D3BC6;stroke-width:0.9505;stroke-miterlimit:10;}
	.st68{fill:none;stroke:#000000;stroke-width:0.1833;stroke-miterlimit:10;}
	.st69{opacity:0.49;fill:#763227;stroke:#763227;stroke-width:0.4957;stroke-miterlimit:10;}
	.st70{stroke:#000000;stroke-width:0.9505;stroke-miterlimit:10;}
	.st71{opacity:0.52;fill:#FD6B04;stroke:#09182D;stroke-width:0.5085;stroke-miterlimit:10;}
	.st72{clip-path:url(#SVGID_14_);fill:#943F31;}
	.st73{clip-path:url(#SVGID_14_);fill:none;stroke:#2C2C2C;stroke-width:0.2376;stroke-miterlimit:10;}
	.st74{clip-path:url(#SVGID_14_);fill:none;stroke:#2C2C2C;stroke-width:0.3026;stroke-miterlimit:10;}
	.st75{clip-path:url(#SVGID_16_);fill:#943F31;}
	.st76{clip-path:url(#SVGID_16_);fill:none;stroke:#2C2C2C;stroke-width:0.2376;stroke-miterlimit:10;}
	.st77{clip-path:url(#SVGID_16_);fill:none;stroke:#2C2C2C;stroke-width:0.3026;stroke-miterlimit:10;}
	.st78{fill:#FD6B04;stroke:#FD6B04;stroke-width:1.1001;stroke-miterlimit:10;}
	.st79{fill:#FC7D14;stroke:#FC7D14;stroke-width:1.1001;stroke-miterlimit:10;}
	.st80{opacity:0.5;}
	.st81{fill:none;stroke:#000000;stroke-width:0.4753;stroke-miterlimit:10;}
	.st82{fill:#F8C892;stroke:#F8C892;stroke-width:0.7402;stroke-miterlimit:10;}
	.st83{fill:none;stroke:#4F1811;stroke-width:0.1959;stroke-miterlimit:10;}
	.st84{fill:none;stroke:#2C2C2C;stroke-width:0.4514;stroke-miterlimit:10;}
	.st85{opacity:0.29;fill:#CC1F38;stroke:#CC1F38;stroke-width:0.4398;stroke-miterlimit:10;}
	.st86{fill:#1C1433;}
	.st87{opacity:0.52;fill:#FD6B04;stroke:#09182D;stroke-width:0.4666;stroke-miterlimit:10;}
	.st88{fill:none;stroke:#09182D;stroke-width:0.4666;stroke-miterlimit:10;}
	.st89{clip-path:url(#SVGID_18_);}
	.st90{clip-path:url(#SVGID_20_);fill:#FC7D14;stroke:#FC7D14;stroke-width:0.3788;stroke-miterlimit:10;}
	.st91{clip-path:url(#SVGID_20_);fill:#CC1F38;}
	.st92{clip-path:url(#SVGID_20_);fill:#3D00F3;stroke:#3D00F3;stroke-width:0.4113;stroke-miterlimit:10;}
	.st93{clip-path:url(#SVGID_20_);fill:#9204FF;stroke:#9204FF;stroke-width:0.3913;stroke-miterlimit:10;}
	.st94{clip-path:url(#SVGID_20_);fill:#FDE835;stroke:#FDE835;stroke-width:0.2895;stroke-miterlimit:10;}
	.st95{clip-path:url(#SVGID_20_);fill:#2EB766;stroke:#2EB766;stroke-width:0.2806;stroke-miterlimit:10;}
	.st96{fill:#CC1F38;stroke:#CC1F38;stroke-width:0.9505;stroke-miterlimit:10;}
	.st97{fill:#5A61EE;stroke:#5A61EE;stroke-width:0.9505;stroke-miterlimit:10;}
	.st98{clip-path:url(#SVGID_22_);}
	.st99{clip-path:url(#SVGID_24_);fill:#FC7D14;stroke:#FC7D14;stroke-width:0.1293;stroke-miterlimit:10;}
	.st100{clip-path:url(#SVGID_24_);fill:#CC1F38;}
	.st101{clip-path:url(#SVGID_24_);fill:#00B4DB;stroke:#00B4DB;stroke-width:0.1404;stroke-miterlimit:10;}
	.st102{clip-path:url(#SVGID_24_);fill:#9204FF;stroke:#9204FF;stroke-width:0.1335;stroke-miterlimit:10;}
	.st103{clip-path:url(#SVGID_24_);fill:#FDE835;stroke:#FDE835;stroke-width:0.0988;stroke-miterlimit:10;}
	.st104{clip-path:url(#SVGID_24_);fill:#6DC785;stroke:#6DC785;stroke-width:0.0958;stroke-miterlimit:10;}
	.st105{clip-path:url(#SVGID_26_);fill:#F8C892;stroke:#F8C892;stroke-width:0.9505;stroke-miterlimit:10;}
	.st106{clip-path:url(#SVGID_26_);fill:none;stroke:#000000;stroke-width:0.4753;stroke-miterlimit:10;}
	.st107{stroke:#000000;stroke-width:0.8035;stroke-miterlimit:10;}
	.st108{fill:#C95846;stroke:#C95846;stroke-width:0.9312;stroke-miterlimit:10;}
	.st109{stroke:#000000;stroke-width:0.9312;stroke-miterlimit:10;}
	.st110{fill:none;stroke:#000000;stroke-width:0.3824;stroke-miterlimit:10;}
	.st111{clip-path:url(#SVGID_28_);}
	.st112{clip-path:url(#SVGID_30_);}
	.st113{clip-path:url(#SVGID_32_);fill:#FC7D14;stroke:#FC7D14;stroke-width:0.7551;stroke-miterlimit:10;}
	.st114{clip-path:url(#SVGID_32_);fill:#CC1F38;}
	.st115{clip-path:url(#SVGID_32_);fill:#00B4DB;stroke:#00B4DB;stroke-width:0.8199;stroke-miterlimit:10;}
	.st116{clip-path:url(#SVGID_32_);fill:#9204FF;stroke:#9204FF;stroke-width:0.7798;stroke-miterlimit:10;}
	.st117{clip-path:url(#SVGID_32_);fill:#FDE835;stroke:#FDE835;stroke-width:0.577;stroke-miterlimit:10;}
	.st118{clip-path:url(#SVGID_32_);fill:#6DC785;stroke:#6DC785;stroke-width:0.5594;stroke-miterlimit:10;}
	.st119{fill:#CC1F38;stroke:#CC1F38;stroke-width:0.8742;stroke-miterlimit:10;}
	.st120{fill:#C95846;stroke:#C95846;stroke-width:0.7402;stroke-miterlimit:10;}
	.st121{fill:#C95846;stroke:#4F1811;stroke-width:0.1959;stroke-miterlimit:10;}
	.st122{fill:#C95846;stroke:#2C2C2C;stroke-width:0.4514;stroke-miterlimit:10;}
	.st123{opacity:0.29;fill:#943F31;stroke:#943F31;stroke-width:0.4398;stroke-miterlimit:10;}
	.st124{fill:#FF4FA9;stroke:#FFD573;stroke-width:0.6521;stroke-linecap:round;stroke-miterlimit:10;}
	.st125{fill:none;stroke:#FFD573;stroke-width:0.6521;stroke-linecap:round;stroke-miterlimit:10;}
	.st126{clip-path:url(#SVGID_34_);}
	.st127{clip-path:url(#SVGID_36_);fill:#FC7D14;stroke:#FC7D14;stroke-width:0.147;stroke-miterlimit:10;}
	.st128{clip-path:url(#SVGID_36_);fill:#CC1F38;}
	.st129{clip-path:url(#SVGID_36_);fill:#00B4DB;stroke:#00B4DB;stroke-width:0.1596;stroke-miterlimit:10;}
	.st130{clip-path:url(#SVGID_36_);fill:#9204FF;stroke:#9204FF;stroke-width:0.1518;stroke-miterlimit:10;}
	.st131{clip-path:url(#SVGID_36_);fill:#FDE835;stroke:#FDE835;stroke-width:0.1124;stroke-miterlimit:10;}
	.st132{clip-path:url(#SVGID_36_);fill:#6DC785;stroke:#6DC785;stroke-width:0.1089;stroke-miterlimit:10;}
	.st133{stroke:#000535;stroke-width:0.8313;stroke-miterlimit:10;}
	.st134{clip-path:url(#SVGID_38_);fill:#943F31;stroke:#943F31;stroke-width:0.9828;stroke-miterlimit:10;}
	.st135{clip-path:url(#SVGID_38_);fill:none;stroke:#000000;stroke-width:0.4914;stroke-miterlimit:10;}
	.st136{fill:none;stroke:#000000;stroke-width:0.1895;stroke-miterlimit:10;}
	.st137{clip-path:url(#SVGID_40_);fill:#CC1F38;stroke:#CC1F38;stroke-width:0.9828;stroke-miterlimit:10;}
	.st138{clip-path:url(#SVGID_40_);fill:#FFFFFF;stroke:#FFFFFF;stroke-width:0.9828;stroke-miterlimit:10;}
	.st139{clip-path:url(#SVGID_40_);fill:none;stroke:#FFFFFF;stroke-width:0.9828;stroke-miterlimit:10;}
	.st140{clip-path:url(#SVGID_42_);fill:#CC1F38;stroke:#CC1F38;stroke-width:0.9828;stroke-miterlimit:10;}
	.st141{clip-path:url(#SVGID_42_);fill:#FFFFFF;stroke:#FFFFFF;stroke-width:0.9828;stroke-miterlimit:10;}
	.st142{clip-path:url(#SVGID_42_);fill:none;stroke:#FFFFFF;stroke-width:0.9828;stroke-miterlimit:10;}
	.st143{fill:#FB8DC2;stroke:#FB8DC2;stroke-width:0.9828;stroke-miterlimit:10;}
	.st144{fill:#3D00F3;stroke:#3D00F3;stroke-width:0.9828;stroke-miterlimit:10;}
	.st145{clip-path:url(#SVGID_44_);}
	.st146{clip-path:url(#SVGID_46_);fill:#FC7D14;stroke:#FC7D14;stroke-width:0.1368;stroke-miterlimit:10;}
	.st147{clip-path:url(#SVGID_46_);fill:#CC1F38;}
	.st148{clip-path:url(#SVGID_46_);fill:#00B4DB;stroke:#00B4DB;stroke-width:0.1485;stroke-miterlimit:10;}
	.st149{clip-path:url(#SVGID_46_);fill:#9204FF;stroke:#9204FF;stroke-width:0.1413;stroke-miterlimit:10;}
	.st150{clip-path:url(#SVGID_46_);fill:#FDE835;stroke:#FDE835;stroke-width:0.1045;stroke-miterlimit:10;}
	.st151{clip-path:url(#SVGID_46_);fill:#6DC785;stroke:#6DC785;stroke-width:0.1013;stroke-miterlimit:10;}
	.st152{fill:none;stroke:#2C2C2C;stroke-width:0.3824;stroke-miterlimit:10;}
	.st153{fill:none;stroke:#4F1811;stroke-width:0.1895;stroke-miterlimit:10;}
	.st154{opacity:0.62;fill:#763227;stroke:#763227;stroke-width:0.4194;stroke-miterlimit:10;}
	.st155{fill:none;stroke:#09182D;stroke-width:0.5282;stroke-miterlimit:10;}
	.st156{stroke:#000000;stroke-width:0.8313;stroke-miterlimit:10;}
	.st157{fill:none;stroke:#FFFFFF;stroke-width:0.4753;stroke-linecap:round;stroke-miterlimit:10;}
</style>
<g id="BACKGROUND">
</g>
<g id="OBJECTS">
	<ellipse class="st0" cx="382.19" cy="461.67" rx="322.54" ry="10.15"/>
	<g>
		<g>
			<path class="st1" d="M335.15,449.1c0,0-5.09-13.57-21.36-12.16l-5.09-17.63l-20.37,1.47l5.2,34.97l0.42,3.31l12.41-1.86v-3.49
				L335.15,449.1z"/>
			<path class="st1" d="M236.85,456.23l6.01-25.06l-1.03-15.63h16.2v17.29l7.29,22.9c0.63,1.98-0.51,4.14-2.22,4.19l-23.63,0.62
				C237.65,460.58,236.33,458.4,236.85,456.23z"/>
		</g>
		<g>
			<g>
				<defs>
					<path id="SVGID_1_" d="M329.73,424.43c-0.09-0.23-0.19-0.46-0.3-0.68l-1.42-10.07c-1.76-6.03-4.69-11.57-5.13-17.95
						c-0.23-3.27,0.34-6.49-0.59-9.7c-0.71-2.44-1.86-4.74-2.71-7.13c-2.43-6.89-2.3-13.3-1.45-20.46c0.43-3.6,0.89-7.26,0.55-10.88
						l-0.28-1.97c-0.68-3.67-2.26-7.12-2.99-10.79c-0.65-3.3-0.8-6.5-0.35-9.84c0-0.01,0-0.01,0-0.02c0.13-1.01,0.14-2.03,0-3.04
						l-0.78-5.56c-0.55-3.92-1.79-7.73-3.66-11.27c-1.24-2.34-2.4-4.71-3.12-7.26c-1.79-6.31-0.75-12.57-0.4-18.96
						c0.39-6.97-2.77-12.34-4.48-18.77h-74.82c0.56,2.1,0.97,4.24,1.02,6.44c0.17,8.74-4.65,16.84-3.68,25.61
						c0.95,8.63,4.67,16.57,4.5,25.39c-0.18,8.96-3.87,17.67-3.2,26.65c0.61,8.23,5.29,15.43,4.46,23.92
						c-0.82,8.37-6.01,16.04-5.88,24.5c0.12,7.98,4.11,15.25,2.87,23.38c-0.6,3.92-2.22,7.52-3.51,11.25
						c-0.52,1.51-0.78,2.86-0.83,4.17c1.53,2.63,4.61,4.43,8.17,4.43c3.81,0,7.08-2.06,8.48-5c1.4,2.94,4.67,5,8.48,5
						c4.05,0,7.48-2.33,8.71-5.57c1.23,3.24,4.66,5.57,8.71,5.57c5.08,0,9.2-3.67,9.2-8.21c0-0.66-0.1-1.29-0.26-1.9l-1.8-94.52
						l4.25,95.15l0.04,0c-0.07,0.42-0.12,0.84-0.12,1.27c0,4.53,4.12,8.21,9.2,8.21c4.01,0,7.41-2.29,8.67-5.48
						c1.26,3.19,4.66,5.48,8.67,5.48c3.99,0,7.38-2.27,8.66-5.44c1.42,2.9,4.66,4.93,8.44,4.93c4.97,0,9.01-3.52,9.19-7.92
						C330.02,426.42,329.86,425.43,329.73,424.43z"/>
				</defs>
				<use xlink:href="#SVGID_1_"  style="overflow:visible;fill:#6DC785;"/>
				<clipPath id="SVGID_2_">
					<use xlink:href="#SVGID_1_"  style="overflow:visible;"/>
				</clipPath>
				<g class="st2">
					<g>
						<defs>
							
								<rect id="SVGID_3_" x="205.33" y="373.46" transform="matrix(0.9677 0.2522 -0.2522 0.9677 112.4072 -55.3181)" width="133.38" height="74.84"/>
						</defs>
						<clipPath id="SVGID_4_">
							<use xlink:href="#SVGID_3_"  style="overflow:visible;"/>
						</clipPath>
						
							<rect x="208.1" y="386.45" transform="matrix(0.9677 0.2522 -0.2522 0.9677 108.0653 -57.117)" class="st3" width="137.53" height="13.19"/>
						
							<rect x="273.45" y="311.32" transform="matrix(0.2522 -0.9677 0.9677 0.2522 -158.2328 555.4266)" class="st4" width="13.58" height="137.53"/>
						
							<rect x="260.35" y="361.59" transform="matrix(0.2522 -0.9677 0.9677 0.2522 -216.6716 580.3423)" class="st5" width="13.58" height="137.53"/>
						
							<rect x="256.93" y="374.73" transform="matrix(0.2522 -0.9677 0.9677 0.2522 -231.951 586.8527)" class="st6" width="13.58" height="137.53"/>
						
							<rect x="267.7" y="336.46" transform="matrix(0.2522 -0.9677 0.9677 0.2522 -187.4528 567.8828)" class="st7" width="11.98" height="137.53"/>
						
							<rect x="263.76" y="348.76" transform="matrix(0.2522 -0.9677 0.9677 0.2522 -201.7565 573.98)" class="st8" width="13.45" height="137.53"/>
					</g>
				</g>
			</g>
			<g>
				<g>
					<line class="st9" x1="271.91" y1="300.17" x2="274.08" y2="355.64"/>
					<line class="st9" x1="262.43" y1="300.17" x2="281.61" y2="300.17"/>
				</g>
			</g>
		</g>
		<g>
			<path class="st10" d="M303.65,190.41c-18.43-15.11-37.46-8.46-37.46-8.46l-1.51-12.39H252.5v13.32c0,0-10.64-7.19-33.41,4.43
				c-17.5,8.93-37.46,11.2-47.2,11.12c-3.18-0.02-5.98-0.82-8.88-2.09c-6.68-3.02-2.28-1.06-7.01-2.92
				c-6.24-2.69-13.22-5.21-14.33-3.56c-1.48,2.2,3.61,4.87,3.61,4.87s-17.41-3.71-18.04-1.38c-0.46,1.7,5.26,4.1,8.51,5.32
				c-3.63-1.24-10.63-3.37-11.36-1.67c-1.09,2.51,7.75,6,10.59,7.04c-2.47-0.87-9.51-3.21-11.05-2.25c-4,2.5,10.64,6.88,10.64,6.88
				s-8.21-1.79-9.04-1.14c-1.87,1.45,7.93,5.17,23.52,9.47c3.85,1.06,7.6,2.49,11.22,4.2c10.89,5.14,39.31,15.17,67.56-3.12
				l5.01,37.49l69-1.41C356.52,243.57,322.08,205.51,303.65,190.41z"/>
			<path class="st11" d="M252.1,173.23c2.8,1.42,5.88,1.99,8.98,1.48l-8.98,7.32V173.23z"/>
			<line class="st12" x1="135.99" y1="196.46" x2="134.51" y2="209.91"/>
			<path class="st12" d="M143.27,193.4c0,0-1.35,5.04,3.95,6.04"/>
			<line class="st12" x1="128.88" y1="207.14" x2="134.57" y2="208.67"/>
			<line class="st12" x1="128.15" y1="201.31" x2="135.19" y2="203"/>
			<line class="st12" x1="129.94" y1="196.42" x2="135.88" y2="197.46"/>
			<path class="st1" d="M239.31,180.84c0,0,1.03,25.67,21.2,23.23c20.18-2.44,16.38-23.57,16.38-23.57s21.07-4,42.87,25.88
				l-20.17,15.18l3.27,39.95l-74.19,1.73c0,0-1.35-22.16-0.85-45.16c0,0-14.76,8.04-21.89,9.13l-5.6-34.07
				C200.33,193.14,229.95,178.5,239.31,180.84z"/>
		</g>
		<g>
			<g>
				<path class="st13" d="M252.1,173.23c2.8,1.42,5.88,1.99,8.98,1.48c6.44-1.07,11.3-6.53,13.08-13.7c1.92,0.4,4.19-0.29,5.88-1.98
					c2.48-2.48,2.8-6.17,0.73-8.24c-1.58-1.58-4.08-1.76-6.28-0.68c-2.05-11.77-11.2-20.04-20.53-18.5
					c-8.31,1.37-13.97,10.07-13.81,20.3c-1.84-0.48-3.72-0.11-4.99,1.16c-2.08,2.08-1.75,5.77,0.73,8.24
					c1.97,1.97,4.71,2.58,6.79,1.7C244.84,167.65,248.21,171.26,252.1,173.23"/>
				<g>
					<g>
						<line class="st14" x1="240.56" y1="159.06" x2="236.7" y2="155.56"/>
						<line class="st15" x1="275.14" y1="157.46" x2="278.69" y2="153.13"/>
						<line class="st16" x1="242.42" y1="160.82" x2="242.68" y2="163.01"/>
						<line class="st17" x1="274.26" y1="158.73" x2="274.09" y2="161.09"/>
					</g>
					<g>
						<path class="st18" d="M254.8,159.86c0.2,2.5-1.66,4.69-4.17,4.89c-2.5,0.2-4.69-1.66-4.89-4.17c-0.2-2.5,1.66-4.69,4.17-4.89
							C252.4,155.49,254.6,157.36,254.8,159.86z"/>
						<path class="st18" d="M270.68,158.58c0.2,2.5-1.66,4.69-4.17,4.89c-2.5,0.2-4.69-1.66-4.89-4.17c-0.2-2.5,1.66-4.69,4.17-4.89
							C268.29,154.22,270.48,156.08,270.68,158.58z"/>
						<g>
							<path class="st19" d="M267.12,153.71c0.09,1.12-0.48,2.07-1.27,2.14c-0.79,0.06-1.5-0.79-1.59-1.91
								c-0.09-1.12,0.48-2.07,1.27-2.14S267.03,152.6,267.12,153.71z"/>
							<path class="st19" d="M251.46,154.09c0.09,1.12-0.48,2.07-1.27,2.14c-0.79,0.06-1.5-0.79-1.59-1.91
								c-0.09-1.12,0.48-2.07,1.27-2.14S251.37,152.97,251.46,154.09z"/>
						</g>
						<g>
							<g>
								<path class="st19" d="M253.36,158.75c0.62,0.75,1.35,1.38,2.2,1.67c0.85,0.28,1.77,0.34,2.69,0.21
									c0.87-0.08,1.71-0.47,2.41-1.04c0.36-0.28,0.68-0.61,0.94-0.99c0.29-0.37,0.49-0.79,0.63-1.26l0-0.01
									c0-0.01,0.02-0.02,0.03-0.02c0.01,0,0.02,0.01,0.02,0.02c-0.09,0.98-0.65,1.86-1.36,2.52c-0.72,0.66-1.64,1.12-2.62,1.22
									c-0.97,0.1-1.97,0.05-2.88-0.34c-0.91-0.39-1.61-1.13-2.1-1.97c-0.01-0.01,0-0.03,0.01-0.03
									C253.34,158.73,253.35,158.74,253.36,158.75z"/>
							</g>
						</g>
						<g>
							<polyline class="st20" points="257.3,152.91 257.32,157.74 259.05,157.1 							"/>
							<polyline class="st21" points="257.3,152.91 257.32,157.74 259.05,157.1 							"/>
						</g>
						<g>
							<path class="st22" d="M246.73,149.72c-0.34-0.8-0.16-1.56,0.2-2.14c0.35-0.61,0.94-1.04,1.57-1.27
								c0.63-0.22,1.31-0.24,1.93-0.03c0.61,0.19,1.18,0.57,1.6,1.29l-0.02,0.19c-0.49-0.01-0.98-0.02-1.46,0.03
								c-0.48,0.05-0.95,0.15-1.4,0.32c-0.91,0.3-1.71,0.91-2.23,1.7L246.73,149.72z"/>
						</g>
						<g>
							<path class="st22" d="M264.08,147.83c0.21-0.84,0.82-1.34,1.46-1.58c0.65-0.27,1.38-0.26,2.01-0.06
								c0.63,0.21,1.19,0.6,1.55,1.14c0.37,0.52,0.59,1.17,0.49,2l-0.13,0.14c-0.38-0.31-0.77-0.61-1.18-0.86
								c-0.41-0.25-0.85-0.46-1.31-0.6c-0.9-0.31-1.91-0.32-2.81,0L264.08,147.83z"/>
						</g>
					</g>
				</g>
			</g>
			<path class="st23" d="M280.3,140.57c0-3.36-1.08-6.3-2.7-7.99c0.98-1.85,1.32-3.79,0.88-5.66c-1.4-5.96-10.21-8.99-19.69-6.77
				c-7.97,1.87-13.86,6.86-14.69,11.95c-0.85-0.8-1.84-1.27-2.89-1.27c-3.27,0-5.92,4.46-5.92,9.95c0,4.71,1.95,8.65,4.57,9.68
				l1.76,7.26h1.72v-7.66c2.22-1.44,3.8-5.05,3.8-9.28c0-0.5-0.03-0.99-0.07-1.48c3.64,2.91,10.04,4.01,16.79,2.42
				c1.71-0.4,3.31-0.95,4.8-1.6c0,0.15-0.01,0.29-0.01,0.44c0,4.36,1.82,8.02,4.29,9.13l0.56,7.92l1.8-0.66l0.48-7.16
				C278.36,148.84,280.3,145.08,280.3,140.57z"/>
		</g>
		<g>
			<g>
				
					<ellipse transform="matrix(0.5532 -0.833 0.833 0.5532 -63.7125 340.8726)" class="st24" cx="285.94" cy="229.84" rx="47.63" ry="24.37"/>
				<g>
					<path class="st25" d="M312.36,208.63c-1.98,6.38-8.37,10.07-14.27,8.24c-5.9-1.83-9.09-8.49-7.11-14.86
						c1.98-6.38,8.37-10.07,14.27-8.24C311.15,195.59,314.34,202.25,312.36,208.63z"/>
					<g>
						<g>
							<path class="st26" d="M298.52,207.48c-0.4,1.69-2.1,2.74-3.79,2.34c-1.69-0.4-2.73-2.1-2.33-3.79
								c0.4-1.69,2.1-2.74,3.79-2.34C297.88,204.09,298.92,205.79,298.52,207.48z"/>
							<path class="st26" d="M309.23,210.03c-0.4,1.69-2.1,2.74-3.79,2.34c-1.69-0.4-2.73-2.1-2.33-3.79
								c0.4-1.69,2.1-2.74,3.79-2.34C308.59,206.64,309.64,208.34,309.23,210.03z"/>
							<g>
								<path class="st22" d="M308.06,205.7c-0.18,0.76-0.76,1.27-1.29,1.14c-0.53-0.13-0.82-0.84-0.64-1.6
									c0.18-0.76,0.76-1.27,1.29-1.14C307.95,204.22,308.24,204.94,308.06,205.7z"/>
								<path class="st22" d="M297.48,203.18c-0.18,0.76-0.76,1.27-1.29,1.14c-0.53-0.13-0.82-0.84-0.64-1.6
									c0.18-0.76,0.76-1.27,1.29-1.14C297.38,201.71,297.66,202.42,297.48,203.18z"/>
							</g>
							<g>
								<g>
									<path class="st19" d="M306.68,202.13c0.2-0.18,0.45-0.23,0.7-0.23c0.25,0,0.48,0.1,0.71,0.2c0.2,0.15,0.39,0.29,0.52,0.5
										c0.06,0.1,0.11,0.21,0.17,0.31c0.03,0.12,0.07,0.23,0.07,0.36l-0.03,0.02c-0.26-0.34-0.57-0.63-0.93-0.84
										c-0.36-0.21-0.78-0.34-1.19-0.28L306.68,202.13z"/>
								</g>
							</g>
							<g>
								<g>
									<path class="st19" d="M295.83,199.54c0.12-0.24,0.34-0.38,0.57-0.47c0.24-0.09,0.49-0.08,0.73-0.07
										c0.24,0.07,0.47,0.13,0.66,0.27c0.1,0.07,0.18,0.15,0.27,0.23c0.07,0.11,0.15,0.19,0.2,0.31l-0.02,0.03
										c-0.36-0.22-0.76-0.38-1.17-0.44c-0.41-0.07-0.85-0.03-1.22,0.17L295.83,199.54z"/>
								</g>
							</g>
							<g>
								<path class="st27" d="M301.81,206.55c-1.84-0.11-0.67-2-0.67-2c0.07,0.02,0.61,0.18,0.84,0.73
									C302.25,205.95,301.83,206.53,301.81,206.55z"/>
								<g>
									<path class="st28" d="M301.24,204.36c0,0-1.12,2.15,0.72,2.26"/>
								</g>
							</g>
						</g>
						<g>
							
								<ellipse transform="matrix(0.9961 -0.0885 0.0885 0.9961 -17.4316 27.3684)" class="st29" cx="300.1" cy="210.38" rx="3.36" ry="3.36"/>
							<path class="st30" d="M301.41,210.5c-0.07,0.73-0.71,1.26-1.44,1.19c-0.73-0.07-1.26-0.71-1.19-1.44
								c0.07-0.73,0.71-1.26,1.44-1.19C300.95,209.13,301.48,209.77,301.41,210.5z"/>
						</g>
					</g>
					<path class="st31" d="M305.54,193.45c-0.09-0.03-0.54-0.19-0.78-0.24c-0.11,0.12-0.19,0.26-0.28,0.39
						c0.01-0.15,0.03-0.29,0.03-0.44c-3.43-0.81-6.99,0.18-9.7,2.46c0.07,0.15,0.15,0.29,0.23,0.44c1.38,2.29,4.48,2.97,6.91,1.5
						c0.77-0.46,1.37-1.09,1.8-1.8c-0.07,1.16,0.24,2.37,0.86,3.39c1.38,2.29,4.48,2.97,6.91,1.5c0.23-0.14,0.43-0.29,0.63-0.45
						C311.06,197.1,308.74,194.57,305.54,193.45z"/>
				</g>
			</g>
			<g>
				<path class="st13" d="M329.75,222.13c5.73,15.3,4.3,26.8-4.22,32.31c-7.51,4.85-14.15,8.22-29.76,9.78
					c-25.95,2.59-38.34,1.25-40.84-1.39c-0.7-0.74-0.31-1.96,0.69-2.15l8.33-1.55c0,0-15.07-1.15-12.55-4.73
					c1.59-1.53,11.76-1.02,11.76-1.02s-13.72-0.06-13.07-3.24c0.51-2.46,14.1-1.99,14.1-1.99s-11.15-0.41-11-2.85
					c0.14-2.41,17.26-3.26,17.26-3.26s-5.53-1.58-4.52-4.04c1.4-3.43,19.37,3.84,19.37,3.84l15.9-4.83"/>
				<g>
					<line class="st32" x1="261.78" y1="248.09" x2="267.21" y2="248.16"/>
					<line class="st32" x1="261.87" y1="253.35" x2="267.29" y2="253.42"/>
					<line class="st33" x1="262.3" y1="259.08" x2="266.99" y2="259.08"/>
					<line class="st12" x1="270.1" y1="241.99" x2="273.36" y2="243.87"/>
				</g>
			</g>
		</g>
	</g>
	<g>
		<g>
			<g>
				<g>
					<g>
						<g>
							<defs>
								<polygon id="SVGID_5_" points="242.05,108.75 205.82,82.68 224.02,58.31 260.24,84.39 								"/>
							</defs>
							<clipPath id="SVGID_6_">
								<use xlink:href="#SVGID_5_"  style="overflow:visible;"/>
							</clipPath>
							<g class="st34">
								<defs>
									
										<rect id="SVGID_7_" x="210.18" y="67.83" transform="matrix(0.8064 0.5914 -0.5914 0.8064 94.6674 -121.1619)" width="44.37" height="32.33"/>
								</defs>
								<clipPath id="SVGID_8_">
									<use xlink:href="#SVGID_7_"  style="overflow:visible;"/>
								</clipPath>
								
									<rect x="214.27" y="74.74" transform="matrix(0.8064 0.5914 -0.5914 0.8064 91.8062 -125.2247)" class="st35" width="45.76" height="5.7"/>
								
									<rect x="237.63" y="50.05" transform="matrix(0.5914 -0.8064 0.8064 0.5914 39.4852 223.785)" class="st36" width="5.87" height="45.76"/>
								
									<rect x="224.36" y="68.15" transform="matrix(0.5914 -0.8064 0.8064 0.5914 19.4704 220.4769)" class="st37" width="5.87" height="45.76"/>
								
									<rect x="220.89" y="72.88" transform="matrix(0.5914 -0.8064 0.8064 0.5914 14.2372 219.6113)" class="st38" width="5.87" height="45.76"/>
								
									<rect x="231.34" y="59.1" transform="matrix(0.5914 -0.8064 0.8064 0.5914 29.4791 222.1329)" class="st39" width="5.17" height="45.76"/>
								
									<rect x="227.78" y="63.53" transform="matrix(0.5914 -0.8064 0.8064 0.5914 24.5793 221.3218)" class="st40" width="5.81" height="45.76"/>
							</g>
						</g>
						<path class="st41" d="M185.01,110.82l-1.77-1.27l40.02-53.8c0.08-0.02,0.64-0.17,1.16,0.17c0.58,0.38,0.61,1.03,0.61,1.1
							C211.69,74.95,198.35,92.88,185.01,110.82z"/>
					</g>
				</g>
				<g>
					<g>
						<defs>
							<path id="SVGID_9_" d="M180.86,122.12c0,0-15.31-13.89-29.99-12.94l0.1-9.83l-10.52,0.48v10.41c0,0-24.69-4.49-29.8,42.74
								h53.8l0.76-13.79c0,0,29.68,24.16,39.94-39.36c0,0,1.26-14.91-3.97-16.37c-0.63-0.17-1.32-0.08-1.9,0.21
								c-0.5,0.25-0.97,0.68-0.84,1.4c0,0-1.44-1.21-2.35,0.69c0,0-1.55-0.9-1.96,1.22c-0.41,2.12-0.19,4.74,1.31,8.55
								L180.86,122.12z"/>
						</defs>
						<clipPath id="SVGID_10_">
							<use xlink:href="#SVGID_9_"  style="overflow:visible;"/>
						</clipPath>
						<path class="st42" d="M180.86,122.12c0,0-15.31-13.89-29.99-12.94l0.1-9.83l-10.52,0.48v10.41c0,0-24.69-4.49-29.8,42.74h53.8
							l0.76-13.79c0,0,32.37,22.06,39.94-39.36c0,0,1.26-14.91-3.97-16.37c-0.63-0.17-1.32-0.08-1.9,0.21
							c-0.5,0.25-0.97,0.68-0.84,1.4c0,0-1.44-1.21-2.35,0.69c0,0-1.55-0.9-1.96,1.22c-0.41,2.12-0.19,4.74,1.31,8.55L180.86,122.12
							z"/>
						<line class="st43" x1="195.68" y1="84.79" x2="196.59" y2="88.14"/>
						<line class="st43" x1="198.2" y1="83.54" x2="198.98" y2="86.9"/>
						<line class="st43" x1="200.82" y1="82.86" x2="201.87" y2="86.46"/>
					</g>
					<path class="st44" d="M174.95,116.45l-10.5-5.17l0,0c-0.65-0.36-1.39-0.7-2.22-0.97c-1.87-0.61-3.51-0.67-4.6-0.63
						l-10.49,13.81l-12.47-13.34c-1.18,0.03-3.05,0.22-5.15,1.08c-0.61,0.25-1.15,0.52-1.66,0.81l-0.01-0.28
						c0,0-10.26,5.23-13.12,12.17l13.79,10.53l-1.64,26.7l18.05,4.09l25.2-10.19l-3.73-15.29L174.95,116.45z"/>
				</g>
			</g>
			<g>
				<path class="st45" d="M177.13,101.95c2.55-9.16-4.81-7.6-6.19-9.82c-1.38-2.22,0.46-12.09-4.66-15.17
					c-5.12-3.08-7.19-7.04-7.19-7.04c-4.2-13.15-15.91-8.71-15.91-8.71l-0.73,0.05c0,0-12.2-2.83-14.61,10.76
					c0,0-1.52,4.2-6.19,7.94c-4.66,3.74-1.77,10.95-2.84,13.33c-1.07,2.38-6.12,1.24-6.61,9.88L177.13,101.95z"/>
				<g>
					<g>
						<g>
							<path class="st46" d="M163.32,83.55c-1.31-1.31-3.39-1.46-5.22-0.56c-1.7-9.77-9.29-16.63-17.04-15.35
								c-6.9,1.14-11.6,8.36-11.46,16.85c-1.52-0.39-3.08-0.09-4.14,0.97c-1.72,1.72-1.45,4.79,0.6,6.84
								c1.64,1.64,3.91,2.14,5.64,1.41c3.09,6.62,9.13,10.73,15.28,9.71c5.35-0.88,9.38-5.42,10.85-11.37
								c1.6,0.33,3.47-0.24,4.88-1.65C164.77,88.34,165.04,85.27,163.32,83.55z"/>
							<line class="st47" x1="129.95" y1="90.42" x2="126.75" y2="87.51"/>
							<line class="st47" x1="159.23" y1="88.95" x2="161.96" y2="85.6"/>
							<line class="st48" x1="131.5" y1="91.88" x2="131.71" y2="93.7"/>
							<line class="st48" x1="157.98" y1="90.24" x2="157.85" y2="92.06"/>
						</g>
						<path class="st45" d="M156.06,71.28c-3.34-4.99-7.83-7.84-10.02-6.37c-0.52,0.35-0.86,0.92-1.04,1.64
							c-0.12-0.56-0.37-1.01-0.75-1.32c-2.05-1.67-7.18,1.22-11.47,6.47c-4.29,5.25-6.11,10.85-4.06,12.53
							c2.05,1.67,7.18-1.22,11.47-6.47c2.57-3.14,4.24-6.4,4.74-8.87c0.27,2.21,1.37,5,3.19,7.71c3.34,4.99,7.83,7.84,10.02,6.37
							C160.32,81.5,159.4,76.27,156.06,71.28z"/>
					</g>
					<g>
						<path class="st49" d="M142.02,90.58c0,2.15-1.74,3.89-3.88,3.89s-3.88-1.74-3.88-3.89c0-2.15,1.74-3.89,3.88-3.89
							S142.02,88.44,142.02,90.58z"/>
						<path class="st49" d="M155.61,90.58c0,2.15-1.74,3.89-3.88,3.89s-3.88-1.74-3.88-3.89c0-2.15,1.74-3.89,3.88-3.89
							S155.61,88.44,155.61,90.58z"/>
						<g>
							<path class="st22" d="M152.96,85.71c0,0.96-0.55,1.74-1.22,1.74s-1.22-0.78-1.22-1.74c0-0.96,0.55-1.74,1.22-1.74
								S152.96,84.75,152.96,85.71z"/>
							<path class="st22" d="M139.55,85.71c0,0.96-0.55,1.74-1.22,1.74c-0.68,0-1.22-0.78-1.22-1.74c0-0.96,0.55-1.74,1.22-1.74
								C139,83.98,139.55,84.75,139.55,85.71z"/>
						</g>
						<g>
							<path class="st50" d="M142.8,89.94c0.25,1.57,1.22,2.65,2.29,2.6c1-0.05,1.88-1.12,2.12-2.6"/>
						</g>
						<g>
							<path class="st27" d="M145.71,88.53c-2.24,0.4-1.38-2.2-1.38-2.2c0.09,0,0.78,0.05,1.21,0.64
								C146.06,87.67,145.73,88.49,145.71,88.53z"/>
							<g>
								<path class="st50" d="M144.39,86.06c0,0-0.73,2.91,1.51,2.51"/>
							</g>
						</g>
						<g>
							<path class="st22" d="M134.47,81.53c-0.01-0.59,0.24-1.15,0.62-1.58c0.37-0.45,0.88-0.75,1.42-0.96
								c0.55-0.18,1.11-0.25,1.66-0.18c0.27,0.02,0.54,0.11,0.8,0.19c0.25,0.13,0.51,0.23,0.74,0.41l-0.01,0.08
								c-0.49-0.04-0.99-0.06-1.48-0.01c-0.49,0.05-0.97,0.15-1.43,0.31c-0.91,0.32-1.77,0.92-2.25,1.78L134.47,81.53z"/>
						</g>
						<g>
							<path class="st22" d="M149.01,79.41c0.35-0.47,0.89-0.77,1.45-0.88c0.57-0.13,1.16-0.06,1.71,0.09
								c0.54,0.19,1.04,0.47,1.43,0.87c0.2,0.18,0.36,0.42,0.52,0.64c0.12,0.26,0.26,0.49,0.34,0.77l-0.06,0.06
								c-0.37-0.33-0.75-0.65-1.16-0.91c-0.42-0.26-0.86-0.47-1.33-0.62c-0.92-0.3-1.96-0.34-2.86,0.05L149.01,79.41z"/>
						</g>
					</g>
				</g>
			</g>
		</g>
		<g>
			<g>
				<path class="st51" d="M124.93,229.64L124.93,229.64c-13.72,19.14-20.21,22.01-20.21,22.01c-1.86,0.82-9.68,4.28-14.81,0.81
					c-3.19-2.16-5.22-6.83-4.49-17.59c5.09-74.94,56.54-66.54,56.54-66.54v-16.91h17.12l0.54,15.26c0,0,58.03-6.75,63.12,68.19
					c0.73,10.77-1.3,15.43-4.49,17.59c-5.13,3.47-12.94,0.02-14.81-0.81c0,0-6.5-2.87-20.21-22.01l0,0H124.93z"/>
				<path class="st52" d="M141.64,156.52c3.47,1.78,7.28,2.39,11.02,1.5l-11.02,7.95V156.52z"/>
			</g>
			<g>
				<g>
					<g>
						<path class="st53" d="M137.94,438.83l-0.34,10.23c0,0-18.15-6.4-20.84,11.22l46.55-0.04l-0.27-20.37L137.94,438.83z"/>
						<g>
							<path class="st1" d="M157.44,457.34c-6.95,0.1-13.9,0.42-20.85,0.75c-6.52,0.31-13.03,0.61-19.55,0.77
								c-0.1,0.46-0.19,0.93-0.27,1.43l46.55-0.04l-0.04-2.93C161.33,457.29,159.39,457.31,157.44,457.34z"/>
							<path class="st1" d="M128.2,457.64c-0.03-0.32-0.07-0.63-0.14-0.95c-0.01-0.02,0-0.05,0-0.07c-0.36-2.19-0.79-4.39-1.55-6.45
								c-0.21-0.55-0.44-1.09-0.69-1.62c-3.65,1.06-7.1,3.7-8.6,9.51c3.41-0.08,6.83-0.2,10.24-0.34c0.25-0.01,0.5-0.02,0.76-0.03
								C128.21,457.68,128.2,457.66,128.2,457.64z"/>
							<line class="st54" x1="137.77" y1="444.07" x2="144.43" y2="444.09"/>
							<line class="st54" x1="137.62" y1="448.59" x2="144.39" y2="448.87"/>
							<line class="st54" x1="159.36" y1="438.62" x2="159.77" y2="458.79"/>
						</g>
					</g>
					<g>
						<path class="st53" d="M194.11,438l0.37,10.23c0,0,18.13-6.48,20.88,11.12l-46.55,0.17l0.19-20.37L194.11,438z"/>
						<g>
							<path class="st1" d="M174.67,456.6c6.95,0.07,13.91,0.36,20.86,0.65c6.52,0.28,13.04,0.55,19.56,0.68
								c0.1,0.46,0.19,0.93,0.27,1.42l-46.55,0.17l0.03-2.93C170.78,456.57,172.73,456.58,174.67,456.6z"/>
							<path class="st1" d="M203.92,456.77c0.03-0.32,0.07-0.64,0.13-0.95c0.01-0.02,0-0.05,0-0.07c0.35-2.19,0.77-4.39,1.53-6.46
								c0.2-0.56,0.43-1.09,0.68-1.62c3.65,1.05,7.11,3.66,8.63,9.47c-3.41-0.07-6.83-0.17-10.24-0.3c-0.25-0.01-0.5-0.02-0.76-0.03
								C203.9,456.8,203.91,456.79,203.92,456.77z"/>
							<line class="st54" x1="194.3" y1="443.24" x2="187.64" y2="443.3"/>
							<line class="st54" x1="194.46" y1="447.76" x2="187.69" y2="448.07"/>
							<line class="st54" x1="173.86" y1="437.59" x2="174.27" y2="457.76"/>
						</g>
					</g>
				</g>
				<g>
					<path class="st55" d="M138.02,166.75c0,0-2.03,23.18,13.69,21.56c15.72-1.63,12.61-22.82,12.61-22.82s43.26-5.52,56.66,38.33
						c0,0-2.71,0.81-33.49,9.42l-0.08,21.62l-62.48,2.49l-1.44-18.46c0,0-2-0.28-37.05-5.21
						C86.43,213.68,95.74,167.08,138.02,166.75z"/>
					<g>
						<defs>
							<path id="SVGID_11_" d="M123.52,237.35c0,0-11.13,75.96,1.66,205.59l38.35-1.18c0,0-8.94-121.11-8.98-146.82l3.59-0.11
								c2.05,25.17,10.79,148.11,10.79,148.11l39.85-2.11C211.67,331.51,186,234.86,186,234.86L123.52,237.35z"/>
						</defs>
						<clipPath id="SVGID_12_">
							<use xlink:href="#SVGID_11_"  style="overflow:visible;"/>
						</clipPath>
						<path class="st56" d="M123.52,237.35c0,0-11.13,75.96,1.66,205.59l38.35-1.18c0,0-8.94-121.11-8.98-146.82l3.59-0.11
							c2.05,25.17,10.79,148.11,10.79,148.11l39.85-2.11C211.67,331.51,186,234.86,186,234.86L123.52,237.35z"/>
						<g class="st57">
							<path class="st58" d="M123.44,424.02c10.13-4.24,13.44-19.62,12.87-30.73c-0.82-15.93-4.42-25.79-18.68-30.15L123.44,424.02z
								"/>
						</g>
						<g class="st57">
							<path class="st59" d="M209,369.15c-18.77-0.2-14.3-25.32-19.63-36.02c-3.98-8.01-8.86-12.05-5.88-21.93
								c2.01-6.66,10.74-11.71,15.97-16.1L209,369.15z"/>
						</g>
						<g class="st57">
							<path class="st60" d="M117.63,279.09c4.39,1.31,8.96,2,13.42,0.58c9.02-2.86,8.63-8.56,13.32-15.25
								c7.19-10.27,23.36-13.03,15.28-28.69l-36.14,1.62L117.63,279.09z"/>
						</g>
						<g class="st57">
							<path class="st61" d="M168.93,442.94c-6.27-11.81,16.42-22.44,21.45-27.78c6.83-7.26,4.74-22.81,17.98-17.33l0.42,43
								L168.93,442.94z"/>
							<g>
								<path class="st61" d="M169.44,442.64c-2.17-4.21-0.29-8.46,2.57-11.8c3.19-3.73,7.25-6.65,11.23-9.47
									c3.03-2.15,6.52-4.17,8.74-7.23c2.53-3.48,3.5-7.75,5.27-11.62c0.8-1.76,1.84-3.66,3.6-4.62c2.31-1.25,5.09-0.42,7.35,0.49
									c-0.15-0.19-0.29-0.38-0.44-0.57c0.05,4.84,0.09,9.68,0.14,14.52c0.08,7.72,0.15,15.44,0.23,23.15
									c0.02,1.78,0.03,3.55,0.05,5.33c0.2-0.2,0.4-0.4,0.59-0.59c-11.63,0.62-23.25,1.23-34.88,1.85
									c-1.66,0.09-3.31,0.18-4.97,0.26c-0.76,0.04-0.77,1.23,0,1.19c11.63-0.62,23.25-1.23,34.88-1.85
									c1.66-0.09,3.31-0.18,4.97-0.26c0.32-0.02,0.6-0.26,0.59-0.59c-0.05-4.84-0.09-9.68-0.14-14.52
									c-0.08-7.72-0.15-15.44-0.23-23.15c-0.02-1.78-0.03-3.55-0.05-5.33c0-0.29-0.19-0.47-0.44-0.57
									c-2.14-0.87-4.58-1.55-6.88-0.93c-1.74,0.47-3.08,1.68-4.08,3.15c-2.49,3.65-3.26,8.23-5.36,12.09
									c-2.08,3.82-5.65,6.03-9.12,8.48c-4.17,2.95-8.46,5.97-11.82,9.86c-3.27,3.79-5.3,8.57-2.84,13.34
									C168.76,443.92,169.79,443.32,169.44,442.64z"/>
							</g>
						</g>
						<g class="st57">
							<path class="st62" d="M116.6,332.12c3.99,3.3,12.22,0.78,15.38-2.66c5.17-5.64,3.22-8.5,0.4-14.2
								c12.67-8.28-8.33-23.63-14.75-14.7L116.6,332.12z"/>
						</g>
						<g class="st57">
							<path class="st63" d="M196.35,281.09c-7.59,7.79-15.99-4.11-12.2-11.95c-8.68-2.66-1.58-17.5,5.35-19.59L196.35,281.09z"/>
						</g>
						<g class="st57">
							<path class="st64" d="M160.45,376.33c-1.09-1.18-4.49-2.67-6.2-4.26c-1.87-1.73-3.98-4.05-4.58-6.49
								c-1.14-4.64,2.26-10.1,7.66-10.53L160.45,376.33z"/>
						</g>
					</g>
				</g>
			</g>
		</g>
		<g>
			<g>
				<path class="st65" d="M141.64,167.67L141.64,167.67l0.32-10.63l-5.25-3.14c-42.62,20.95-0.83,79.81-0.83,79.81
					c-6.61,10.09,0.62,13.4,0.62,13.4l12.78-13.4C137.54,215.62,141.64,167.67,141.64,167.67z"/>
				<path class="st65" d="M160.08,165.02L160.08,165.02l-0.56-11.12l3.84-4.65c42.62,20.95,2.48,81.8,2.48,81.8
					c6.61,10.09-0.62,13.4-0.62,13.4l-12.78-13.4C164.17,212.97,160.08,165.02,160.08,165.02z"/>
				<g>
					<path class="st44" d="M136.45,158.27c1.81,0.27,3.63,0.44,5.46,0.55l0.05-1.79l-5.25-3.14c-2.06,1.01-3.9,2.11-5.58,3.29
						C132.88,157.65,134.66,158,136.45,158.27z"/>
					<path class="st44" d="M163.12,157.88c3.42-0.38,6.86-0.88,10.21-1.69c-2.65-2.61-5.93-4.96-9.97-6.94l-3.84,4.65l0.22,4.35
						C160.87,158.13,161.99,158.01,163.12,157.88z"/>
				</g>
				<g>
					<g>
						<path class="st66" d="M133.23,229.65c1.6,2.57,2.65,4.05,2.65,4.05c-6.61,10.09,0.62,13.4,0.62,13.4l13.13-13.41
							c-1.53-3.3-3.04-7.79-4.21-12.09C141.52,223.81,137,227.23,133.23,229.65z"/>
						<path class="st67" d="M134.51,245.46c0.94,1.16,1.99,1.64,1.99,1.64l13.13-13.41c-0.32-0.69-0.64-1.45-0.96-2.24
							C143.97,236.15,139.42,240.99,134.51,245.46z"/>
					</g>
					<g>
						<path class="st66" d="M168.65,226.38c-5.37-2.18-8.38-4.05-12.83-5.81c-1.03,3.19-2.4,6.79-3.66,10.41l13.05,13.47
							c0,0,7.23-3.31,0.62-13.4C165.84,231.05,166.97,229.33,168.65,226.38z"/>
						<path class="st67" d="M152.78,229.26c-0.2,0.57-0.41,1.14-0.61,1.72l13.05,13.47c0,0,0.98-0.45,1.89-1.52
							C162.1,238.63,157.22,234.16,152.78,229.26z"/>
					</g>
				</g>
			</g>
			<g>
				<path class="st46" d="M110.83,152.46c-1.62,10.2,6.35,14.65,6.35,14.65c6.39,4.21,12.93,6.52,29.22,9.27
					c3.96,0.67-1.34-2.05-1.34-2.05s4.26,0.12,4.17-0.91c-0.06-0.72-4.58-1.01-4.58-1.01s4.6,0.05,4.62-0.85
					c0.03-0.95-4.69-1.28-4.69-1.28s4.72-0.03,4.24-0.83c-0.66-1.11-6.14-1.85-6.14-1.85s2.13-1.43,3.11-2.7
					c1.52-1.96-6.37,0.14-6.37,0.14l-11.59-13.66l-3.95-4.88L110.83,152.46z"/>
				<line class="st68" x1="139.43" y1="165.07" x2="138.21" y2="165.97"/>
			</g>
		</g>
		<g>
			<g>
				<g>
					<path class="st11" d="M172.22,132.6c-1.7-1.7-4.39-1.9-6.76-0.73c-2.21-12.67-12.05-21.56-22.09-19.9
						c-8.94,1.48-15.04,10.84-14.86,21.84c-1.97-0.51-4-0.12-5.37,1.25c-2.23,2.23-1.88,6.21,0.78,8.87
						c2.12,2.12,5.07,2.77,7.31,1.82c4,8.58,11.84,13.9,19.8,12.59c6.93-1.15,12.15-7.03,14.07-14.74c2.07,0.43,4.5-0.31,6.33-2.13
						C174.11,138.81,174.46,134.84,172.22,132.6z"/>
					<line class="st15" x1="128.96" y1="141.51" x2="124.82" y2="137.74"/>
					<line class="st15" x1="166.92" y1="139.6" x2="170.46" y2="135.26"/>
					<line class="st17" x1="130.97" y1="143.41" x2="131.24" y2="145.76"/>
					<line class="st17" x1="165.31" y1="141.28" x2="165.13" y2="143.64"/>
				</g>
				<g>
					<path d="M173.69,116.09c0-6.76-5.93-12.24-13.25-12.24c-2.07,0-4.02,0.45-5.76,1.23c-1.12-1.69-2.67-3.1-4.6-4.04
						c-6.04-2.94-13.46-0.16-16.56,6.21c-0.53,1.09-0.89,2.22-1.11,3.36c-3.37-1.9-9.6-4.07-8.36,6.81
						c1.67,14.79,5.93,18.75,5.93,18.75h2.64l-0.85-7.08c1.89-0.06,3.73-1,4.87-2.69c0.62-0.91,0.95-1.93,1.02-2.96
						c0.38,0.24,0.77,0.47,1.18,0.67c3.65,1.78,7.8,1.45,11.2-0.48c2.43,2.84,6.18,4.68,10.4,4.68c0.87,0,1.72-0.08,2.54-0.23
						l1.35,8.51l2.41-0.35c0-0.56,0-6.07,0-9.4C170.89,124.79,173.69,120.74,173.69,116.09z"/>
				</g>
				<g>
					<path class="st69" d="M144.04,141.22c0.37,2.61-1.44,5.02-4.05,5.39c-2.61,0.37-5.02-1.44-5.39-4.05
						c-0.37-2.61,1.44-5.02,4.05-5.39C141.25,136.8,143.67,138.61,144.04,141.22z"/>
					<path class="st69" d="M162.98,140.27c0.37,2.61-1.44,5.02-4.05,5.39c-2.61,0.37-5.02-1.44-5.39-4.05
						c-0.37-2.61,1.44-5.02,4.05-5.39C160.2,135.85,162.61,137.66,162.98,140.27z"/>
					<path class="st70" d="M157.63,133.69c0.01,0.89-0.48,1.62-1.11,1.63c-0.63,0.01-1.15-0.7-1.17-1.59
						c-0.01-0.89,0.48-1.62,1.11-1.63C157.1,132.09,157.62,132.8,157.63,133.69z"/>
					<path class="st70" d="M140.9,134.46c0.08,0.89-0.36,1.65-0.99,1.71c-0.63,0.06-1.2-0.62-1.28-1.5
						c-0.08-0.89,0.36-1.65,0.99-1.71S140.82,133.57,140.9,134.46z"/>
					<g>
						<path class="st22" d="M136.45,128.78c-0.01-0.59,0.24-1.15,0.62-1.58c0.37-0.45,0.88-0.75,1.42-0.96
							c0.55-0.18,1.11-0.25,1.66-0.18c0.27,0.02,0.54,0.11,0.8,0.19c0.25,0.13,0.51,0.23,0.74,0.41l-0.01,0.08
							c-0.49-0.04-0.99-0.06-1.48-0.01c-0.49,0.05-0.97,0.15-1.43,0.31c-0.91,0.32-1.77,0.92-2.25,1.78L136.45,128.78z"/>
					</g>
					<g>
						<path class="st22" d="M153.77,126.92c0.35-0.47,0.89-0.77,1.45-0.88c0.57-0.13,1.16-0.06,1.71,0.09
							c0.54,0.19,1.04,0.47,1.43,0.87c0.2,0.18,0.36,0.42,0.52,0.64c0.12,0.26,0.26,0.49,0.34,0.77l-0.06,0.06
							c-0.37-0.33-0.75-0.65-1.16-0.91c-0.42-0.26-0.86-0.47-1.33-0.62c-0.92-0.3-1.96-0.34-2.86,0.05L153.77,126.92z"/>
					</g>
					<g>
						<g>
							<g>
								<path class="st22" d="M144.33,142.55c0.47,0,0.92,0.04,1.37,0.03c0.45,0.01,0.89,0.01,1.33-0.03
									c0.87-0.06,1.74-0.16,2.53-0.44c0.81-0.22,1.55-0.63,2.11-1.21c0.58-0.57,0.87-1.4,0.99-2.32l0.06,0
									c0.08,0.9-0.1,1.88-0.7,2.59c-0.57,0.73-1.42,1.19-2.28,1.47c-1.77,0.53-3.66,0.4-5.42-0.05L144.33,142.55z"/>
							</g>
						</g>
					</g>
					<g>
						<polyline class="st71" points="148.28,132.95 147.88,138.13 149.78,137.6 						"/>
						<polyline class="st50" points="148.28,132.95 147.88,138.13 149.78,137.6 						"/>
					</g>
				</g>
			</g>
			<g>
				<g>
					<defs>
						<path id="SVGID_13_" d="M118.86,238.04c21.9-30.57,31.26-45.27,27.56-45.3c-1.06-0.01-5.35,4.65-5.35,4.65
							s9.54-11.33,4.84-10.89c-2.2,0.21-8.47,8.22-8.47,8.22s8.94-10.41,6.1-12c-2.19-1.23-10.73,9.35-10.73,9.35
							s6.99-8.69,5.05-10.18c-1.91-1.47-13.77,10.91-13.77,10.91s2.42-5.21-0.09-6.06c-3.51-1.18-9.79,17.16-9.79,17.16l-19.64,15.5
							"/>
					</defs>
					<clipPath id="SVGID_14_">
						<use xlink:href="#SVGID_13_"  style="overflow:visible;"/>
					</clipPath>
					<path class="st72" d="M118.86,238.04c21.9-30.57,31.26-45.27,27.56-45.3c-1.06-0.01-5.35,4.65-5.35,4.65s9.54-11.33,4.84-10.89
						c-2.2,0.21-8.47,8.22-8.47,8.22s8.94-10.41,6.1-12c-2.19-1.23-10.73,9.35-10.73,9.35s6.99-8.69,5.05-10.18
						c-1.91-1.47-13.77,10.91-13.77,10.91s2.42-5.21-0.09-6.06c-3.51-1.18-9.79,17.16-9.79,17.16l-19.64,15.5"/>
					<line class="st73" x1="134.09" y1="190.54" x2="131.11" y2="194.15"/>
					<line class="st74" x1="139.1" y1="192.69" x2="135.79" y2="197.26"/>
					<line class="st74" x1="142.1" y1="196.13" x2="139.63" y2="199.52"/>
					<line class="st74" x1="124.12" y1="192.64" x2="123.69" y2="196.38"/>
				</g>
				<g>
					<defs>
						<path id="SVGID_15_" d="M188.95,238.04c-21.9-30.57-31.26-45.27-27.56-45.3c1.06-0.01,5.35,4.65,5.35,4.65
							s-9.54-11.33-4.84-10.89c2.2,0.21,8.47,8.22,8.47,8.22s-8.94-10.41-6.1-12c2.19-1.23,10.73,9.35,10.73,9.35
							s-6.99-8.69-5.05-10.18c1.91-1.47,13.77,10.91,13.77,10.91s-2.42-5.21,0.09-6.06c3.51-1.18,9.79,17.16,9.79,17.16l19.64,15.5"
							/>
					</defs>
					<clipPath id="SVGID_16_">
						<use xlink:href="#SVGID_15_"  style="overflow:visible;"/>
					</clipPath>
					<path class="st75" d="M188.95,238.04c-21.9-30.57-31.26-45.27-27.56-45.3c1.06-0.01,5.35,4.65,5.35,4.65
						s-9.54-11.33-4.84-10.89c2.2,0.21,8.47,8.22,8.47,8.22s-8.94-10.41-6.1-12c2.19-1.23,10.73,9.35,10.73,9.35
						s-6.99-8.69-5.05-10.18c1.91-1.47,13.77,10.91,13.77,10.91s-2.42-5.21,0.09-6.06c3.51-1.18,9.79,17.16,9.79,17.16l19.64,15.5"
						/>
					<line class="st76" x1="173.72" y1="190.54" x2="176.71" y2="194.15"/>
					<line class="st77" x1="168.71" y1="192.69" x2="172.03" y2="197.26"/>
					<line class="st77" x1="165.71" y1="196.13" x2="168.18" y2="199.52"/>
					<line class="st77" x1="183.7" y1="192.64" x2="184.12" y2="196.38"/>
				</g>
			</g>
		</g>
	</g>
	<g>
		<g>
			<path d="M416.09,128.86c-29.29-5.84-29.6,30.56-39.7,49.63c-5.3,10.01-12.79,12.84-21.24,18.9c-8.03,5.75-18.1,19.2-12.97,29.91
				c3.65,7.63,10.78,13.18,9.05,22.95c-2,11.32-14.37,19.88-9.77,32.55c3.63,10,14.56,17.49,24.43,19.32
				c11.46,2.13,24.98-11.06,34.1-3.46c0.54,0.45,1.15,0.79,1.79,1.07c4.95,2.16,23.76,9.42,32.74-0.8
				c8.36-9.51,24.4,3.65,34.71,2.13c9.95-1.47,20.7-9.81,24.22-19.89c4.46-12.78-7.99-21.05-10.12-32.32
				c-1.83-9.73,5.23-15.45,8.8-23.16c5.01-10.83-5.2-24.04-13.29-29.6c-8.52-5.86-16.03-8.51-21.44-18.4
				c-10.17-18.59-10.98-54.29-39.12-48.91C417.57,128.92,416.83,128.96,416.09,128.86L416.09,128.86z"/>
			<g>
				<path d="M416.68,126.72c-4.27-0.83-8.72-1.05-12.95,0.14c-3.48,0.98-6.63,2.88-9.22,5.39c-5.55,5.38-8.53,12.97-11,20.12
					c-2.52,7.28-4.55,15.24-7.58,22.02c-2.03,4.55-4.73,8.58-8.53,11.85c-4.11,3.53-8.97,6.07-13.35,9.23
					c-4.29,3.1-7.98,7.06-10.83,11.52c-2.87,4.5-5.05,9.96-4.58,15.39c0.49,5.61,3.93,9.97,6.86,14.54c2.76,4.31,4.61,8.82,3.33,14
					c-2.35,9.56-11.24,16.83-10.57,27.27c0.74,11.54,11.24,20.5,21.33,24.43c2.49,0.97,5.15,1.72,7.82,1.92
					c2.39,0.18,4.84-0.21,7.16-0.78c4.93-1.22,9.53-3.49,14.47-4.69c1.85-0.45,3.97-0.77,5.75-0.45c2.4,0.43,3.83,2.13,6,3.08
					c3.11,1.37,6.35,2.5,9.65,3.34c4.46,1.13,9.17,1.8,13.76,1.23c2.42-0.3,4.73-0.9,6.92-1.97c2.24-1.1,3.84-2.74,5.6-4.44
					c2.86-2.76,6.95-2.44,10.68-1.57c4.63,1.07,9.02,2.95,13.61,4.15c2.17,0.57,4.45,1.01,6.7,0.97c2.55-0.05,5.14-0.73,7.51-1.63
					c5.36-2.03,10.25-5.36,14.09-9.63c3.76-4.18,6.77-9.39,7.27-15.08c0.44-5.06-1.59-9.85-4.03-14.16
					c-2.35-4.16-5.28-8.15-6.62-12.79c-1.49-5.12-0.03-9.68,2.64-14.1c2.74-4.53,6.27-8.86,6.96-14.27
					c0.71-5.52-1.31-11.06-4.22-15.68c-2.83-4.49-6.54-8.47-10.85-11.56c-4.25-3.05-8.99-5.4-13.14-8.6
					c-7.38-5.7-10.48-13.99-13.33-22.42c-2.59-7.67-4.85-15.57-8.67-22.75c-3.47-6.52-8.71-12.39-16.17-14.12
					c-1.93-0.45-3.93-0.64-5.9-0.61c-2.37,0.05-4.81,0.84-7.16,0.63c-1.2-0.11-2.22,1.1-2.22,2.22c0,1.29,1.02,2.11,2.22,2.22
					c2.36,0.22,4.78-0.58,7.16-0.63c2-0.04,3.43,0.09,5.3,0.59c3.08,0.82,5.62,2.41,7.87,4.71c4.94,5.04,7.67,12.35,10.01,19.09
					c2.56,7.39,4.66,15.02,8.1,22.07c2.25,4.61,5.36,8.71,9.39,11.92c4.13,3.3,8.8,5.78,13.18,8.73c4.04,2.73,7.55,6.34,10.19,10.44
					c2.57,4,4.69,8.97,3.78,13.82c-0.92,4.88-4.62,8.91-7.01,13.13c-2.71,4.79-3.96,9.98-2.65,15.42c1.13,4.7,3.82,8.84,6.26,12.95
					c2.26,3.8,4.56,7.89,4.54,12.44c-0.02,5.07-2.95,9.9-6.28,13.52c-3.63,3.94-8.26,7.12-13.39,8.73c-2.24,0.71-4.01,1.07-6.27,0.9
					c-2-0.15-4.13-0.74-6.14-1.35c-4.42-1.34-8.75-3.13-13.31-3.92c-4.45-0.77-8.98-0.48-12.59,2.5c-1.67,1.38-2.87,3-4.82,4.05
					c-1.73,0.93-3.7,1.46-5.65,1.69c-4.25,0.49-8.57-0.18-12.68-1.27c-1.78-0.47-3.54-1.03-5.28-1.66c-0.65-0.24-1.3-0.49-1.95-0.75
					c-0.15-0.06-1.06-0.44-0.44-0.18c-0.42-0.18-0.85-0.36-1.25-0.58c-1.02-0.56-1.85-1.4-2.9-1.94c-1.04-0.54-2.15-0.96-3.3-1.17
					c-2.31-0.43-4.61-0.27-6.9,0.18c-4.74,0.94-9.15,3.06-13.76,4.44c-2.17,0.65-4.38,1.17-6.66,1.19
					c-2.35,0.01-4.66-0.65-6.86-1.43c-4.97-1.76-9.56-4.76-13.16-8.61c-3.36-3.59-6.09-8.33-5.95-13.38
					c0.13-4.59,2.58-8.73,4.82-12.6c2.41-4.17,5.04-8.47,5.89-13.29c0.99-5.61-0.65-10.7-3.59-15.44c-2.5-4.03-6.23-8.12-6.71-13.02
					c-0.49-5.06,1.8-9.99,4.57-14.07c2.81-4.13,6.42-7.55,10.54-10.34c4.34-2.94,8.94-5.54,12.86-9.05
					c6.74-6.03,9.92-14.47,12.67-22.84c2.39-7.28,4.44-14.9,7.74-21.65c1.54-3.15,3.29-6.03,5.56-8.41c2.2-2.31,4.73-3.96,7.67-4.82
					c3.45-1.01,7.11-0.92,10.82-0.2C418.29,131.55,419.49,127.27,416.68,126.72z"/>
			</g>
		</g>
		<g>
			<path class="st78" d="M429.68,423.88l-1.37,33.11l5.77,0.22l-0.09-3.32l32.59,4.42c0,0,3.96-10.32-15.71-16.83l2.33-16.83
				L429.68,423.88z"/>
			<path class="st79" d="M394.14,427.75l-1.26,31.39l5.3,0.21l-0.09-3.15l29.92,4.19c0,0,3.64-9.79-14.42-15.96l2.14-15.96
				L394.14,427.75z"/>
		</g>
		<g>
			<g>
				<path class="st46" d="M411.11,172.35v12.55c0,0-15.02-1.65-25.04,9.55c-10.02,11.2-26.32,53.55-7.41,61.01
					c18.92,7.46,61.27-42.36,61.27-42.36l0,0c0,0,11.55,24.75,33.3,23.02c23.07-1.83,14.4-91.92,12.11-92.48
					c-2.29-0.55-2.49,9.06-2.49,9.06s0-17.66-2.3-13.76c-2.29,3.9-2.73,14.01-2.73,14.01s0.38-20.31-2.56-16.95
					c-3.04,3.48-2.31,16.87-2.31,16.87s-0.85-17.44-3.15-16.38c-2.94,1.35-1.16,17.74-1.16,17.74s-4.14-6.6-5.98-4.29
					c-1.83,2.31,2.58,16.95,5.79,20.82l-3.49,40.73c0,0-20.88-29.18-39.68-26.58l-0.17-12.11L411.11,172.35z"/>
				<path class="st80" d="M420.71,178.45c-0.45,0.04-0.91,0.07-1.37,0.07c-3.18,0-6.17-1.04-8.81-2.89v8.77L420.71,178.45z"/>
			</g>
			<g>
				<line class="st81" x1="470.52" y1="151.46" x2="484.1" y2="151.22"/>
				<path class="st81" d="M468.46,154.02c0,0,7.25,2,7.43,11.05"/>
			</g>
		</g>
		<g>
			<g>
				<path class="st82" d="M418.81,135.91c-8.33,0-15.15,8.7-15.77,19.74c-0.8-0.49-1.73-0.77-2.73-0.77c-2.91,0-5.26,2.36-5.26,5.26
					c0,2.91,2.36,5.26,5.26,5.26c1.35,0,2.57-0.51,3.5-1.34c2.1,8.48,8.02,14.6,15.01,14.6c8.74,0,15.82-9.57,15.82-21.38
					S427.55,135.91,418.81,135.91z"/>
				<line class="st83" x1="403.74" y1="162.86" x2="403.6" y2="164.81"/>
				<line class="st84" x1="401.77" y1="162.33" x2="398.04" y2="158.6"/>
			</g>
			<g>
				<path class="st85" d="M417.2,163.8c0.06,2.34-1.79,4.27-4.12,4.33c-2.34,0.06-4.27-1.79-4.33-4.12
					c-0.06-2.34,1.79-4.27,4.12-4.33C415.21,159.62,417.15,161.47,417.2,163.8z"/>
				<path class="st85" d="M433.28,163.31c0.06,2.34-1.79,4.27-4.12,4.33c-2.34,0.06-4.27-1.79-4.33-4.12
					c-0.06-2.34,1.79-4.27,4.12-4.33C431.28,159.13,433.22,160.97,433.28,163.31z"/>
				<g>
					<path class="st86" d="M430.13,157.37c-0.01,1.04-0.62,1.88-1.35,1.87c-0.74-0.01-1.33-0.86-1.32-1.9
						c0.01-1.04,0.62-1.88,1.35-1.87C429.56,155.47,430.14,156.33,430.13,157.37z"/>
					<path class="st86" d="M413.82,157.74c-0.01,1.04-0.62,1.88-1.35,1.87c-0.74-0.01-1.33-0.86-1.32-1.9
						c0.01-1.04,0.62-1.88,1.35-1.87C413.24,155.85,413.83,156.7,413.82,157.74z"/>
				</g>
				<g>
					<path class="st62" d="M425.29,163.41c0,0-0.96,4.09-3.95,4.1c-2,0-3.66-2.1-4.45-3.75c0.01,0.03,0.74-0.1,0.82-0.1
						c0.28-0.03,0.55-0.06,0.83-0.08c1.08-0.09,2.16-0.13,3.24-0.14C423.05,163.41,424.02,163.41,425.29,163.41z"/>
					<g>
						<path d="M415.74,163.21c0.86,0.5,1.76,0.86,2.67,1.14c0.91,0.26,1.85,0.38,2.78,0.32c0.92-0.06,1.85-0.25,2.71-0.64
							c0.45-0.15,0.85-0.43,1.29-0.64c0.43-0.23,0.81-0.54,1.25-0.78c-0.32,0.37-0.66,0.74-1.03,1.09c-0.4,0.3-0.78,0.66-1.24,0.87
							c-0.87,0.54-1.91,0.8-2.94,0.87C419.15,165.56,417.09,164.67,415.74,163.21z"/>
					</g>
				</g>
				<g>
					<polyline class="st87" points="420.85,156.72 420.24,161.45 422.01,161.05 					"/>
					<polyline class="st88" points="420.85,156.72 420.24,161.45 422.01,161.05 					"/>
				</g>
				<g>
					<path class="st22" d="M409.51,152.97c-0.01-0.55,0.22-1.08,0.58-1.48c0.35-0.42,0.83-0.71,1.33-0.91
						c0.51-0.17,1.05-0.24,1.57-0.17c0.26,0.02,0.51,0.1,0.75,0.18c0.24,0.13,0.48,0.21,0.69,0.38l-0.01,0.08
						c-0.46-0.04-0.93-0.06-1.39-0.01c-0.46,0.04-0.91,0.14-1.35,0.3c-0.86,0.3-1.66,0.87-2.11,1.67L409.51,152.97z"/>
				</g>
				<g>
					<path class="st22" d="M425.82,151.21c0.33-0.45,0.83-0.73,1.37-0.83c0.53-0.12,1.09-0.06,1.61,0.09
						c0.51,0.18,0.98,0.45,1.35,0.81c0.19,0.17,0.34,0.39,0.49,0.6c0.11,0.25,0.25,0.46,0.32,0.72l-0.06,0.06
						c-0.34-0.31-0.7-0.61-1.1-0.85c-0.39-0.24-0.81-0.44-1.25-0.58c-0.86-0.28-1.85-0.32-2.7,0.05L425.82,151.21z"/>
				</g>
			</g>
			<g>
				<path d="M400.32,151.36c-1.03,3.38,6.08-0.75,8.57-3.1c1.91-1.8,3.57-4.69,6.32-5.29c3.08-0.67,5.91,1.69,9.18,0.88
					c2.88-0.72,5.14-2.88,6.62-5.36C431.01,138.48,409.16,122.44,400.32,151.36z"/>
				<g>
					<path d="M398.03,150.73c-0.8,2.98,1.61,4.78,4.38,4.09c2.3-0.57,4.53-2.03,6.4-3.44c1.03-0.77,1.96-1.58,2.82-2.54
						c0.94-1.06,1.85-2.3,3.05-3.08c1.18-0.76,2.41-0.53,3.7-0.2c1.64,0.42,3.33,0.94,5.04,0.81c4.18-0.32,7.52-3.25,9.64-6.69
						c0.72-1.17,0.16-2.51-0.85-3.25c-2.57-1.88-5.73-3.23-8.79-4.03c-6.27-1.63-12.74-0.39-17.51,4.15
						C401.94,140.33,399.62,145.58,398.03,150.73c-0.91,2.93,3.68,4.18,4.58,1.26c1.26-4.06,3.06-8.27,5.87-11.29
						c0.55-0.59,1.14-1.15,1.77-1.66c0.58-0.47-0.35,0.24,0.24-0.19c0.12-0.09,0.24-0.17,0.37-0.26c0.36-0.24,0.73-0.47,1.11-0.68
						c0.31-0.17,0.62-0.32,0.93-0.48c0.12-0.06,0.25-0.11,0.37-0.17c-0.51,0.21,0.11-0.04,0.18-0.06c0.65-0.22,1.3-0.42,1.98-0.56
						c0.28-0.06,0.56-0.11,0.85-0.15c-0.62,0.09,0.31-0.03,0.49-0.04c0.67-0.05,1.35-0.05,2.02-0.02c0.3,0.01,0.6,0.04,0.9,0.07
						c0.12,0.01,0.24,0.03,0.36,0.04c0.61,0.07-0.53-0.09,0.07,0.01c0.6,0.1,1.19,0.22,1.78,0.36c1.07,0.27,2.12,0.62,3.15,1.02
						c0.12,0.04,0.23,0.09,0.35,0.14c0.31,0.13-0.55-0.25-0.1-0.04c0.21,0.1,0.43,0.19,0.64,0.29c0.41,0.19,0.81,0.39,1.21,0.6
						c0.91,0.48,1.82,0.99,2.64,1.6c-0.28-1.08-0.57-2.17-0.85-3.25c-1.69,2.75-4.32,4.92-7.69,4.12c-1.75-0.42-3.49-1.03-5.32-0.92
						c-1.92,0.12-3.53,0.94-4.99,2.15c-1.23,1.02-2.17,2.32-3.28,3.47c-0.93,0.96-1.55,1.41-2.65,2.13
						c-0.56,0.37-1.14,0.72-1.73,1.05c-0.24,0.13-0.49,0.26-0.74,0.39c-0.08,0.04-0.91,0.41-0.59,0.28
						c-0.21,0.08-0.42,0.16-0.63,0.22c-0.36,0.1-0.75-0.03-0.25,0.08c-0.05,0-0.1,0-0.15,0c0.44,0,0.81,0.17,1.14,0.5
						c0.32,0.32,0.49,0.7,0.52,1.13c-0.06,0.36-0.05,0.39,0.02,0.1C403.41,149.04,398.82,147.78,398.03,150.73z"/>
				</g>
			</g>
		</g>
		<g>
			<defs>
				<path id="SVGID_17_" d="M437.64,128.85l-9.62-48.76c-0.74-3.73-4.34-6.17-8.07-5.47l-34.44,6.47c-3.36,0.63-5.57,3.88-4.9,7.24
					l9.74,49.4l-4.47,0.84l0.4,2.55l57.21-10.67l-0.55-2.59L437.64,128.85z"/>
			</defs>
			<clipPath id="SVGID_18_">
				<use xlink:href="#SVGID_17_"  style="overflow:visible;"/>
			</clipPath>
			<g class="st89">
				<defs>
					
						<rect id="SVGID_19_" x="346.93" y="77.81" transform="matrix(0.9839 -0.1786 0.1786 0.9839 -12.6013 74.5527)" width="121.71" height="58.92"/>
				</defs>
				<clipPath id="SVGID_20_">
					<use xlink:href="#SVGID_19_"  style="overflow:visible;"/>
				</clipPath>
				
					<rect x="342.6" y="87.72" transform="matrix(0.9839 -0.1786 0.1786 0.9839 -10.0777 73.8871)" class="st90" width="125.5" height="10.39"/>
				
					<rect x="340.71" y="77.2" transform="matrix(0.9838 -0.1792 0.1792 0.9838 -8.2614 73.6317)" class="st91" width="125.5" height="10.69"/>
				
					<rect x="348.04" y="117.44" transform="matrix(0.9838 -0.1792 0.1792 0.9838 -15.3528 75.5922)" class="st92" width="125.5" height="10.69"/>
				
					<rect x="349.96" y="127.96" transform="matrix(0.9838 -0.1792 0.1792 0.9838 -17.2073 76.1095)" class="st93" width="125.5" height="10.69"/>
				
					<rect x="344.38" y="97.95" transform="matrix(0.9838 -0.1792 0.1792 0.9838 -11.8073 74.6136)" class="st94" width="125.5" height="9.43"/>
				
					<rect x="346.17" y="107.22" transform="matrix(0.9838 -0.1792 0.1792 0.9838 -13.5428 75.0913)" class="st95" width="125.5" height="10.59"/>
			</g>
		</g>
		<g>
			<path class="st96" d="M401.59,185.17c0,0,3.54,28.78,21.75,25.65c18.21-3.13,12.65-25.65,12.65-25.65s10.62,1.39,25.04,20.43
				l-13.04,23.12l-6.18-8.89l0.51,31.87l-48.14-0.07l1.67-23.46l-27.21-4.11C368.64,224.07,376.04,181.13,401.59,185.17z"/>
			<g>
				<path class="st97" d="M442.31,251.7l-48.14-0.07c0,0-4.03,18.95-4.86,42.21c-0.31,8.66,1.11,21.75,2.64,33.93
					c0.02,0.14,0.03,0.27,0.05,0.41c2.27,18.46,0.95,37.19-3.48,55.26l-13.49,54.96h44.89c0,0,28.47-83.37,9.48-138.33
					c7.18,13.3,8.95,32.59,9.39,52.38c0.8,36.24-9.81,65.37-14.76,86.02h46.39C504.87,320.5,442.31,251.7,442.31,251.7z
					 M394.18,251.64"/>
				<line class="st9" x1="421.07" y1="307.93" x2="445" y2="307.93"/>
			</g>
			<line class="st9" x1="394.81" y1="208.38" x2="391.08" y2="227.77"/>
		</g>
		<g>
			<g>
				<g>
					<g>
						<defs>
							<polygon id="SVGID_21_" points="460.49,182.8 430.92,199.67 419.77,179.32 449.35,162.45 							"/>
						</defs>
						<clipPath id="SVGID_22_">
							<use xlink:href="#SVGID_21_"  style="overflow:visible;"/>
						</clipPath>
						<g class="st98">
							<defs>
								
									<rect id="SVGID_23_" x="423.32" y="169.33" transform="matrix(0.8729 -0.4878 0.4878 0.8729 -32.6818 237.8546)" width="33.85" height="24.67"/>
							</defs>
							<clipPath id="SVGID_24_">
								<use xlink:href="#SVGID_23_"  style="overflow:visible;"/>
							</clipPath>
							
								<rect x="419.86" y="174.15" transform="matrix(0.8729 -0.4878 0.4878 0.8729 -30.4479 235.7475)" class="st99" width="34.91" height="4.35"/>
							
								<rect x="417.71" y="170.23" transform="matrix(0.8729 -0.4878 0.4878 0.8729 -28.8434 234.2007)" class="st100" width="34.91" height="4.48"/>
							
								<rect x="426.06" y="185.18" transform="matrix(0.8729 -0.4878 0.4878 0.8729 -35.0721 240.1831)" class="st101" width="34.91" height="4.48"/>
							
								<rect x="428.25" y="189.08" transform="matrix(0.8729 -0.4878 0.4878 0.8729 -36.7008 241.7449)" class="st102" width="34.91" height="4.48"/>
							
								<rect x="421.89" y="177.97" transform="matrix(0.8729 -0.4878 0.4878 0.8729 -31.9575 237.1937)" class="st103" width="34.91" height="3.95"/>
							
								<rect x="423.93" y="181.38" transform="matrix(0.8729 -0.4879 0.4879 0.8729 -33.4815 238.6621)" class="st104" width="34.91" height="4.43"/>
						</g>
					</g>
					<path class="st41" d="M445.89,226.55l-1.32,0.7l-26.83-48.22c0.01-0.07,0.09-0.5,0.48-0.75c0.44-0.28,0.91-0.1,0.96-0.08
						C427.41,193.15,437.67,211.61,445.89,226.55z"/>
				</g>
			</g>
			<g>
				<defs>
					<path id="SVGID_25_" d="M390.45,228.2l25.93-16.71c0,0,3.08-2.53,5.84-4.89c2.29-1.96,5.21-2.93,8.22-3.03
						c1.24-0.04,2.48-0.36,3.26-1.27c2.08-2.43,3.69,2.04,3.69,2.04c3.72-0.8,2.38,3.6,2.38,3.6c2.36-1.08,2.03,2.89,2.03,2.89
						c0.66-0.09,1.28,0.51,1.59,1.28c0.57,1.44,0,4-2.08,5.51l-35.97,28.77c0,0-18.91,15.47-30.31,6.86"/>
				</defs>
				<clipPath id="SVGID_26_">
					<use xlink:href="#SVGID_25_"  style="overflow:visible;"/>
				</clipPath>
				<path class="st105" d="M390.45,228.2l25.93-16.71c0,0,3.08-2.53,5.84-4.89c2.29-1.96,5.21-2.93,8.22-3.03
					c1.24-0.04,2.48-0.36,3.26-1.27c2.08-2.43,3.69,2.04,3.69,2.04c3.72-0.8,2.38,3.6,2.38,3.6c2.36-1.08,2.03,2.89,2.03,2.89
					c0.66-0.09,1.28,0.51,1.59,1.28c0.57,1.44,0,4-2.08,5.51l-35.97,28.77c0,0-18.91,15.47-30.31,6.86"/>
				<line class="st106" x1="434.91" y1="207" x2="437.84" y2="203.87"/>
				<line class="st106" x1="437.83" y1="210.13" x2="440.76" y2="207"/>
				<line class="st106" x1="439.66" y1="213.51" x2="442.59" y2="210.38"/>
			</g>
		</g>
	</g>
	<g>
		<path class="st107" d="M636.63,101.36c-2.63-1.74-7.04,0.3-9.87,4.56c-1.63,2.46-2.36,5.11-2.2,7.25
			c-3.79,0.58-7.75,3.5-10.29,8.05c-2.84,5.1-3.09,10.78-1.01,14.53c-1.3-0.26-2.65-0.4-4.03-0.4c-11.19,0-20.26,8.94-20.26,19.98
			s9.07,19.98,20.26,19.98s20.26-8.94,20.26-19.98c0-6.36-3.02-12.02-7.72-15.68c3.68-0.7,7.48-3.58,9.94-7.99
			c3.07-5.51,3.11-11.71,0.46-15.4c1.48-0.89,2.92-2.27,4.09-4.04C639.09,107.96,639.25,103.1,636.63,101.36z"/>
		<g>
			<g>
				<path class="st108" d="M667.22,428.01l1.23,31.16l-5.15,0.21l0.08-3.13l-29.08,4.16c0,0-3.54-9.71,14.02-15.84l-2.08-15.84
					L667.22,428.01z"/>
				<path class="st109" d="M647.57,444.85c-16.69,6.14-13.27,15.57-13.27,15.57l29.08-4.16l-0.08,3.13l5.15-0.21l-0.56-14.32H647.57
					z"/>
			</g>
			<g>
				<path class="st108" d="M631.61,422.56l10.54,29.35l-4.85,1.75l-0.86-3.01l-26.49,12.71c0,0-6.29-8.2,8.61-19.32l-6.74-14.48
					L631.61,422.56z"/>
				<path class="st109" d="M617.93,444.53c-14.07,10.87-7.98,18.84-7.98,18.84l26.49-12.71l0.86,3.01l4.85-1.75l-4.84-13.49
					L617.93,444.53z"/>
			</g>
		</g>
		<g>
			<path class="st10" d="M562.81,269.05c-1.2-1.65-3.31-1.31-3.31-1.31c-6,1.03-12.46,2.56-12.49,4.33
				c-0.04,2.37,5.09,1.89,5.09,1.89s-14.87,5.73-14.2,7.79c0.49,1.5,5.95,0.51,8.98-0.17c-3.33,0.85-9.62,2.67-9.34,4.31
				c0.41,2.41,8.75,0.71,11.39,0.1c-2.27,0.56-8.7,2.25-9.38,3.72c-1.78,3.83,11.34-0.05,11.34-0.05s-7.03,2.67-7.34,3.57
				c-0.69,2,8.47,0,22.27-4.41c0,0,38.91-14.87,39.72-49.2l-0.82,34.33l48.84-7.4l-9.59-50.6l20.4,28.91l-10.27,26.74l4.26,18.61
				c0,0,33.86-35.31,27.85-53.89c-6.01-18.58-40.61-64.18-64.83-41.35l-3.46-13.17l-11.87,2.45l1.58,12.68
				c0,0-12.79-3.61-20.54,33.2c-1.75,8.3-4.78,16.28-9.25,23.49C574.41,259.19,567.18,266.66,562.81,269.05"/>
			<g>
				<line class="st110" x1="546" y1="279.81" x2="551.46" y2="290.62"/>
				<path class="st110" d="M549.95,273.96c0,0,1.45,4.44,5.91,2.6"/>
				<line class="st110" x1="545.88" y1="291.3" x2="550.89" y2="289.66"/>
				<line class="st110" x1="542.48" y1="287.28" x2="548.59" y2="285.11"/>
				<line class="st110" x1="541.43" y1="282.74" x2="546.4" y2="280.62"/>
			</g>
			<path class="st80" d="M605.97,186.81c1.9,0.54,3.87,0.65,5.83,0.26c0.86-0.17,1.68-0.44,2.46-0.78l-7.2,9.63L605.97,186.81z"/>
		</g>
		<g>
			<g>
				<defs>
					<path id="SVGID_27_" d="M604.04,270.23l49.45-7.45l40.45,168.97l-109.42,5.62c-3.29-25.82-4.85-60.75,1.81-101.09
						C590.58,310.52,597.23,288.33,604.04,270.23z"/>
				</defs>
				<clipPath id="SVGID_28_">
					<use xlink:href="#SVGID_27_"  style="overflow:visible;"/>
				</clipPath>
				<g class="st111">
					<defs>
						<polygon id="SVGID_29_" points="714.79,429.25 551.14,444.72 534.63,272.18 698.28,256.71 						"/>
					</defs>
					<clipPath id="SVGID_30_">
						<use xlink:href="#SVGID_29_"  style="overflow:visible;"/>
					</clipPath>
					<g class="st112">
						<defs>
							<polygon id="SVGID_31_" points="714.79,429.25 551.14,444.72 534.63,272.18 698.28,256.71 							"/>
						</defs>
						<clipPath id="SVGID_32_">
							<use xlink:href="#SVGID_31_"  style="overflow:visible;"/>
						</clipPath>
						<polygon class="st113" points="706.7,315.31 537.95,331.26 535.04,300.84 703.79,284.89 						"/>
						<polygon class="st114" points="703.79,284.89 700.79,253.58 532.05,269.53 535.04,300.84 						"/>
						<polygon class="st115" points="715.25,404.66 712.25,373.35 543.51,389.3 546.5,420.61 						"/>
						<polygon class="st116" points="718.24,435.97 715.25,404.66 546.5,420.61 549.5,451.92 						"/>
						<polygon class="st117" points="709.34,342.93 706.7,315.31 537.95,331.26 540.59,358.88 						"/>
						<polygon class="st118" points="540.59,358.88 543.56,389.89 712.31,373.94 709.34,342.93 						"/>
					</g>
				</g>
			</g>
			<g>
				<path class="st70" d="M647.35,232.8c9.31-3.33-2.57-19.64-2.57-19.64c0.83-8.34,0.86-13.89,1.68-22.23
					c-0.75-0.66-2.42-1.94-4.91-2.46c-2.06-0.43-3.77-0.16-4.71,0.07c0,0,0,24.62-14.98,28.73c-14.98,4.11-20.28-18.81-20.28-18.81
					c-0.86,0.44-2.26,1.28-3.54,2.78c-1.4,1.65-2.01,3.33-2.28,4.29l5.12,10.81c0,0-1.17,9.8-1.38,16.88
					c-0.21,7.08,6.04,6.4,6.04,6.4s-2.5,22.64-2.22,23.14c0.28,0.5,50.87-6.85,50.87-6.85L647.35,232.8z"/>
				<path class="st119" d="M625.29,240.76c0,0-13.1-21.25-1.52-12.23C623.77,228.52,634.77,214.36,625.29,240.76z"/>
			</g>
		</g>
		<g>
			<g>
				<g>
					<path class="st120" d="M603.3,145.17c8.16-1.66,16.58,5.51,19.38,16.21c0.69-0.64,1.54-1.1,2.53-1.3
						c2.85-0.58,5.63,1.26,6.21,4.11c0.58,2.85-1.26,5.63-4.11,6.21c-1.32,0.27-2.62,0.01-3.7-0.62c-0.37,8.73-4.96,15.9-11.8,17.29
						c-8.56,1.74-17.41-6.24-19.75-17.81C589.69,157.69,594.73,146.9,603.3,145.17z"/>
					<line class="st121" x1="623.42" y1="168.58" x2="623.95" y2="170.46"/>
					<line class="st122" x1="625.25" y1="167.66" x2="628.16" y2="163.27"/>
				</g>
				<g>
					<path class="st123" d="M603.65,172.8c0.48,2.29-0.99,4.53-3.28,5c-2.29,0.48-4.53-0.99-5-3.28c-0.48-2.29,0.99-4.53,3.28-5
						C600.94,169.04,603.18,170.51,603.65,172.8z"/>
					<path class="st123" d="M619.38,169.43c0.48,2.29-0.99,4.53-3.28,5c-2.29,0.48-4.53-0.99-5-3.28c-0.48-2.29,0.99-4.53,3.28-5
						C616.66,165.67,618.9,167.14,619.38,169.43z"/>
					<g>
						<path class="st86" d="M615.22,164.15c0.18,1.03-0.27,1.96-1,2.09c-0.73,0.13-1.46-0.61-1.64-1.63c-0.18-1.03,0.27-1.96,1-2.09
							C614.31,162.39,615.04,163.12,615.22,164.15z"/>
						<path class="st86" d="M599.24,167.44c0.18,1.03-0.27,1.96-1,2.09c-0.73,0.13-1.46-0.61-1.64-1.63c-0.18-1.03,0.27-1.96,1-2.09
							C598.33,165.68,599.06,166.41,599.24,167.44z"/>
					</g>
					<g>
						<path class="st61" d="M611.54,170.96c0,0-0.21,4.2-3.16,4.74c-1.97,0.36-3.98-1.41-5.05-2.89c0.02,0.03,0.71-0.23,0.79-0.25
							c0.27-0.08,0.53-0.16,0.8-0.23c1.05-0.28,2.1-0.51,3.17-0.72C609.33,171.36,610.28,171.19,611.54,170.96z"/>
						<g>
							<path d="M602.11,172.47c0.93,0.34,1.89,0.53,2.83,0.64c0.94,0.09,1.89,0.05,2.79-0.18c0.9-0.22,1.77-0.57,2.55-1.12
								c0.42-0.23,0.76-0.57,1.15-0.86c0.38-0.3,0.7-0.67,1.09-0.99c-0.25,0.43-0.52,0.85-0.81,1.26c-0.34,0.36-0.65,0.78-1.07,1.08
								c-0.76,0.69-1.74,1.13-2.73,1.39C605.88,174.18,603.69,173.67,602.11,172.47z"/>
						</g>
					</g>
					<g>
						<polyline class="st87" points="605.97,165.18 606.21,169.94 607.89,169.23 						"/>
						<polyline class="st88" points="605.97,165.18 606.21,169.94 607.89,169.23 						"/>
					</g>
					<g>
						<path class="st22" d="M594.14,163.52c-0.11-0.54,0.03-1.11,0.31-1.57c0.27-0.48,0.69-0.85,1.15-1.13
							c0.48-0.25,0.99-0.42,1.51-0.45c0.26-0.03,0.52,0.01,0.77,0.04c0.26,0.08,0.51,0.12,0.75,0.25l0,0.08
							c-0.46,0.04-0.92,0.11-1.37,0.24c-0.45,0.13-0.87,0.3-1.27,0.53c-0.79,0.45-1.48,1.15-1.78,2.03L594.14,163.52z"/>
					</g>
					<g>
						<path class="st22" d="M609.87,158.86c0.24-0.5,0.69-0.86,1.2-1.06c0.5-0.21,1.06-0.26,1.6-0.2c0.53,0.09,1.04,0.26,1.47,0.56
							c0.22,0.14,0.41,0.32,0.59,0.5c0.16,0.22,0.33,0.41,0.44,0.66l-0.04,0.07c-0.4-0.25-0.8-0.47-1.23-0.64
							c-0.43-0.17-0.88-0.29-1.33-0.35c-0.9-0.12-1.88,0.02-2.64,0.53L609.87,158.86z"/>
					</g>
				</g>
			</g>
			<ellipse class="st70" cx="601.41" cy="148.7" rx="14.35" ry="7.1"/>
			<g>
				<line class="st124" x1="627.15" y1="169.22" x2="628.4" y2="179.81"/>
				<path class="st125" d="M625.9,175.03c0.12,1.05,1.08,1.81,2.13,1.69c1.05-0.12,1.81-1.08,1.69-2.13
					c-0.12-1.05-1.08-1.81-2.13-1.69C626.53,173.02,625.77,173.98,625.9,175.03z"/>
				<line class="st125" x1="629.62" y1="177.56" x2="626.86" y2="179.36"/>
				<line class="st125" x1="629.79" y1="179.03" x2="626.69" y2="177.89"/>
			</g>
		</g>
	</g>
	<g>
		<g>
			<g>
				<g>
					<defs>
						<polygon id="SVGID_33_" points="538.35,204.76 572.06,222.3 583.83,198.68 550.11,181.15 						"/>
					</defs>
					<clipPath id="SVGID_34_">
						<use xlink:href="#SVGID_33_"  style="overflow:visible;"/>
					</clipPath>
					<g class="st126">
						<defs>
							
								<rect id="SVGID_35_" x="541.41" y="188.22" transform="matrix(-0.8912 -0.4535 0.4535 -0.8912 968.6063 636.788)" width="38.5" height="28.05"/>
						</defs>
						<clipPath id="SVGID_36_">
							<use xlink:href="#SVGID_35_"  style="overflow:visible;"/>
						</clipPath>
						
							<rect x="543.9" y="193.58" transform="matrix(-0.8912 -0.4535 0.4535 -0.8912 977.2682 626.4639)" class="st127" width="39.7" height="4.95"/>
						
							<rect x="563.48" y="171.73" transform="matrix(0.4535 -0.8912 0.8912 0.4535 138.5675 609.1503)" class="st128" width="5.09" height="39.7"/>
						
							<rect x="554.65" y="189.08" transform="matrix(0.4535 -0.8912 0.8912 0.4535 118.2776 610.7664)" class="st129" width="5.09" height="39.7"/>
						
							<rect x="552.34" y="193.62" transform="matrix(0.4535 -0.8912 0.8912 0.4535 112.9687 611.1842)" class="st130" width="5.09" height="39.7"/>
						
							<rect x="559.37" y="180.4" transform="matrix(0.4535 -0.8912 0.8912 0.4535 128.4219 609.9575)" class="st131" width="4.49" height="39.7"/>
						
							<rect x="556.93" y="184.65" transform="matrix(0.4535 -0.8912 0.8912 0.4535 123.46 610.3576)" class="st132" width="5.04" height="39.7"/>
					</g>
				</g>
				<path class="st41" d="M558.39,249.43l1.68,0.88l26.04-52.03c-0.01-0.07-0.12-0.56-0.58-0.83c-0.52-0.3-1.04-0.07-1.09-0.05
					C575.75,214.74,567.07,232.08,558.39,249.43z"/>
			</g>
		</g>
		<path class="st133" d="M537.84,234.46c0,0-6.18-39.62-25.77-22.6c0,0-19.42-14.51-21.61,26.42L537.84,234.46z"/>
		<g>
			<g>
				<defs>
					<path id="SVGID_37_" d="M486.08,313.84c-2.56-55.66,25.88-52.34,25.88-52.34l-1.69-11.85l10.69-2.02l2.33,13.72
						c14.89-3.11,27.58,10.72,27.58,10.72l15.06-34.84c-2.09-3.68-2.69-6.33-2.58-8.56c0.11-2.23,1.83-1.53,1.83-1.53
						c0.66-2.08,2.3-1.05,2.3-1.05c-0.24-0.72,0.18-1.23,0.65-1.56c0.55-0.39,1.24-0.58,1.91-0.49c5.57,0.73,6.45,16.18,6.45,16.18
						c1.21,63.97-35.14,46.11-35.14,46.11l1.23,14.23l-40.59,0.1l-6.18,34.26c2.61,6.81,0.62,10.38-0.44,14.9
						c-1.07,4.51-3.37-6.46-3.37-6.46l-2.46,8.95C486.32,356.17,486.08,313.84,486.08,313.84z"/>
				</defs>
				<clipPath id="SVGID_38_">
					<use xlink:href="#SVGID_37_"  style="overflow:visible;"/>
				</clipPath>
				<path class="st134" d="M486.08,313.84c-2.56-55.66,25.88-52.34,25.88-52.34l-1.69-11.85l10.69-2.02l2.33,13.72
					c14.89-3.11,27.58,10.72,27.58,10.72l15.06-34.84c-2.09-3.68-2.69-6.33-2.58-8.56c0.11-2.23,1.83-1.53,1.83-1.53
					c0.66-2.08,2.3-1.05,2.3-1.05c-0.24-0.72,0.18-1.23,0.65-1.56c0.55-0.39,1.24-0.58,1.91-0.49c5.57,0.73,6.45,16.18,6.45,16.18
					c1.21,63.97-35.14,46.11-35.14,46.11l1.23,14.23l-40.59,0.1l-6.18,34.26c2.61,6.81,0.62,10.38-0.44,14.9
					c-1.07,4.51-3.37-6.46-3.37-6.46l-2.46,8.95C486.32,356.17,486.08,313.84,486.08,313.84z"/>
				<line class="st135" x1="564.6" y1="226.2" x2="566.03" y2="229.5"/>
				<line class="st135" x1="492.01" y1="341.72" x2="492.12" y2="345.31"/>
				<line class="st135" x1="567" y1="224.56" x2="568.29" y2="227.88"/>
				<line class="st135" x1="569.58" y1="223.48" x2="571.19" y2="227.01"/>
			</g>
			<g>
				<path class="st80" d="M521.66,251.68c-2.04,1.39-4.38,2.19-6.86,2.22l8.38,6.71L521.66,251.68z"/>
				<line class="st110" x1="529.83" y1="237.63" x2="532.57" y2="234.1"/>
				<line class="st110" x1="499.74" y1="241.35" x2="496.36" y2="238.43"/>
				<line class="st136" x1="528.51" y1="239.4" x2="528.62" y2="241.29"/>
				<line class="st136" x1="501.24" y1="242.45" x2="501.7" y2="244.28"/>
			</g>
		</g>
		<g>
			<g>
				<defs>
					<path id="SVGID_39_" d="M507.49,438.76l0.07,14.83c0,0,12.33,0.94,13.77,12.37l-29.14-1.61l-0.32-24.74L507.49,438.76z"/>
				</defs>
				<clipPath id="SVGID_40_">
					<use xlink:href="#SVGID_39_"  style="overflow:visible;"/>
				</clipPath>
				<path class="st137" d="M507.49,438.76l0.07,14.83c0,0,12.33,0.94,13.77,12.37l-29.14-1.61l-0.32-24.74L507.49,438.76z"/>
				<path class="st138" d="M514.76,455.96c2.34,1.38,4.65,3.54,5.85,6.93c-2.49,0.05-4.97-0.01-7.46-0.14
					c-0.31-0.02-0.63-0.04-0.94-0.06C512.52,460.2,513.38,457.85,514.76,455.96z"/>
				<path class="st138" d="M520.87,463.71c0.2,0.7,0.36,1.45,0.46,2.25l-29.14-1.61l-0.03-2.56
					C501.72,462.5,511.27,463.91,520.87,463.71z"/>
				<line class="st139" x1="508.36" y1="452.5" x2="503.21" y2="455.33"/>
				<line class="st139" x1="511.01" y1="453.42" x2="505.7" y2="458.97"/>
				<line class="st139" x1="508.13" y1="448.86" x2="502.39" y2="449.84"/>
			</g>
			<g>
				<defs>
					<path id="SVGID_41_" d="M546.77,437.57l0.07,14.83c0,0,12.33,0.94,13.77,12.37l-29.14-1.61l-0.32-24.74L546.77,437.57z"/>
				</defs>
				<clipPath id="SVGID_42_">
					<use xlink:href="#SVGID_41_"  style="overflow:visible;"/>
				</clipPath>
				<path class="st140" d="M546.77,437.57l0.07,14.83c0,0,12.33,0.94,13.77,12.37l-29.14-1.61l-0.32-24.74L546.77,437.57z"/>
				<path class="st141" d="M554.04,454.78c2.34,1.38,4.65,3.54,5.85,6.93c-2.49,0.05-4.97-0.01-7.46-0.14
					c-0.31-0.02-0.63-0.04-0.94-0.06C551.8,459.01,552.66,456.67,554.04,454.78z"/>
				<path class="st141" d="M560.15,462.53c0.2,0.7,0.36,1.45,0.46,2.25l-29.14-1.61l-0.03-2.56
					C541,461.32,550.55,462.73,560.15,462.53z"/>
				<line class="st142" x1="547.64" y1="451.31" x2="542.49" y2="454.14"/>
				<line class="st142" x1="550.29" y1="452.24" x2="544.98" y2="457.78"/>
				<line class="st142" x1="547.41" y1="447.68" x2="541.67" y2="448.65"/>
			</g>
		</g>
		<g>
			<path class="st143" d="M550.68,269.09l2.16,21.74c0,0-10.22-3.52-12.83-5.04l3.15,34.93l-45.24,2.6l4.52-29.51l-18.79-1.18
				c0,0,6.35-31.22,23.51-31.62c0,0,3.92,10.05,12.03,9.58c8.12-0.47,7.15-10.15,7.15-10.15S537.26,258.49,550.68,269.09z"/>
			<g>
				<path class="st144" d="M531.8,260.35l1.96,24.41l-25.5,0.77l-3.15-24.31c-0.98,0.21-2.1,0.51-3.29,0.94
					c-1.14,0.41-2.14,0.86-2.99,1.3c-2.24,19.68-0.65,44.01-2.23,64.97c-1.46,19.23-6.15,34.99-6.94,55.24
					c-0.91,23.5-1.29,46.32-1.21,68.42c9.94,0.22,19.87,0.43,29.81,0.65c3.18-23.21,4.05-42.08,4.24-55.17
					c0.29-19.48-0.61-47.47-0.57-47.47c0,0,0,0.02,0,0.02c0.05,1.69,5.45,102.35,5.45,102.35l30.31-0.91
					c1.55-18.51,2.26-38.73,1.55-60.41c-1.65-50.78-10.53-94.57-20.67-129.46c-0.93-0.34-2.04-0.68-3.33-0.93
					C533.95,260.49,532.79,260.38,531.8,260.35z"/>
				<g>
					<defs>
						<path id="SVGID_43_" d="M520.75,319.1L520.75,319.1c9.52-0.29,17-8.24,16.72-17.75l-0.27-8.85l-34.47,1.04l0.27,8.85
							C503.28,311.91,511.23,319.39,520.75,319.1z"/>
					</defs>
					<clipPath id="SVGID_44_">
						<use xlink:href="#SVGID_43_"  style="overflow:visible;"/>
					</clipPath>
					<g class="st145">
						<defs>
							
								<rect id="SVGID_45_" x="502.45" y="293.01" transform="matrix(-0.9995 0.0301 -0.0301 -0.9995 1049.7063 596.3145)" width="35.83" height="26.1"/>
						</defs>
						<clipPath id="SVGID_46_">
							<use xlink:href="#SVGID_45_"  style="overflow:visible;"/>
						</clipPath>
						
							<rect x="501.65" y="297.32" transform="matrix(-0.9995 0.0301 -0.0301 -0.9995 1049.0212 583.4394)" class="st146" width="36.94" height="4.6"/>
						
							<rect x="501.51" y="292.58" transform="matrix(0.9995 -0.0301 0.0301 0.9995 -8.6464 15.7926)" class="st147" width="36.94" height="4.74"/>
						
							<rect x="502.05" y="310.69" transform="matrix(0.9995 -0.0301 0.0301 0.9995 -9.1862 15.8077)" class="st148" width="36.94" height="4.74"/>
						
							<rect x="502.2" y="315.42" transform="matrix(0.9995 -0.0301 0.0301 0.9995 -9.3286 15.8142)" class="st149" width="36.94" height="4.74"/>
						
							<rect x="501.78" y="301.92" transform="matrix(0.9995 -0.0301 0.0301 0.9995 -8.9166 15.8007)" class="st150" width="36.94" height="4.18"/>
						
							<rect x="501.91" y="306.09" transform="matrix(0.9995 -0.0301 0.0301 0.9995 -9.0503 15.8073)" class="st151" width="36.94" height="4.69"/>
					</g>
					<use xlink:href="#SVGID_43_"  style="overflow:visible;fill:none;stroke:#3D00F3;stroke-width:0.9505;stroke-miterlimit:10;"/>
				</g>
			</g>
		</g>
		<g>
			<g>
				<path class="st11" d="M494.61,236.59c1.1-1.57,3.19-2.1,5.21-1.51c-0.01-10.26,6.5-18.6,14.61-18.67
					c7.23-0.07,13.3,6.45,14.68,15.12c1.48-0.67,3.12-0.64,4.39,0.24c2.06,1.45,2.33,4.62,0.61,7.08c-1.38,1.96-3.6,2.87-5.49,2.44
					c-1.97,7.29-7.39,12.55-13.83,12.61c-5.6,0.05-10.52-3.85-13.08-9.64c-1.57,0.62-3.58,0.38-5.26-0.81
					C493.99,241.72,493.17,238.65,494.61,236.59z"/>
				<line class="st152" x1="529.83" y1="237.63" x2="532.57" y2="234.1"/>
				<line class="st152" x1="499.74" y1="241.35" x2="496.36" y2="238.43"/>
				<line class="st153" x1="528.51" y1="239.4" x2="528.62" y2="241.29"/>
				<line class="st153" x1="501.24" y1="242.45" x2="501.7" y2="244.28"/>
			</g>
			<g>
				<path class="st154" d="M517.24,239.06c0.27,2.21,2.28,3.79,4.49,3.52c2.21-0.27,3.78-2.28,3.51-4.5
					c-0.27-2.21-2.28-3.79-4.49-3.52S516.97,236.85,517.24,239.06z"/>
				<path class="st154" d="M503.23,240.78c0.27,2.21,2.28,3.79,4.49,3.52c2.21-0.27,3.78-2.28,3.51-4.5
					c-0.27-2.21-2.28-3.79-4.49-3.52C504.53,236.55,502.96,238.56,503.23,240.78z"/>
				<g>
					<path class="st22" d="M505.35,235.42c0.12,0.99,0.78,1.72,1.48,1.63c0.7-0.09,1.16-0.96,1.04-1.94
						c-0.12-0.99-0.78-1.72-1.48-1.63C505.7,233.56,505.23,234.43,505.35,235.42z"/>
					<path class="st22" d="M519.17,233.73c0.12,0.99,0.78,1.72,1.48,1.63c0.7-0.09,1.16-0.96,1.04-1.94
						c-0.12-0.99-0.78-1.72-1.48-1.63C519.52,231.87,519.05,232.74,519.17,233.73z"/>
				</g>
				<g>
					<path class="st155" d="M516.36,238.49c-0.06,1.65-0.92,2.89-2.03,2.96c-1.04,0.07-2.08-0.92-2.51-2.41"/>
				</g>
				<g>
					<path class="st27" d="M513.18,237.41c2.36,0.13,1.14-2.45,1.14-2.45c-0.09,0.02-0.8,0.15-1.17,0.82
						C512.71,236.57,513.16,237.37,513.18,237.41z"/>
					<g>
						<path class="st155" d="M514.23,234.7c0,0,1.12,2.9-1.24,2.78"/>
					</g>
				</g>
				<g>
					<path class="st22" d="M523.81,228.82c-0.52-0.24-1-0.38-1.42-0.52c-0.44-0.13-0.84-0.25-1.27-0.34
						c-0.42-0.11-0.86-0.17-1.33-0.27c-0.47-0.08-0.97-0.19-1.54-0.36l-0.02-0.09c0.5-0.12,1.01-0.22,1.53-0.25
						c0.52-0.03,1.04,0,1.56,0.1c1.01,0.25,1.98,0.8,2.58,1.67L523.81,228.82z"/>
				</g>
				<g>
					<path class="st22" d="M508.59,228.51c-0.56,0.13-1.02,0.31-1.45,0.45c-0.42,0.16-0.82,0.31-1.22,0.5
						c-0.4,0.17-0.79,0.39-1.22,0.59c-0.42,0.22-0.89,0.44-1.44,0.65l-0.07-0.06c0.33-0.4,0.67-0.79,1.07-1.13
						c0.4-0.34,0.83-0.63,1.3-0.86c0.96-0.41,2.06-0.56,3.06-0.23L508.59,228.51z"/>
				</g>
			</g>
			<g>
				<path class="st156" d="M498.65,223.73c1.6,2.14,5.73,1.74,9.22-0.88s5.01-6.48,3.41-8.61c-1.6-2.14-5.73-1.74-9.22,0.88
					C498.58,217.74,497.05,221.6,498.65,223.73z"/>
				<path class="st156" d="M512.21,213.77c-1.02,2.47,1.41,5.82,5.44,7.49c4.03,1.67,8.12,1.03,9.15-1.44
					c1.02-2.47-1.41-5.82-5.44-7.49C517.33,210.66,513.23,211.3,512.21,213.77z"/>
			</g>
			<g>
				<path class="st157" d="M508.75,239.45l-2.16-0.9c-0.31-0.13-0.67-0.1-0.95,0.08l-2.03,1.25c-0.73,0.45-1.65-0.1-1.55-0.93
					l0.26-2.31c0.04-0.33-0.09-0.65-0.35-0.86l-1.8-1.47c-0.65-0.53-0.37-1.56,0.46-1.75l2.32-0.53c0.33-0.08,0.61-0.3,0.74-0.61
					l0.92-2.16c0.33-0.77,1.42-0.87,1.84-0.15l1.18,1.98c0.17,0.28,0.47,0.46,0.81,0.48l2.36,0.13c0.85,0.05,1.25,1.03,0.68,1.66
					l-1.59,1.75c-0.23,0.25-0.32,0.59-0.24,0.91l0.54,2.24C510.36,239.08,509.52,239.77,508.75,239.45z"/>
				<path class="st157" d="M524.83,237.78l-2.18-0.86c-0.31-0.12-0.67-0.09-0.95,0.1l-2.01,1.28c-0.72,0.46-1.65-0.07-1.57-0.9
					l0.22-2.31c0.03-0.33-0.11-0.65-0.36-0.85l-1.82-1.44c-0.65-0.52-0.4-1.56,0.43-1.76l2.31-0.57c0.33-0.08,0.6-0.31,0.73-0.62
					l0.88-2.17c0.32-0.78,1.4-0.89,1.84-0.18l1.21,1.96c0.17,0.28,0.48,0.45,0.81,0.47l2.37,0.1c0.85,0.03,1.27,1.01,0.7,1.64
					l-1.57,1.78c-0.22,0.25-0.31,0.59-0.22,0.91l0.58,2.23C526.44,237.38,525.61,238.09,524.83,237.78z"/>
				<line class="st157" x1="511.71" y1="232.12" x2="515.65" y2="231.82"/>
			</g>
		</g>
	</g>
</g>
</svg>
